<svg width="340" height="92" viewBox="0 0 340 92" fill="none" xmlns="http://www.w3.org/2000/svg">
<path d="M19.3411 9L223.763 10.0365L223.421 77.2999L19 76.2634L19.3411 9Z" fill="#7CAFFF"/>
<rect x="219.342" y="8.55046" width="89.0247" height="71.9991" transform="rotate(0.290516 219.342 8.55046)" fill="white"/>
<ellipse cx="40.7045" cy="42.7365" rx="40.4994" ry="40.5317" transform="rotate(0.290516 40.7045 42.7365)" fill="white"/>
<path d="M222.943 25.1143C224.303 25.1212 226.264 25.0778 228.824 24.9841C231.385 24.8905 233.078 24.8457 233.905 24.8499L234.985 24.8554C238.478 24.8731 241.074 25.6063 242.774 27.0549C244.473 28.4769 245.317 30.3478 245.305 32.6678C245.289 35.9744 243.117 38.2568 238.791 39.5149L238.79 39.6349C241.295 40.0209 243.263 41.0176 244.695 42.6248C246.153 44.2056 246.877 46.1026 246.866 48.3159C246.851 51.2759 245.826 53.5774 243.791 55.2204C241.783 56.8636 238.832 57.6753 234.938 57.6556C233.872 57.6502 232.139 57.548 229.74 57.3492C227.367 57.1772 225.475 57.0876 224.061 57.0804C223.901 57.0796 223.648 57.0783 223.301 57.0766C222.954 57.1015 222.701 57.1135 222.541 57.1127C222.384 56.6319 222.386 56.1519 222.548 55.6727L225.871 55.2496C225.982 54.2368 226.044 52.6771 226.054 50.5704L226.174 27.0107L222.936 26.5943C222.831 26.1938 222.834 25.7004 222.943 25.1143ZM233.583 40.8885L230.384 40.8723L230.31 55.3521C231.669 55.599 232.748 55.7511 233.548 55.8085C236.774 55.8249 239.004 55.2362 240.237 54.0424C241.47 52.822 242.093 50.9184 242.106 48.3318C242.116 46.2518 241.365 44.5013 239.852 43.0803C238.366 41.6327 236.277 40.9021 233.583 40.8885ZM233.936 26.5301C232.603 26.5233 231.496 26.611 230.615 26.7932C230.503 27.806 230.441 29.4724 230.43 31.7924L230.394 38.8723L233.514 38.8881C235.994 38.9007 237.796 38.4031 238.921 37.3955C240.073 36.388 240.654 34.8843 240.664 32.8843C240.674 30.8576 240.056 29.2945 238.808 28.1948C237.587 27.0953 235.963 26.5404 233.936 26.5301ZM255.014 51.9173C255.007 53.3039 255.255 54.2919 255.759 54.8811C256.263 55.4437 257.061 55.7277 258.154 55.7333C258.954 55.7373 259.836 55.5018 260.798 55.0267C261.787 54.525 262.698 53.8096 263.529 52.8805L263.561 46.6406C260.813 46.7866 258.704 47.2693 257.233 48.0885C255.763 48.881 255.023 50.1573 255.014 51.9173ZM263.568 45.2006L263.578 43.1606C263.59 40.894 263.331 39.2526 262.803 38.2366C262.302 37.194 261.451 36.6697 260.251 36.6636C259.025 36.6574 258.036 37.0524 257.285 37.8486C256.535 38.6182 256.021 39.9489 255.745 41.8409C254.891 42.0232 254.263 42.1134 253.863 42.1113C252.823 42.1061 252.212 41.7296 252.029 40.982C252.038 39.1687 252.832 37.7327 254.411 36.674C255.99 35.6154 257.952 35.092 260.299 35.1039C262.886 35.117 264.71 35.6596 265.771 36.7316C266.859 37.7772 267.396 39.6599 267.382 42.3799L267.325 53.6597C267.322 54.3264 267.359 54.8999 267.436 55.3803L270.594 55.7963C270.699 56.1969 270.696 56.7035 270.587 57.3163C268.693 57.3867 266.679 57.5632 264.544 57.8457C264.332 57.6313 264.2 57.3639 264.148 57.0437L263.962 54.2827C261.736 56.8048 259.263 58.0589 256.543 58.0451C254.863 58.0366 253.545 57.5499 252.59 56.5851C251.662 55.6203 251.202 54.3247 251.21 52.698C251.222 50.2447 252.338 48.397 254.558 47.1549C256.804 45.913 259.808 45.2615 263.568 45.2006ZM280.382 36.0057L280.281 40.1252C280.954 38.902 281.88 37.7867 283.058 36.7793C284.263 35.7454 285.399 35.2311 286.466 35.2365C287.293 35.2407 288.025 35.3378 288.664 35.5277C288.876 35.8754 288.98 36.3293 288.978 36.8893C288.973 37.7693 288.782 38.6483 288.404 39.5264C287.446 39.2549 286.526 39.1169 285.646 39.1124C283.46 39.1014 281.654 40.1589 280.23 42.285L280.115 49.2845L280.084 55.3244L284.521 55.947C284.625 56.3742 284.623 56.9075 284.513 57.5469C282.833 57.4584 280.913 57.4087 278.753 57.3977C277.127 57.3895 275.193 57.4063 272.953 57.4483C272.796 56.9408 272.798 56.4209 272.961 55.8883L276.123 55.4644C276.237 53.9983 276.299 52.3052 276.309 50.3852L276.365 39.4254C276.367 38.8921 276.33 38.3985 276.252 37.9448L273.094 37.5288C272.99 37.1282 272.992 36.6216 273.102 36.0088C274.943 35.8848 277.237 35.6164 279.986 35.2037C280.225 35.4716 280.357 35.7389 280.382 36.0057Z" fill="#7CAFFF"/>
<path d="M222.943 25.1143L222.948 24.1143L222.114 24.1101L221.96 24.9305L222.943 25.1143ZM228.824 24.9841L228.861 25.9835L228.824 24.9841ZM242.774 27.0549L242.125 27.8159L242.132 27.8219L242.774 27.0549ZM238.791 39.5149L238.511 38.5546L237.794 38.7631L237.791 39.5098L238.791 39.5149ZM238.79 39.6349L237.79 39.6298L237.786 40.4919L238.638 40.6232L238.79 39.6349ZM244.695 42.6248L243.948 43.29L243.954 43.2966L243.96 43.303L244.695 42.6248ZM243.791 55.2204L243.163 54.4423L243.158 54.4465L243.791 55.2204ZM229.74 57.3492L229.823 56.3526L229.812 56.3518L229.74 57.3492ZM223.301 57.0766L223.306 56.0766L223.268 56.0764L223.23 56.0791L223.301 57.0766ZM222.541 57.1127L221.591 57.4241L221.815 58.109L222.536 58.1127L222.541 57.1127ZM222.548 55.6727L222.422 54.6807L221.802 54.7597L221.601 55.3517L222.548 55.6727ZM225.871 55.2496L225.997 56.2415L226.778 56.142L226.865 55.3593L225.871 55.2496ZM226.174 27.0107L227.174 27.0158L227.178 26.1317L226.301 26.0189L226.174 27.0107ZM222.936 26.5943L221.968 26.8471L222.139 27.5001L222.808 27.5861L222.936 26.5943ZM230.384 40.8723L230.389 39.8723L229.389 39.8672L229.384 40.8672L230.384 40.8723ZM230.31 55.3521L229.31 55.347L229.306 56.186L230.131 56.336L230.31 55.3521ZM233.548 55.8085L233.476 56.8059L233.509 56.8083L233.543 56.8085L233.548 55.8085ZM240.237 54.0424L240.933 54.7608L240.94 54.7531L240.237 54.0424ZM239.852 43.0803L239.155 43.7966L239.161 43.803L239.168 43.8092L239.852 43.0803ZM230.615 26.7932L230.412 25.814L229.701 25.9612L229.621 26.6835L230.615 26.7932ZM230.394 38.8723L229.394 38.8672L229.389 39.8672L230.389 39.8723L230.394 38.8723ZM238.921 37.3955L238.263 36.6428L238.254 36.6506L238.921 37.3955ZM238.808 28.1948L238.139 28.938L238.147 28.945L238.808 28.1948ZM222.938 26.1143C224.319 26.1213 226.296 26.0773 228.861 25.9835L228.787 23.9848C226.231 24.0784 224.287 24.1211 222.948 24.1143L222.938 26.1143ZM228.861 25.9835C231.425 25.8896 233.098 25.8458 233.9 25.8499L233.91 23.8499C233.059 23.8456 231.344 23.8913 228.787 23.9848L228.861 25.9835ZM233.9 25.8499L234.98 25.8554L234.99 23.8554L233.91 23.8499L233.9 25.8499ZM234.98 25.8554C238.363 25.8725 240.682 26.5861 242.125 27.8159L243.422 26.2939C241.466 24.6264 238.593 23.8737 234.99 23.8554L234.98 25.8554ZM242.132 27.8219C243.591 29.0426 244.316 30.6245 244.305 32.6627L246.305 32.6729C246.318 30.0711 245.355 27.9112 243.415 26.288L242.132 27.8219ZM244.305 32.6627C244.298 34.0751 243.84 35.2236 242.94 36.1702C242.017 37.1398 240.574 37.9549 238.511 38.5546L239.07 40.4751C241.334 39.8167 243.139 38.8616 244.389 37.5489C245.659 36.2132 246.296 34.5671 246.305 32.6729L244.305 32.6627ZM237.791 39.5098L237.79 39.6298L239.79 39.6399L239.79 39.5199L237.791 39.5098ZM238.638 40.6232C240.955 40.9804 242.697 41.8859 243.948 43.29L245.441 41.9597C243.829 40.1492 241.634 39.0614 238.942 38.6465L238.638 40.6232ZM243.96 43.303C245.242 44.6919 245.876 46.3425 245.866 48.3109L247.866 48.321C247.878 45.8627 247.065 43.7193 245.43 41.9467L243.96 43.303ZM245.866 48.3109C245.852 51.015 244.931 53.0144 243.163 54.4424L244.419 55.9985C246.721 54.1404 247.85 51.5368 247.866 48.321L245.866 48.3109ZM243.158 54.4465C241.4 55.8843 238.716 56.6747 234.944 56.6556L234.933 58.6556C238.947 58.6759 242.165 57.8428 244.424 55.9944L243.158 54.4465ZM234.944 56.6556C233.919 56.6504 232.22 56.5513 229.823 56.3526L229.657 58.3458C232.058 58.5448 233.825 58.6499 234.933 58.6556L234.944 56.6556ZM229.812 56.3518C227.43 56.1791 225.512 56.0878 224.066 56.0804L224.056 58.0804C225.437 58.0874 227.305 58.1752 229.668 58.3466L229.812 56.3518ZM224.066 56.0804C224.066 56.0804 224.066 56.0804 224.065 56.0804C224.065 56.0804 224.065 56.0804 224.064 56.0804C224.064 56.0804 224.064 56.0804 224.064 56.0804C224.063 56.0804 224.063 56.0804 224.063 56.0804C224.062 56.0804 224.062 56.0804 224.062 56.0804C224.061 56.0804 224.061 56.0804 224.061 56.0804C224.06 56.0804 224.06 56.0804 224.06 56.0804C224.059 56.0804 224.059 56.0804 224.059 56.0804C224.058 56.0804 224.058 56.0804 224.058 56.0804C224.057 56.0804 224.057 56.0804 224.057 56.0804C224.057 56.0804 224.056 56.0804 224.056 56.0804C224.056 56.0804 224.055 56.0804 224.055 56.0804C224.055 56.0804 224.054 56.0804 224.054 56.0804C224.054 56.0804 224.053 56.0804 224.053 56.0804C224.053 56.0804 224.052 56.0804 224.052 56.0803C224.052 56.0803 224.051 56.0803 224.051 56.0803C224.051 56.0803 224.05 56.0803 224.05 56.0803C224.05 56.0803 224.049 56.0803 224.049 56.0803C224.049 56.0803 224.048 56.0803 224.048 56.0803C224.048 56.0803 224.047 56.0803 224.047 56.0803C224.047 56.0803 224.046 56.0803 224.046 56.0803C224.046 56.0803 224.046 56.0803 224.045 56.0803C224.045 56.0803 224.045 56.0803 224.044 56.0803C224.044 56.0803 224.044 56.0803 224.043 56.0803C224.043 56.0803 224.043 56.0803 224.042 56.0803C224.042 56.0803 224.042 56.0803 224.041 56.0803C224.041 56.0803 224.041 56.0803 224.04 56.0803C224.04 56.0803 224.04 56.0803 224.039 56.0803C224.039 56.0803 224.039 56.0803 224.038 56.0803C224.038 56.0803 224.038 56.0803 224.037 56.0803C224.037 56.0803 224.037 56.0803 224.036 56.0803C224.036 56.0803 224.036 56.0803 224.035 56.0803C224.035 56.0803 224.035 56.0803 224.034 56.0803C224.034 56.0803 224.034 56.0803 224.033 56.0803C224.033 56.0803 224.033 56.0803 224.032 56.0802C224.032 56.0802 224.032 56.0802 224.031 56.0802C224.031 56.0802 224.031 56.0802 224.03 56.0802C224.03 56.0802 224.029 56.0802 224.029 56.0802C224.029 56.0802 224.028 56.0802 224.028 56.0802C224.028 56.0802 224.027 56.0802 224.027 56.0802C224.027 56.0802 224.026 56.0802 224.026 56.0802C224.026 56.0802 224.025 56.0802 224.025 56.0802C224.025 56.0802 224.024 56.0802 224.024 56.0802C224.024 56.0802 224.023 56.0802 224.023 56.0802C224.023 56.0802 224.022 56.0802 224.022 56.0802C224.022 56.0802 224.021 56.0802 224.021 56.0802C224.021 56.0802 224.02 56.0802 224.02 56.0802C224.02 56.0802 224.019 56.0802 224.019 56.0802C224.019 56.0802 224.018 56.0802 224.018 56.0802C224.017 56.0802 224.017 56.0802 224.017 56.0802C224.016 56.0802 224.016 56.0802 224.016 56.0802C224.015 56.0802 224.015 56.0802 224.015 56.0802C224.014 56.0802 224.014 56.0802 224.014 56.0802C224.013 56.0802 224.013 56.0802 224.013 56.0801C224.012 56.0801 224.012 56.0801 224.012 56.0801C224.011 56.0801 224.011 56.0801 224.01 56.0801C224.01 56.0801 224.01 56.0801 224.009 56.0801C224.009 56.0801 224.009 56.0801 224.008 56.0801C224.008 56.0801 224.008 56.0801 224.007 56.0801C224.007 56.0801 224.007 56.0801 224.006 56.0801C224.006 56.0801 224.006 56.0801 224.005 56.0801C224.005 56.0801 224.004 56.0801 224.004 56.0801C224.004 56.0801 224.003 56.0801 224.003 56.0801C224.003 56.0801 224.002 56.0801 224.002 56.0801C224.002 56.0801 224.001 56.0801 224.001 56.0801C224.001 56.0801 224 56.0801 224 56.0801C223.999 56.0801 223.999 56.0801 223.999 56.0801C223.998 56.0801 223.998 56.0801 223.998 56.0801C223.997 56.0801 223.997 56.0801 223.997 56.0801C223.996 56.0801 223.996 56.0801 223.995 56.0801C223.995 56.0801 223.995 56.0801 223.994 56.0801C223.994 56.0801 223.994 56.0801 223.993 56.0801C223.993 56.0801 223.993 56.08 223.992 56.08C223.992 56.08 223.991 56.08 223.991 56.08C223.991 56.08 223.99 56.08 223.99 56.08C223.99 56.08 223.989 56.08 223.989 56.08C223.989 56.08 223.988 56.08 223.988 56.08C223.987 56.08 223.987 56.08 223.987 56.08C223.986 56.08 223.986 56.08 223.986 56.08C223.985 56.08 223.985 56.08 223.984 56.08C223.984 56.08 223.984 56.08 223.983 56.08C223.983 56.08 223.983 56.08 223.982 56.08C223.982 56.08 223.982 56.08 223.981 56.08C223.981 56.08 223.98 56.08 223.98 56.08C223.98 56.08 223.979 56.08 223.979 56.08C223.979 56.08 223.978 56.08 223.978 56.08C223.977 56.08 223.977 56.08 223.977 56.08C223.976 56.08 223.976 56.08 223.976 56.08C223.975 56.08 223.975 56.08 223.974 56.08C223.974 56.08 223.974 56.08 223.973 56.08C223.973 56.0799 223.973 56.0799 223.972 56.0799C223.972 56.0799 223.971 56.0799 223.971 56.0799C223.971 56.0799 223.97 56.0799 223.97 56.0799C223.97 56.0799 223.969 56.0799 223.969 56.0799C223.968 56.0799 223.968 56.0799 223.968 56.0799C223.967 56.0799 223.967 56.0799 223.966 56.0799C223.966 56.0799 223.966 56.0799 223.965 56.0799C223.965 56.0799 223.965 56.0799 223.964 56.0799C223.964 56.0799 223.963 56.0799 223.963 56.0799C223.963 56.0799 223.962 56.0799 223.962 56.0799C223.962 56.0799 223.961 56.0799 223.961 56.0799C223.96 56.0799 223.96 56.0799 223.96 56.0799C223.959 56.0799 223.959 56.0799 223.958 56.0799C223.958 56.0799 223.958 56.0799 223.957 56.0799C223.957 56.0799 223.956 56.0799 223.956 56.0799C223.956 56.0799 223.955 56.0799 223.955 56.0799C223.955 56.0799 223.954 56.0799 223.954 56.0799C223.953 56.0798 223.953 56.0798 223.953 56.0798C223.952 56.0798 223.952 56.0798 223.951 56.0798C223.951 56.0798 223.951 56.0798 223.95 56.0798C223.95 56.0798 223.949 56.0798 223.949 56.0798C223.949 56.0798 223.948 56.0798 223.948 56.0798C223.948 56.0798 223.947 56.0798 223.947 56.0798C223.946 56.0798 223.946 56.0798 223.946 56.0798C223.945 56.0798 223.945 56.0798 223.944 56.0798C223.944 56.0798 223.944 56.0798 223.943 56.0798C223.943 56.0798 223.942 56.0798 223.942 56.0798C223.942 56.0798 223.941 56.0798 223.941 56.0798C223.94 56.0798 223.94 56.0798 223.94 56.0798C223.939 56.0798 223.939 56.0798 223.938 56.0798C223.938 56.0798 223.938 56.0798 223.937 56.0798C223.937 56.0798 223.936 56.0798 223.936 56.0798C223.936 56.0798 223.935 56.0798 223.935 56.0798C223.934 56.0798 223.934 56.0798 223.934 56.0797C223.933 56.0797 223.933 56.0797 223.932 56.0797C223.932 56.0797 223.932 56.0797 223.931 56.0797C223.931 56.0797 223.93 56.0797 223.93 56.0797C223.93 56.0797 223.929 56.0797 223.929 56.0797C223.928 56.0797 223.928 56.0797 223.928 56.0797C223.927 56.0797 223.927 56.0797 223.926 56.0797C223.926 56.0797 223.926 56.0797 223.925 56.0797C223.925 56.0797 223.924 56.0797 223.924 56.0797C223.924 56.0797 223.923 56.0797 223.923 56.0797C223.922 56.0797 223.922 56.0797 223.922 56.0797C223.921 56.0797 223.921 56.0797 223.92 56.0797C223.92 56.0797 223.919 56.0797 223.919 56.0797C223.919 56.0797 223.918 56.0797 223.918 56.0797C223.917 56.0797 223.917 56.0797 223.917 56.0797C223.916 56.0797 223.916 56.0797 223.915 56.0797C223.915 56.0797 223.915 56.0797 223.914 56.0797C223.914 56.0796 223.913 56.0796 223.913 56.0796C223.912 56.0796 223.912 56.0796 223.912 56.0796C223.911 56.0796 223.911 56.0796 223.91 56.0796C223.91 56.0796 223.91 56.0796 223.909 56.0796C223.909 56.0796 223.908 56.0796 223.908 56.0796C223.908 56.0796 223.907 56.0796 223.907 56.0796C223.906 56.0796 223.906 56.0796 223.905 56.0796C223.905 56.0796 223.905 56.0796 223.904 56.0796C223.904 56.0796 223.903 56.0796 223.903 56.0796C223.903 56.0796 223.902 56.0796 223.902 56.0796C223.901 56.0796 223.901 56.0796 223.9 56.0796C223.9 56.0796 223.9 56.0796 223.899 56.0796C223.899 56.0796 223.898 56.0796 223.898 56.0796C223.897 56.0796 223.897 56.0796 223.897 56.0796C223.896 56.0796 223.896 56.0796 223.895 56.0796C223.895 56.0796 223.895 56.0796 223.894 56.0795C223.894 56.0795 223.893 56.0795 223.893 56.0795C223.892 56.0795 223.892 56.0795 223.892 56.0795C223.891 56.0795 223.891 56.0795 223.89 56.0795C223.89 56.0795 223.889 56.0795 223.889 56.0795C223.889 56.0795 223.888 56.0795 223.888 56.0795C223.887 56.0795 223.887 56.0795 223.886 56.0795C223.886 56.0795 223.886 56.0795 223.885 56.0795C223.885 56.0795 223.884 56.0795 223.884 56.0795C223.883 56.0795 223.883 56.0795 223.883 56.0795C223.882 56.0795 223.882 56.0795 223.881 56.0795C223.881 56.0795 223.88 56.0795 223.88 56.0795C223.88 56.0795 223.879 56.0795 223.879 56.0795C223.878 56.0795 223.878 56.0795 223.877 56.0795C223.877 56.0795 223.877 56.0795 223.876 56.0795C223.876 56.0795 223.875 56.0795 223.875 56.0795C223.874 56.0794 223.874 56.0794 223.873 56.0794C223.873 56.0794 223.873 56.0794 223.872 56.0794C223.872 56.0794 223.871 56.0794 223.871 56.0794C223.87 56.0794 223.87 56.0794 223.87 56.0794C223.869 56.0794 223.869 56.0794 223.868 56.0794C223.868 56.0794 223.867 56.0794 223.867 56.0794C223.866 56.0794 223.866 56.0794 223.866 56.0794C223.865 56.0794 223.865 56.0794 223.864 56.0794C223.864 56.0794 223.863 56.0794 223.863 56.0794C223.863 56.0794 223.862 56.0794 223.862 56.0794C223.861 56.0794 223.861 56.0794 223.86 56.0794C223.86 56.0794 223.859 56.0794 223.859 56.0794C223.859 56.0794 223.858 56.0794 223.858 56.0794C223.857 56.0794 223.857 56.0794 223.856 56.0794C223.856 56.0794 223.855 56.0794 223.855 56.0794C223.855 56.0793 223.854 56.0793 223.854 56.0793C223.853 56.0793 223.853 56.0793 223.852 56.0793C223.852 56.0793 223.851 56.0793 223.851 56.0793C223.851 56.0793 223.85 56.0793 223.85 56.0793C223.849 56.0793 223.849 56.0793 223.848 56.0793C223.848 56.0793 223.847 56.0793 223.847 56.0793C223.847 56.0793 223.846 56.0793 223.846 56.0793C223.845 56.0793 223.845 56.0793 223.844 56.0793C223.844 56.0793 223.843 56.0793 223.843 56.0793C223.842 56.0793 223.842 56.0793 223.842 56.0793C223.841 56.0793 223.841 56.0793 223.84 56.0793C223.84 56.0793 223.839 56.0793 223.839 56.0793C223.838 56.0793 223.838 56.0793 223.837 56.0793C223.837 56.0793 223.837 56.0793 223.836 56.0793C223.836 56.0793 223.835 56.0793 223.835 56.0792C223.834 56.0792 223.834 56.0792 223.833 56.0792C223.833 56.0792 223.832 56.0792 223.832 56.0792C223.832 56.0792 223.831 56.0792 223.831 56.0792C223.83 56.0792 223.83 56.0792 223.829 56.0792C223.829 56.0792 223.828 56.0792 223.828 56.0792C223.827 56.0792 223.827 56.0792 223.826 56.0792C223.826 56.0792 223.826 56.0792 223.825 56.0792C223.825 56.0792 223.824 56.0792 223.824 56.0792C223.823 56.0792 223.823 56.0792 223.822 56.0792C223.822 56.0792 223.821 56.0792 223.821 56.0792C223.82 56.0792 223.82 56.0792 223.82 56.0792C223.819 56.0792 223.819 56.0792 223.818 56.0792C223.818 56.0792 223.817 56.0792 223.817 56.0792C223.816 56.0792 223.816 56.0792 223.815 56.0791C223.815 56.0791 223.814 56.0791 223.814 56.0791C223.814 56.0791 223.813 56.0791 223.813 56.0791C223.812 56.0791 223.812 56.0791 223.811 56.0791C223.811 56.0791 223.81 56.0791 223.81 56.0791C223.809 56.0791 223.809 56.0791 223.808 56.0791C223.808 56.0791 223.807 56.0791 223.807 56.0791C223.807 56.0791 223.806 56.0791 223.806 56.0791C223.805 56.0791 223.805 56.0791 223.804 56.0791C223.804 56.0791 223.803 56.0791 223.803 56.0791C223.802 56.0791 223.802 56.0791 223.801 56.0791C223.801 56.0791 223.8 56.0791 223.8 56.0791C223.799 56.0791 223.799 56.0791 223.798 56.0791C223.798 56.0791 223.798 56.0791 223.797 56.0791C223.797 56.0791 223.796 56.0791 223.796 56.079C223.795 56.079 223.795 56.079 223.794 56.079C223.794 56.079 223.793 56.079 223.793 56.079C223.792 56.079 223.792 56.079 223.791 56.079C223.791 56.079 223.79 56.079 223.79 56.079C223.789 56.079 223.789 56.079 223.788 56.079C223.788 56.079 223.788 56.079 223.787 56.079C223.787 56.079 223.786 56.079 223.786 56.079C223.785 56.079 223.785 56.079 223.784 56.079C223.784 56.079 223.783 56.079 223.783 56.079C223.782 56.079 223.782 56.079 223.781 56.079C223.781 56.079 223.78 56.079 223.78 56.079C223.779 56.079 223.779 56.079 223.778 56.079C223.778 56.079 223.777 56.079 223.777 56.079C223.776 56.079 223.776 56.0789 223.775 56.0789C223.775 56.0789 223.774 56.0789 223.774 56.0789C223.773 56.0789 223.773 56.0789 223.773 56.0789C223.772 56.0789 223.772 56.0789 223.771 56.0789C223.771 56.0789 223.77 56.0789 223.77 56.0789C223.769 56.0789 223.769 56.0789 223.768 56.0789C223.768 56.0789 223.767 56.0789 223.767 56.0789C223.766 56.0789 223.766 56.0789 223.765 56.0789C223.765 56.0789 223.764 56.0789 223.764 56.0789C223.763 56.0789 223.763 56.0789 223.762 56.0789C223.762 56.0789 223.761 56.0789 223.761 56.0789C223.76 56.0789 223.76 56.0789 223.759 56.0789C223.759 56.0789 223.758 56.0789 223.758 56.0789C223.757 56.0789 223.757 56.0789 223.756 56.0789C223.756 56.0788 223.755 56.0788 223.755 56.0788C223.754 56.0788 223.754 56.0788 223.753 56.0788C223.753 56.0788 223.752 56.0788 223.752 56.0788C223.751 56.0788 223.751 56.0788 223.75 56.0788C223.75 56.0788 223.749 56.0788 223.749 56.0788C223.748 56.0788 223.748 56.0788 223.747 56.0788C223.747 56.0788 223.746 56.0788 223.746 56.0788C223.745 56.0788 223.745 56.0788 223.744 56.0788C223.744 56.0788 223.743 56.0788 223.743 56.0788C223.742 56.0788 223.742 56.0788 223.741 56.0788C223.741 56.0788 223.74 56.0788 223.74 56.0788C223.739 56.0788 223.739 56.0788 223.738 56.0788C223.738 56.0788 223.737 56.0788 223.737 56.0788C223.736 56.0787 223.736 56.0787 223.735 56.0787C223.735 56.0787 223.734 56.0787 223.734 56.0787C223.733 56.0787 223.733 56.0787 223.732 56.0787C223.732 56.0787 223.731 56.0787 223.731 56.0787C223.73 56.0787 223.73 56.0787 223.729 56.0787C223.729 56.0787 223.728 56.0787 223.728 56.0787C223.727 56.0787 223.727 56.0787 223.726 56.0787C223.726 56.0787 223.725 56.0787 223.725 56.0787C223.724 56.0787 223.724 56.0787 223.723 56.0787C223.723 56.0787 223.722 56.0787 223.722 56.0787C223.721 56.0787 223.721 56.0787 223.72 56.0787C223.72 56.0787 223.719 56.0787 223.719 56.0787C223.718 56.0787 223.718 56.0787 223.717 56.0787C223.716 56.0786 223.716 56.0786 223.715 56.0786C223.715 56.0786 223.714 56.0786 223.714 56.0786C223.713 56.0786 223.713 56.0786 223.712 56.0786C223.712 56.0786 223.711 56.0786 223.711 56.0786C223.71 56.0786 223.71 56.0786 223.709 56.0786C223.709 56.0786 223.708 56.0786 223.708 56.0786C223.707 56.0786 223.707 56.0786 223.706 56.0786C223.706 56.0786 223.705 56.0786 223.705 56.0786C223.704 56.0786 223.704 56.0786 223.703 56.0786C223.703 56.0786 223.702 56.0786 223.702 56.0786C223.701 56.0786 223.7 56.0786 223.7 56.0786C223.699 56.0786 223.699 56.0786 223.698 56.0786C223.698 56.0786 223.697 56.0786 223.697 56.0785C223.696 56.0785 223.696 56.0785 223.695 56.0785C223.695 56.0785 223.694 56.0785 223.694 56.0785C223.693 56.0785 223.693 56.0785 223.692 56.0785C223.692 56.0785 223.691 56.0785 223.691 56.0785C223.69 56.0785 223.689 56.0785 223.689 56.0785C223.688 56.0785 223.688 56.0785 223.687 56.0785C223.687 56.0785 223.686 56.0785 223.686 56.0785C223.685 56.0785 223.685 56.0785 223.684 56.0785C223.684 56.0785 223.683 56.0785 223.683 56.0785C223.682 56.0785 223.682 56.0785 223.681 56.0785C223.68 56.0785 223.68 56.0785 223.679 56.0785C223.679 56.0785 223.678 56.0785 223.678 56.0785C223.677 56.0784 223.677 56.0784 223.676 56.0784C223.676 56.0784 223.675 56.0784 223.675 56.0784C223.674 56.0784 223.674 56.0784 223.673 56.0784C223.673 56.0784 223.672 56.0784 223.671 56.0784C223.671 56.0784 223.67 56.0784 223.67 56.0784C223.669 56.0784 223.669 56.0784 223.668 56.0784C223.668 56.0784 223.667 56.0784 223.667 56.0784C223.666 56.0784 223.666 56.0784 223.665 56.0784C223.664 56.0784 223.664 56.0784 223.663 56.0784C223.663 56.0784 223.662 56.0784 223.662 56.0784C223.661 56.0784 223.661 56.0784 223.66 56.0784C223.66 56.0784 223.659 56.0784 223.659 56.0784C223.658 56.0784 223.657 56.0783 223.657 56.0783C223.656 56.0783 223.656 56.0783 223.655 56.0783C223.655 56.0783 223.654 56.0783 223.654 56.0783C223.653 56.0783 223.653 56.0783 223.652 56.0783C223.652 56.0783 223.651 56.0783 223.65 56.0783C223.65 56.0783 223.649 56.0783 223.649 56.0783C223.648 56.0783 223.648 56.0783 223.647 56.0783C223.647 56.0783 223.646 56.0783 223.646 56.0783C223.645 56.0783 223.644 56.0783 223.644 56.0783C223.643 56.0783 223.643 56.0783 223.642 56.0783C223.642 56.0783 223.641 56.0783 223.641 56.0783C223.64 56.0783 223.64 56.0783 223.639 56.0783C223.638 56.0783 223.638 56.0782 223.637 56.0782C223.637 56.0782 223.636 56.0782 223.636 56.0782C223.635 56.0782 223.635 56.0782 223.634 56.0782C223.633 56.0782 223.633 56.0782 223.632 56.0782C223.632 56.0782 223.631 56.0782 223.631 56.0782C223.63 56.0782 223.63 56.0782 223.629 56.0782C223.629 56.0782 223.628 56.0782 223.627 56.0782C223.627 56.0782 223.626 56.0782 223.626 56.0782C223.625 56.0782 223.625 56.0782 223.624 56.0782C223.624 56.0782 223.623 56.0782 223.622 56.0782C223.622 56.0782 223.621 56.0782 223.621 56.0782C223.62 56.0782 223.62 56.0782 223.619 56.0782C223.619 56.0782 223.618 56.0781 223.617 56.0781C223.617 56.0781 223.616 56.0781 223.616 56.0781C223.615 56.0781 223.615 56.0781 223.614 56.0781C223.614 56.0781 223.613 56.0781 223.612 56.0781C223.612 56.0781 223.611 56.0781 223.611 56.0781C223.61 56.0781 223.61 56.0781 223.609 56.0781C223.608 56.0781 223.608 56.0781 223.607 56.0781C223.607 56.0781 223.606 56.0781 223.606 56.0781C223.605 56.0781 223.605 56.0781 223.604 56.0781C223.603 56.0781 223.603 56.0781 223.602 56.0781C223.602 56.0781 223.601 56.0781 223.601 56.0781C223.6 56.0781 223.599 56.0781 223.599 56.0781C223.598 56.078 223.598 56.078 223.597 56.078C223.597 56.078 223.596 56.078 223.596 56.078C223.595 56.078 223.594 56.078 223.594 56.078C223.593 56.078 223.593 56.078 223.592 56.078C223.592 56.078 223.591 56.078 223.59 56.078C223.59 56.078 223.589 56.078 223.589 56.078C223.588 56.078 223.588 56.078 223.587 56.078C223.586 56.078 223.586 56.078 223.585 56.078C223.585 56.078 223.584 56.078 223.584 56.078C223.583 56.078 223.582 56.078 223.582 56.078C223.581 56.078 223.581 56.078 223.58 56.078C223.58 56.078 223.579 56.078 223.578 56.0779C223.578 56.0779 223.577 56.0779 223.577 56.0779C223.576 56.0779 223.576 56.0779 223.575 56.0779C223.574 56.0779 223.574 56.0779 223.573 56.0779C223.573 56.0779 223.572 56.0779 223.572 56.0779C223.571 56.0779 223.57 56.0779 223.57 56.0779C223.569 56.0779 223.569 56.0779 223.568 56.0779C223.567 56.0779 223.567 56.0779 223.566 56.0779C223.566 56.0779 223.565 56.0779 223.565 56.0779C223.564 56.0779 223.563 56.0779 223.563 56.0779C223.562 56.0779 223.562 56.0779 223.561 56.0779C223.561 56.0779 223.56 56.0779 223.559 56.0779C223.559 56.0778 223.558 56.0778 223.558 56.0778C223.557 56.0778 223.556 56.0778 223.556 56.0778C223.555 56.0778 223.555 56.0778 223.554 56.0778C223.554 56.0778 223.553 56.0778 223.552 56.0778C223.552 56.0778 223.551 56.0778 223.551 56.0778C223.55 56.0778 223.549 56.0778 223.549 56.0778C223.548 56.0778 223.548 56.0778 223.547 56.0778C223.546 56.0778 223.546 56.0778 223.545 56.0778C223.545 56.0778 223.544 56.0778 223.544 56.0778C223.543 56.0778 223.542 56.0778 223.542 56.0778C223.541 56.0778 223.541 56.0778 223.54 56.0778C223.539 56.0778 223.539 56.0777 223.538 56.0777C223.538 56.0777 223.537 56.0777 223.536 56.0777C223.536 56.0777 223.535 56.0777 223.535 56.0777C223.534 56.0777 223.534 56.0777 223.533 56.0777C223.532 56.0777 223.532 56.0777 223.531 56.0777C223.531 56.0777 223.53 56.0777 223.529 56.0777C223.529 56.0777 223.528 56.0777 223.528 56.0777C223.527 56.0777 223.526 56.0777 223.526 56.0777C223.525 56.0777 223.525 56.0777 223.524 56.0777C223.523 56.0777 223.523 56.0777 223.522 56.0777C223.522 56.0777 223.521 56.0777 223.52 56.0777C223.52 56.0777 223.519 56.0776 223.519 56.0776C223.518 56.0776 223.517 56.0776 223.517 56.0776C223.516 56.0776 223.516 56.0776 223.515 56.0776C223.514 56.0776 223.514 56.0776 223.513 56.0776C223.513 56.0776 223.512 56.0776 223.511 56.0776C223.511 56.0776 223.51 56.0776 223.51 56.0776C223.509 56.0776 223.508 56.0776 223.508 56.0776C223.507 56.0776 223.507 56.0776 223.506 56.0776C223.505 56.0776 223.505 56.0776 223.504 56.0776C223.504 56.0776 223.503 56.0776 223.502 56.0776C223.502 56.0776 223.501 56.0776 223.501 56.0776C223.5 56.0776 223.499 56.0775 223.499 56.0775C223.498 56.0775 223.498 56.0775 223.497 56.0775C223.496 56.0775 223.496 56.0775 223.495 56.0775C223.495 56.0775 223.494 56.0775 223.493 56.0775C223.493 56.0775 223.492 56.0775 223.491 56.0775C223.491 56.0775 223.49 56.0775 223.49 56.0775C223.489 56.0775 223.488 56.0775 223.488 56.0775C223.487 56.0775 223.487 56.0775 223.486 56.0775C223.485 56.0775 223.485 56.0775 223.484 56.0775C223.484 56.0775 223.483 56.0775 223.482 56.0775C223.482 56.0775 223.481 56.0775 223.48 56.0775C223.48 56.0774 223.479 56.0774 223.479 56.0774C223.478 56.0774 223.477 56.0774 223.477 56.0774C223.476 56.0774 223.476 56.0774 223.475 56.0774C223.474 56.0774 223.474 56.0774 223.473 56.0774C223.473 56.0774 223.472 56.0774 223.471 56.0774C223.471 56.0774 223.47 56.0774 223.469 56.0774C223.469 56.0774 223.468 56.0774 223.468 56.0774C223.467 56.0774 223.466 56.0774 223.466 56.0774C223.465 56.0774 223.464 56.0774 223.464 56.0774C223.463 56.0774 223.463 56.0774 223.462 56.0774C223.461 56.0774 223.461 56.0774 223.46 56.0773C223.46 56.0773 223.459 56.0773 223.458 56.0773C223.458 56.0773 223.457 56.0773 223.456 56.0773C223.456 56.0773 223.455 56.0773 223.455 56.0773C223.454 56.0773 223.453 56.0773 223.453 56.0773C223.452 56.0773 223.451 56.0773 223.451 56.0773C223.45 56.0773 223.45 56.0773 223.449 56.0773C223.448 56.0773 223.448 56.0773 223.447 56.0773C223.446 56.0773 223.446 56.0773 223.445 56.0773C223.445 56.0773 223.444 56.0773 223.443 56.0773C223.443 56.0773 223.442 56.0773 223.441 56.0773C223.441 56.0773 223.44 56.0772 223.44 56.0772C223.439 56.0772 223.438 56.0772 223.438 56.0772C223.437 56.0772 223.436 56.0772 223.436 56.0772C223.435 56.0772 223.434 56.0772 223.434 56.0772C223.433 56.0772 223.433 56.0772 223.432 56.0772C223.431 56.0772 223.431 56.0772 223.43 56.0772C223.429 56.0772 223.429 56.0772 223.428 56.0772C223.428 56.0772 223.427 56.0772 223.426 56.0772C223.426 56.0772 223.425 56.0772 223.424 56.0772C223.424 56.0772 223.423 56.0772 223.422 56.0772C223.422 56.0772 223.421 56.0772 223.421 56.0771C223.42 56.0771 223.419 56.0771 223.419 56.0771C223.418 56.0771 223.417 56.0771 223.417 56.0771C223.416 56.0771 223.415 56.0771 223.415 56.0771C223.414 56.0771 223.414 56.0771 223.413 56.0771C223.412 56.0771 223.412 56.0771 223.411 56.0771C223.41 56.0771 223.41 56.0771 223.409 56.0771C223.408 56.0771 223.408 56.0771 223.407 56.0771C223.407 56.0771 223.406 56.0771 223.405 56.0771C223.405 56.0771 223.404 56.0771 223.403 56.0771C223.403 56.0771 223.402 56.0771 223.401 56.0771C223.401 56.077 223.4 56.077 223.399 56.077C223.399 56.077 223.398 56.077 223.398 56.077C223.397 56.077 223.396 56.077 223.396 56.077C223.395 56.077 223.394 56.077 223.394 56.077C223.393 56.077 223.392 56.077 223.392 56.077C223.391 56.077 223.39 56.077 223.39 56.077C223.389 56.077 223.388 56.077 223.388 56.077C223.387 56.077 223.387 56.077 223.386 56.077C223.385 56.077 223.385 56.077 223.384 56.077C223.383 56.077 223.383 56.077 223.382 56.077C223.381 56.0769 223.381 56.0769 223.38 56.0769C223.379 56.0769 223.379 56.0769 223.378 56.0769C223.377 56.0769 223.377 56.0769 223.376 56.0769C223.375 56.0769 223.375 56.0769 223.374 56.0769C223.374 56.0769 223.373 56.0769 223.372 56.0769C223.372 56.0769 223.371 56.0769 223.37 56.0769C223.37 56.0769 223.369 56.0769 223.368 56.0769C223.368 56.0769 223.367 56.0769 223.366 56.0769C223.366 56.0769 223.365 56.0769 223.364 56.0769C223.364 56.0769 223.363 56.0769 223.362 56.0769C223.362 56.0768 223.361 56.0768 223.36 56.0768C223.36 56.0768 223.359 56.0768 223.358 56.0768C223.358 56.0768 223.357 56.0768 223.356 56.0768C223.356 56.0768 223.355 56.0768 223.354 56.0768C223.354 56.0768 223.353 56.0768 223.352 56.0768C223.352 56.0768 223.351 56.0768 223.351 56.0768C223.35 56.0768 223.349 56.0768 223.349 56.0768C223.348 56.0768 223.347 56.0768 223.347 56.0768C223.346 56.0768 223.345 56.0768 223.345 56.0768C223.344 56.0768 223.343 56.0768 223.343 56.0768C223.342 56.0767 223.341 56.0767 223.341 56.0767C223.34 56.0767 223.339 56.0767 223.339 56.0767C223.338 56.0767 223.337 56.0767 223.337 56.0767C223.336 56.0767 223.335 56.0767 223.335 56.0767C223.334 56.0767 223.333 56.0767 223.333 56.0767C223.332 56.0767 223.331 56.0767 223.331 56.0767C223.33 56.0767 223.329 56.0767 223.329 56.0767C223.328 56.0767 223.327 56.0767 223.327 56.0767C223.326 56.0767 223.325 56.0767 223.325 56.0767C223.324 56.0767 223.323 56.0767 223.323 56.0767C223.322 56.0766 223.321 56.0766 223.32 56.0766C223.32 56.0766 223.319 56.0766 223.318 56.0766C223.318 56.0766 223.317 56.0766 223.316 56.0766C223.316 56.0766 223.315 56.0766 223.314 56.0766C223.314 56.0766 223.313 56.0766 223.312 56.0766C223.312 56.0766 223.311 56.0766 223.31 56.0766C223.31 56.0766 223.309 56.0766 223.308 56.0766C223.308 56.0766 223.307 56.0766 223.306 56.0766L223.296 58.0765C223.297 58.0765 223.298 58.0765 223.298 58.0766C223.299 58.0766 223.3 58.0766 223.3 58.0766C223.301 58.0766 223.302 58.0766 223.302 58.0766C223.303 58.0766 223.304 58.0766 223.304 58.0766C223.305 58.0766 223.306 58.0766 223.306 58.0766C223.307 58.0766 223.308 58.0766 223.308 58.0766C223.309 58.0766 223.31 58.0766 223.31 58.0766C223.311 58.0766 223.312 58.0766 223.312 58.0766C223.313 58.0766 223.314 58.0766 223.314 58.0766C223.315 58.0766 223.316 58.0766 223.316 58.0766C223.317 58.0766 223.318 58.0767 223.318 58.0767C223.319 58.0767 223.32 58.0767 223.32 58.0767C223.321 58.0767 223.322 58.0767 223.322 58.0767C223.323 58.0767 223.324 58.0767 223.324 58.0767C223.325 58.0767 223.326 58.0767 223.326 58.0767C223.327 58.0767 223.328 58.0767 223.328 58.0767C223.329 58.0767 223.33 58.0767 223.33 58.0767C223.331 58.0767 223.332 58.0767 223.332 58.0767C223.333 58.0767 223.334 58.0767 223.334 58.0767C223.335 58.0767 223.336 58.0767 223.336 58.0767C223.337 58.0768 223.338 58.0768 223.338 58.0768C223.339 58.0768 223.34 58.0768 223.34 58.0768C223.341 58.0768 223.342 58.0768 223.342 58.0768C223.343 58.0768 223.344 58.0768 223.344 58.0768C223.345 58.0768 223.346 58.0768 223.346 58.0768C223.347 58.0768 223.348 58.0768 223.348 58.0768C223.349 58.0768 223.35 58.0768 223.35 58.0768C223.351 58.0768 223.352 58.0768 223.352 58.0768C223.353 58.0768 223.354 58.0768 223.354 58.0768C223.355 58.0768 223.356 58.0768 223.356 58.0768C223.357 58.0769 223.357 58.0769 223.358 58.0769C223.359 58.0769 223.359 58.0769 223.36 58.0769C223.361 58.0769 223.361 58.0769 223.362 58.0769C223.363 58.0769 223.363 58.0769 223.364 58.0769C223.365 58.0769 223.365 58.0769 223.366 58.0769C223.367 58.0769 223.367 58.0769 223.368 58.0769C223.369 58.0769 223.369 58.0769 223.37 58.0769C223.371 58.0769 223.371 58.0769 223.372 58.0769C223.372 58.0769 223.373 58.0769 223.374 58.0769C223.374 58.0769 223.375 58.0769 223.376 58.0769C223.376 58.0769 223.377 58.077 223.378 58.077C223.378 58.077 223.379 58.077 223.38 58.077C223.38 58.077 223.381 58.077 223.382 58.077C223.382 58.077 223.383 58.077 223.383 58.077C223.384 58.077 223.385 58.077 223.385 58.077C223.386 58.077 223.387 58.077 223.387 58.077C223.388 58.077 223.389 58.077 223.389 58.077C223.39 58.077 223.391 58.077 223.391 58.077C223.392 58.077 223.393 58.077 223.393 58.077C223.394 58.077 223.394 58.077 223.395 58.077C223.396 58.077 223.396 58.0771 223.397 58.0771C223.398 58.0771 223.398 58.0771 223.399 58.0771C223.4 58.0771 223.4 58.0771 223.401 58.0771C223.401 58.0771 223.402 58.0771 223.403 58.0771C223.403 58.0771 223.404 58.0771 223.405 58.0771C223.405 58.0771 223.406 58.0771 223.407 58.0771C223.407 58.0771 223.408 58.0771 223.409 58.0771C223.409 58.0771 223.41 58.0771 223.41 58.0771C223.411 58.0771 223.412 58.0771 223.412 58.0771C223.413 58.0771 223.414 58.0771 223.414 58.0771C223.415 58.0771 223.415 58.0771 223.416 58.0772C223.417 58.0772 223.417 58.0772 223.418 58.0772C223.419 58.0772 223.419 58.0772 223.42 58.0772C223.421 58.0772 223.421 58.0772 223.422 58.0772C223.422 58.0772 223.423 58.0772 223.424 58.0772C223.424 58.0772 223.425 58.0772 223.426 58.0772C223.426 58.0772 223.427 58.0772 223.427 58.0772C223.428 58.0772 223.429 58.0772 223.429 58.0772C223.43 58.0772 223.431 58.0772 223.431 58.0772C223.432 58.0772 223.433 58.0772 223.433 58.0772C223.434 58.0772 223.434 58.0772 223.435 58.0772C223.436 58.0773 223.436 58.0773 223.437 58.0773C223.438 58.0773 223.438 58.0773 223.439 58.0773C223.439 58.0773 223.44 58.0773 223.441 58.0773C223.441 58.0773 223.442 58.0773 223.443 58.0773C223.443 58.0773 223.444 58.0773 223.444 58.0773C223.445 58.0773 223.446 58.0773 223.446 58.0773C223.447 58.0773 223.448 58.0773 223.448 58.0773C223.449 58.0773 223.449 58.0773 223.45 58.0773C223.451 58.0773 223.451 58.0773 223.452 58.0773C223.452 58.0773 223.453 58.0773 223.454 58.0773C223.454 58.0773 223.455 58.0773 223.456 58.0774C223.456 58.0774 223.457 58.0774 223.457 58.0774C223.458 58.0774 223.459 58.0774 223.459 58.0774C223.46 58.0774 223.461 58.0774 223.461 58.0774C223.462 58.0774 223.462 58.0774 223.463 58.0774C223.464 58.0774 223.464 58.0774 223.465 58.0774C223.465 58.0774 223.466 58.0774 223.467 58.0774C223.467 58.0774 223.468 58.0774 223.469 58.0774C223.469 58.0774 223.47 58.0774 223.47 58.0774C223.471 58.0774 223.472 58.0774 223.472 58.0774C223.473 58.0774 223.473 58.0774 223.474 58.0774C223.475 58.0774 223.475 58.0775 223.476 58.0775C223.476 58.0775 223.477 58.0775 223.478 58.0775C223.478 58.0775 223.479 58.0775 223.48 58.0775C223.48 58.0775 223.481 58.0775 223.481 58.0775C223.482 58.0775 223.483 58.0775 223.483 58.0775C223.484 58.0775 223.484 58.0775 223.485 58.0775C223.486 58.0775 223.486 58.0775 223.487 58.0775C223.487 58.0775 223.488 58.0775 223.489 58.0775C223.489 58.0775 223.49 58.0775 223.49 58.0775C223.491 58.0775 223.492 58.0775 223.492 58.0775C223.493 58.0775 223.493 58.0775 223.494 58.0775C223.495 58.0775 223.495 58.0776 223.496 58.0776C223.496 58.0776 223.497 58.0776 223.498 58.0776C223.498 58.0776 223.499 58.0776 223.5 58.0776C223.5 58.0776 223.501 58.0776 223.501 58.0776C223.502 58.0776 223.503 58.0776 223.503 58.0776C223.504 58.0776 223.504 58.0776 223.505 58.0776C223.506 58.0776 223.506 58.0776 223.507 58.0776C223.507 58.0776 223.508 58.0776 223.508 58.0776C223.509 58.0776 223.51 58.0776 223.51 58.0776C223.511 58.0776 223.511 58.0776 223.512 58.0776C223.513 58.0776 223.513 58.0776 223.514 58.0776C223.514 58.0776 223.515 58.0777 223.516 58.0777C223.516 58.0777 223.517 58.0777 223.517 58.0777C223.518 58.0777 223.519 58.0777 223.519 58.0777C223.52 58.0777 223.52 58.0777 223.521 58.0777C223.522 58.0777 223.522 58.0777 223.523 58.0777C223.523 58.0777 223.524 58.0777 223.525 58.0777C223.525 58.0777 223.526 58.0777 223.526 58.0777C223.527 58.0777 223.528 58.0777 223.528 58.0777C223.529 58.0777 223.529 58.0777 223.53 58.0777C223.53 58.0777 223.531 58.0777 223.532 58.0777C223.532 58.0777 223.533 58.0777 223.533 58.0777C223.534 58.0777 223.535 58.0778 223.535 58.0778C223.536 58.0778 223.536 58.0778 223.537 58.0778C223.538 58.0778 223.538 58.0778 223.539 58.0778C223.539 58.0778 223.54 58.0778 223.54 58.0778C223.541 58.0778 223.542 58.0778 223.542 58.0778C223.543 58.0778 223.543 58.0778 223.544 58.0778C223.545 58.0778 223.545 58.0778 223.546 58.0778C223.546 58.0778 223.547 58.0778 223.547 58.0778C223.548 58.0778 223.549 58.0778 223.549 58.0778C223.55 58.0778 223.55 58.0778 223.551 58.0778C223.552 58.0778 223.552 58.0778 223.553 58.0778C223.553 58.0778 223.554 58.0778 223.554 58.0779C223.555 58.0779 223.556 58.0779 223.556 58.0779C223.557 58.0779 223.557 58.0779 223.558 58.0779C223.558 58.0779 223.559 58.0779 223.56 58.0779C223.56 58.0779 223.561 58.0779 223.561 58.0779C223.562 58.0779 223.563 58.0779 223.563 58.0779C223.564 58.0779 223.564 58.0779 223.565 58.0779C223.565 58.0779 223.566 58.0779 223.567 58.0779C223.567 58.0779 223.568 58.0779 223.568 58.0779C223.569 58.0779 223.569 58.0779 223.57 58.0779C223.571 58.0779 223.571 58.0779 223.572 58.0779C223.572 58.0779 223.573 58.0779 223.573 58.0779C223.574 58.078 223.575 58.078 223.575 58.078C223.576 58.078 223.576 58.078 223.577 58.078C223.577 58.078 223.578 58.078 223.579 58.078C223.579 58.078 223.58 58.078 223.58 58.078C223.581 58.078 223.581 58.078 223.582 58.078C223.583 58.078 223.583 58.078 223.584 58.078C223.584 58.078 223.585 58.078 223.585 58.078C223.586 58.078 223.587 58.078 223.587 58.078C223.588 58.078 223.588 58.078 223.589 58.078C223.589 58.078 223.59 58.078 223.59 58.078C223.591 58.078 223.592 58.078 223.592 58.078C223.593 58.078 223.593 58.078 223.594 58.0781C223.594 58.0781 223.595 58.0781 223.596 58.0781C223.596 58.0781 223.597 58.0781 223.597 58.0781C223.598 58.0781 223.598 58.0781 223.599 58.0781C223.599 58.0781 223.6 58.0781 223.601 58.0781C223.601 58.0781 223.602 58.0781 223.602 58.0781C223.603 58.0781 223.603 58.0781 223.604 58.0781C223.605 58.0781 223.605 58.0781 223.606 58.0781C223.606 58.0781 223.607 58.0781 223.607 58.0781C223.608 58.0781 223.608 58.0781 223.609 58.0781C223.61 58.0781 223.61 58.0781 223.611 58.0781C223.611 58.0781 223.612 58.0781 223.612 58.0781C223.613 58.0781 223.613 58.0782 223.614 58.0782C223.615 58.0782 223.615 58.0782 223.616 58.0782C223.616 58.0782 223.617 58.0782 223.617 58.0782C223.618 58.0782 223.618 58.0782 223.619 58.0782C223.619 58.0782 223.62 58.0782 223.621 58.0782C223.621 58.0782 223.622 58.0782 223.622 58.0782C223.623 58.0782 223.623 58.0782 223.624 58.0782C223.624 58.0782 223.625 58.0782 223.626 58.0782C223.626 58.0782 223.627 58.0782 223.627 58.0782C223.628 58.0782 223.628 58.0782 223.629 58.0782C223.629 58.0782 223.63 58.0782 223.63 58.0782C223.631 58.0782 223.632 58.0782 223.632 58.0782C223.633 58.0782 223.633 58.0783 223.634 58.0783C223.634 58.0783 223.635 58.0783 223.635 58.0783C223.636 58.0783 223.637 58.0783 223.637 58.0783C223.638 58.0783 223.638 58.0783 223.639 58.0783C223.639 58.0783 223.64 58.0783 223.64 58.0783C223.641 58.0783 223.641 58.0783 223.642 58.0783C223.642 58.0783 223.643 58.0783 223.644 58.0783C223.644 58.0783 223.645 58.0783 223.645 58.0783C223.646 58.0783 223.646 58.0783 223.647 58.0783C223.647 58.0783 223.648 58.0783 223.648 58.0783C223.649 58.0783 223.65 58.0783 223.65 58.0783C223.651 58.0783 223.651 58.0783 223.652 58.0783C223.652 58.0783 223.653 58.0784 223.653 58.0784C223.654 58.0784 223.654 58.0784 223.655 58.0784C223.655 58.0784 223.656 58.0784 223.657 58.0784C223.657 58.0784 223.658 58.0784 223.658 58.0784C223.659 58.0784 223.659 58.0784 223.66 58.0784C223.66 58.0784 223.661 58.0784 223.661 58.0784C223.662 58.0784 223.662 58.0784 223.663 58.0784C223.663 58.0784 223.664 58.0784 223.665 58.0784C223.665 58.0784 223.666 58.0784 223.666 58.0784C223.667 58.0784 223.667 58.0784 223.668 58.0784C223.668 58.0784 223.669 58.0784 223.669 58.0784C223.67 58.0784 223.67 58.0784 223.671 58.0784C223.671 58.0784 223.672 58.0784 223.672 58.0785C223.673 58.0785 223.674 58.0785 223.674 58.0785C223.675 58.0785 223.675 58.0785 223.676 58.0785C223.676 58.0785 223.677 58.0785 223.677 58.0785C223.678 58.0785 223.678 58.0785 223.679 58.0785C223.679 58.0785 223.68 58.0785 223.68 58.0785C223.681 58.0785 223.681 58.0785 223.682 58.0785C223.682 58.0785 223.683 58.0785 223.684 58.0785C223.684 58.0785 223.685 58.0785 223.685 58.0785C223.686 58.0785 223.686 58.0785 223.687 58.0785C223.687 58.0785 223.688 58.0785 223.688 58.0785C223.689 58.0785 223.689 58.0785 223.69 58.0785C223.69 58.0785 223.691 58.0785 223.691 58.0785C223.692 58.0785 223.692 58.0786 223.693 58.0786C223.693 58.0786 223.694 58.0786 223.694 58.0786C223.695 58.0786 223.696 58.0786 223.696 58.0786C223.697 58.0786 223.697 58.0786 223.698 58.0786C223.698 58.0786 223.699 58.0786 223.699 58.0786C223.7 58.0786 223.7 58.0786 223.701 58.0786C223.701 58.0786 223.702 58.0786 223.702 58.0786C223.703 58.0786 223.703 58.0786 223.704 58.0786C223.704 58.0786 223.705 58.0786 223.705 58.0786C223.706 58.0786 223.706 58.0786 223.707 58.0786C223.707 58.0786 223.708 58.0786 223.708 58.0786C223.709 58.0786 223.709 58.0786 223.71 58.0786C223.71 58.0786 223.711 58.0786 223.711 58.0786C223.712 58.0787 223.713 58.0787 223.713 58.0787C223.714 58.0787 223.714 58.0787 223.715 58.0787C223.715 58.0787 223.716 58.0787 223.716 58.0787C223.717 58.0787 223.717 58.0787 223.718 58.0787C223.718 58.0787 223.719 58.0787 223.719 58.0787C223.72 58.0787 223.72 58.0787 223.721 58.0787C223.721 58.0787 223.722 58.0787 223.722 58.0787C223.723 58.0787 223.723 58.0787 223.724 58.0787C223.724 58.0787 223.725 58.0787 223.725 58.0787C223.726 58.0787 223.726 58.0787 223.727 58.0787C223.727 58.0787 223.728 58.0787 223.728 58.0787C223.729 58.0787 223.729 58.0787 223.73 58.0787C223.73 58.0787 223.731 58.0787 223.731 58.0787C223.732 58.0788 223.732 58.0788 223.733 58.0788C223.733 58.0788 223.734 58.0788 223.734 58.0788C223.735 58.0788 223.735 58.0788 223.736 58.0788C223.736 58.0788 223.737 58.0788 223.737 58.0788C223.738 58.0788 223.738 58.0788 223.739 58.0788C223.739 58.0788 223.74 58.0788 223.74 58.0788C223.741 58.0788 223.741 58.0788 223.742 58.0788C223.742 58.0788 223.743 58.0788 223.743 58.0788C223.744 58.0788 223.744 58.0788 223.745 58.0788C223.745 58.0788 223.746 58.0788 223.746 58.0788C223.747 58.0788 223.747 58.0788 223.748 58.0788C223.748 58.0788 223.749 58.0788 223.749 58.0788C223.75 58.0788 223.75 58.0788 223.751 58.0788C223.751 58.0788 223.752 58.0789 223.752 58.0789C223.753 58.0789 223.753 58.0789 223.754 58.0789C223.754 58.0789 223.755 58.0789 223.755 58.0789C223.756 58.0789 223.756 58.0789 223.757 58.0789C223.757 58.0789 223.758 58.0789 223.758 58.0789C223.758 58.0789 223.759 58.0789 223.759 58.0789C223.76 58.0789 223.76 58.0789 223.761 58.0789C223.761 58.0789 223.762 58.0789 223.762 58.0789C223.763 58.0789 223.763 58.0789 223.764 58.0789C223.764 58.0789 223.765 58.0789 223.765 58.0789C223.766 58.0789 223.766 58.0789 223.767 58.0789C223.767 58.0789 223.768 58.0789 223.768 58.0789C223.769 58.0789 223.769 58.0789 223.77 58.0789C223.77 58.0789 223.771 58.0789 223.771 58.079C223.772 58.079 223.772 58.079 223.773 58.079C223.773 58.079 223.774 58.079 223.774 58.079C223.774 58.079 223.775 58.079 223.775 58.079C223.776 58.079 223.776 58.079 223.777 58.079C223.777 58.079 223.778 58.079 223.778 58.079C223.779 58.079 223.779 58.079 223.78 58.079C223.78 58.079 223.781 58.079 223.781 58.079C223.782 58.079 223.782 58.079 223.783 58.079C223.783 58.079 223.784 58.079 223.784 58.079C223.785 58.079 223.785 58.079 223.785 58.079C223.786 58.079 223.786 58.079 223.787 58.079C223.787 58.079 223.788 58.079 223.788 58.079C223.789 58.079 223.789 58.079 223.79 58.079C223.79 58.079 223.791 58.0791 223.791 58.0791C223.792 58.0791 223.792 58.0791 223.793 58.0791C223.793 58.0791 223.794 58.0791 223.794 58.0791C223.794 58.0791 223.795 58.0791 223.795 58.0791C223.796 58.0791 223.796 58.0791 223.797 58.0791C223.797 58.0791 223.798 58.0791 223.798 58.0791C223.799 58.0791 223.799 58.0791 223.8 58.0791C223.8 58.0791 223.801 58.0791 223.801 58.0791C223.802 58.0791 223.802 58.0791 223.802 58.0791C223.803 58.0791 223.803 58.0791 223.804 58.0791C223.804 58.0791 223.805 58.0791 223.805 58.0791C223.806 58.0791 223.806 58.0791 223.807 58.0791C223.807 58.0791 223.808 58.0791 223.808 58.0791C223.809 58.0791 223.809 58.0791 223.809 58.0791C223.81 58.0791 223.81 58.0792 223.811 58.0792C223.811 58.0792 223.812 58.0792 223.812 58.0792C223.813 58.0792 223.813 58.0792 223.814 58.0792C223.814 58.0792 223.815 58.0792 223.815 58.0792C223.815 58.0792 223.816 58.0792 223.816 58.0792C223.817 58.0792 223.817 58.0792 223.818 58.0792C223.818 58.0792 223.819 58.0792 223.819 58.0792C223.82 58.0792 223.82 58.0792 223.82 58.0792C223.821 58.0792 223.821 58.0792 223.822 58.0792C223.822 58.0792 223.823 58.0792 223.823 58.0792C223.824 58.0792 223.824 58.0792 223.825 58.0792C223.825 58.0792 223.826 58.0792 223.826 58.0792C223.826 58.0792 223.827 58.0792 223.827 58.0792C223.828 58.0792 223.828 58.0792 223.829 58.0792C223.829 58.0792 223.83 58.0792 223.83 58.0792C223.83 58.0793 223.831 58.0793 223.831 58.0793C223.832 58.0793 223.832 58.0793 223.833 58.0793C223.833 58.0793 223.834 58.0793 223.834 58.0793C223.835 58.0793 223.835 58.0793 223.835 58.0793C223.836 58.0793 223.836 58.0793 223.837 58.0793C223.837 58.0793 223.838 58.0793 223.838 58.0793C223.839 58.0793 223.839 58.0793 223.84 58.0793C223.84 58.0793 223.84 58.0793 223.841 58.0793C223.841 58.0793 223.842 58.0793 223.842 58.0793C223.843 58.0793 223.843 58.0793 223.844 58.0793C223.844 58.0793 223.844 58.0793 223.845 58.0793C223.845 58.0793 223.846 58.0793 223.846 58.0793C223.847 58.0793 223.847 58.0793 223.848 58.0793C223.848 58.0793 223.848 58.0793 223.849 58.0793C223.849 58.0793 223.85 58.0793 223.85 58.0794C223.851 58.0794 223.851 58.0794 223.852 58.0794C223.852 58.0794 223.852 58.0794 223.853 58.0794C223.853 58.0794 223.854 58.0794 223.854 58.0794C223.855 58.0794 223.855 58.0794 223.855 58.0794C223.856 58.0794 223.856 58.0794 223.857 58.0794C223.857 58.0794 223.858 58.0794 223.858 58.0794C223.859 58.0794 223.859 58.0794 223.859 58.0794C223.86 58.0794 223.86 58.0794 223.861 58.0794C223.861 58.0794 223.862 58.0794 223.862 58.0794C223.862 58.0794 223.863 58.0794 223.863 58.0794C223.864 58.0794 223.864 58.0794 223.865 58.0794C223.865 58.0794 223.866 58.0794 223.866 58.0794C223.866 58.0794 223.867 58.0794 223.867 58.0794C223.868 58.0794 223.868 58.0794 223.869 58.0794C223.869 58.0794 223.869 58.0794 223.87 58.0795C223.87 58.0795 223.871 58.0795 223.871 58.0795C223.872 58.0795 223.872 58.0795 223.872 58.0795C223.873 58.0795 223.873 58.0795 223.874 58.0795C223.874 58.0795 223.875 58.0795 223.875 58.0795C223.875 58.0795 223.876 58.0795 223.876 58.0795C223.877 58.0795 223.877 58.0795 223.878 58.0795C223.878 58.0795 223.878 58.0795 223.879 58.0795C223.879 58.0795 223.88 58.0795 223.88 58.0795C223.881 58.0795 223.881 58.0795 223.881 58.0795C223.882 58.0795 223.882 58.0795 223.883 58.0795C223.883 58.0795 223.884 58.0795 223.884 58.0795C223.884 58.0795 223.885 58.0795 223.885 58.0795C223.886 58.0795 223.886 58.0795 223.886 58.0795C223.887 58.0795 223.887 58.0795 223.888 58.0795C223.888 58.0795 223.889 58.0795 223.889 58.0795C223.889 58.0796 223.89 58.0796 223.89 58.0796C223.891 58.0796 223.891 58.0796 223.892 58.0796C223.892 58.0796 223.892 58.0796 223.893 58.0796C223.893 58.0796 223.894 58.0796 223.894 58.0796C223.894 58.0796 223.895 58.0796 223.895 58.0796C223.896 58.0796 223.896 58.0796 223.897 58.0796C223.897 58.0796 223.897 58.0796 223.898 58.0796C223.898 58.0796 223.899 58.0796 223.899 58.0796C223.899 58.0796 223.9 58.0796 223.9 58.0796C223.901 58.0796 223.901 58.0796 223.902 58.0796C223.902 58.0796 223.902 58.0796 223.903 58.0796C223.903 58.0796 223.904 58.0796 223.904 58.0796C223.904 58.0796 223.905 58.0796 223.905 58.0796C223.906 58.0796 223.906 58.0796 223.906 58.0796C223.907 58.0796 223.907 58.0796 223.908 58.0796C223.908 58.0796 223.909 58.0796 223.909 58.0796C223.909 58.0797 223.91 58.0797 223.91 58.0797C223.911 58.0797 223.911 58.0797 223.911 58.0797C223.912 58.0797 223.912 58.0797 223.913 58.0797C223.913 58.0797 223.913 58.0797 223.914 58.0797C223.914 58.0797 223.915 58.0797 223.915 58.0797C223.915 58.0797 223.916 58.0797 223.916 58.0797C223.917 58.0797 223.917 58.0797 223.917 58.0797C223.918 58.0797 223.918 58.0797 223.919 58.0797C223.919 58.0797 223.919 58.0797 223.92 58.0797C223.92 58.0797 223.921 58.0797 223.921 58.0797C223.922 58.0797 223.922 58.0797 223.922 58.0797C223.923 58.0797 223.923 58.0797 223.924 58.0797C223.924 58.0797 223.924 58.0797 223.925 58.0797C223.925 58.0797 223.926 58.0797 223.926 58.0797C223.926 58.0797 223.927 58.0797 223.927 58.0797C223.928 58.0797 223.928 58.0797 223.928 58.0797C223.929 58.0798 223.929 58.0798 223.929 58.0798C223.93 58.0798 223.93 58.0798 223.931 58.0798C223.931 58.0798 223.931 58.0798 223.932 58.0798C223.932 58.0798 223.933 58.0798 223.933 58.0798C223.933 58.0798 223.934 58.0798 223.934 58.0798C223.935 58.0798 223.935 58.0798 223.935 58.0798C223.936 58.0798 223.936 58.0798 223.937 58.0798C223.937 58.0798 223.937 58.0798 223.938 58.0798C223.938 58.0798 223.939 58.0798 223.939 58.0798C223.939 58.0798 223.94 58.0798 223.94 58.0798C223.941 58.0798 223.941 58.0798 223.941 58.0798C223.942 58.0798 223.942 58.0798 223.942 58.0798C223.943 58.0798 223.943 58.0798 223.944 58.0798C223.944 58.0798 223.944 58.0798 223.945 58.0798C223.945 58.0798 223.946 58.0798 223.946 58.0798C223.946 58.0798 223.947 58.0798 223.947 58.0798C223.948 58.0798 223.948 58.0798 223.948 58.0798C223.949 58.0799 223.949 58.0799 223.949 58.0799C223.95 58.0799 223.95 58.0799 223.951 58.0799C223.951 58.0799 223.951 58.0799 223.952 58.0799C223.952 58.0799 223.953 58.0799 223.953 58.0799C223.953 58.0799 223.954 58.0799 223.954 58.0799C223.954 58.0799 223.955 58.0799 223.955 58.0799C223.956 58.0799 223.956 58.0799 223.956 58.0799C223.957 58.0799 223.957 58.0799 223.957 58.0799C223.958 58.0799 223.958 58.0799 223.959 58.0799C223.959 58.0799 223.959 58.0799 223.96 58.0799C223.96 58.0799 223.961 58.0799 223.961 58.0799C223.961 58.0799 223.962 58.0799 223.962 58.0799C223.962 58.0799 223.963 58.0799 223.963 58.0799C223.964 58.0799 223.964 58.0799 223.964 58.0799C223.965 58.0799 223.965 58.0799 223.965 58.0799C223.966 58.0799 223.966 58.0799 223.967 58.0799C223.967 58.0799 223.967 58.0799 223.968 58.0799C223.968 58.0799 223.968 58.08 223.969 58.08C223.969 58.08 223.97 58.08 223.97 58.08C223.97 58.08 223.971 58.08 223.971 58.08C223.971 58.08 223.972 58.08 223.972 58.08C223.972 58.08 223.973 58.08 223.973 58.08C223.974 58.08 223.974 58.08 223.974 58.08C223.975 58.08 223.975 58.08 223.975 58.08C223.976 58.08 223.976 58.08 223.977 58.08C223.977 58.08 223.977 58.08 223.978 58.08C223.978 58.08 223.978 58.08 223.979 58.08C223.979 58.08 223.979 58.08 223.98 58.08C223.98 58.08 223.981 58.08 223.981 58.08C223.981 58.08 223.982 58.08 223.982 58.08C223.982 58.08 223.983 58.08 223.983 58.08C223.984 58.08 223.984 58.08 223.984 58.08C223.985 58.08 223.985 58.08 223.985 58.08C223.986 58.08 223.986 58.08 223.986 58.08C223.987 58.08 223.987 58.08 223.987 58.08C223.988 58.0801 223.988 58.0801 223.989 58.0801C223.989 58.0801 223.989 58.0801 223.99 58.0801C223.99 58.0801 223.99 58.0801 223.991 58.0801C223.991 58.0801 223.991 58.0801 223.992 58.0801C223.992 58.0801 223.993 58.0801 223.993 58.0801C223.993 58.0801 223.994 58.0801 223.994 58.0801C223.994 58.0801 223.995 58.0801 223.995 58.0801C223.995 58.0801 223.996 58.0801 223.996 58.0801C223.996 58.0801 223.997 58.0801 223.997 58.0801C223.998 58.0801 223.998 58.0801 223.998 58.0801C223.999 58.0801 223.999 58.0801 223.999 58.0801C224 58.0801 224 58.0801 224 58.0801C224.001 58.0801 224.001 58.0801 224.001 58.0801C224.002 58.0801 224.002 58.0801 224.002 58.0801C224.003 58.0801 224.003 58.0801 224.003 58.0801C224.004 58.0801 224.004 58.0801 224.005 58.0801C224.005 58.0801 224.005 58.0801 224.006 58.0801C224.006 58.0801 224.006 58.0801 224.007 58.0801C224.007 58.0801 224.007 58.0801 224.008 58.0802C224.008 58.0802 224.008 58.0802 224.009 58.0802C224.009 58.0802 224.009 58.0802 224.01 58.0802C224.01 58.0802 224.01 58.0802 224.011 58.0802C224.011 58.0802 224.011 58.0802 224.012 58.0802C224.012 58.0802 224.013 58.0802 224.013 58.0802C224.013 58.0802 224.014 58.0802 224.014 58.0802C224.014 58.0802 224.015 58.0802 224.015 58.0802C224.015 58.0802 224.016 58.0802 224.016 58.0802C224.016 58.0802 224.017 58.0802 224.017 58.0802C224.017 58.0802 224.018 58.0802 224.018 58.0802C224.018 58.0802 224.019 58.0802 224.019 58.0802C224.019 58.0802 224.02 58.0802 224.02 58.0802C224.02 58.0802 224.021 58.0802 224.021 58.0802C224.021 58.0802 224.022 58.0802 224.022 58.0802C224.022 58.0802 224.023 58.0802 224.023 58.0802C224.023 58.0802 224.024 58.0802 224.024 58.0802C224.024 58.0802 224.025 58.0802 224.025 58.0802C224.025 58.0802 224.026 58.0802 224.026 58.0802C224.026 58.0802 224.027 58.0802 224.027 58.0802C224.027 58.0803 224.028 58.0803 224.028 58.0803C224.028 58.0803 224.029 58.0803 224.029 58.0803C224.029 58.0803 224.03 58.0803 224.03 58.0803C224.03 58.0803 224.031 58.0803 224.031 58.0803C224.031 58.0803 224.032 58.0803 224.032 58.0803C224.032 58.0803 224.033 58.0803 224.033 58.0803C224.033 58.0803 224.034 58.0803 224.034 58.0803C224.034 58.0803 224.035 58.0803 224.035 58.0803C224.035 58.0803 224.036 58.0803 224.036 58.0803C224.036 58.0803 224.037 58.0803 224.037 58.0803C224.037 58.0803 224.038 58.0803 224.038 58.0803C224.038 58.0803 224.039 58.0803 224.039 58.0803C224.039 58.0803 224.04 58.0803 224.04 58.0803C224.04 58.0803 224.041 58.0803 224.041 58.0803C224.041 58.0803 224.042 58.0803 224.042 58.0803C224.042 58.0803 224.043 58.0803 224.043 58.0803C224.043 58.0803 224.043 58.0803 224.044 58.0803C224.044 58.0803 224.044 58.0803 224.045 58.0803C224.045 58.0803 224.045 58.0803 224.046 58.0803C224.046 58.0803 224.046 58.0803 224.047 58.0803C224.047 58.0804 224.047 58.0804 224.048 58.0804C224.048 58.0804 224.048 58.0804 224.049 58.0804C224.049 58.0804 224.049 58.0804 224.05 58.0804C224.05 58.0804 224.05 58.0804 224.051 58.0804C224.051 58.0804 224.051 58.0804 224.051 58.0804C224.052 58.0804 224.052 58.0804 224.052 58.0804C224.053 58.0804 224.053 58.0804 224.053 58.0804C224.054 58.0804 224.054 58.0804 224.054 58.0804C224.055 58.0804 224.055 58.0804 224.055 58.0804C224.056 58.0804 224.056 58.0804 224.056 58.0804L224.066 56.0804ZM223.23 56.0791C222.886 56.1038 222.665 56.1133 222.546 56.1127L222.536 58.1127C222.737 58.1137 223.023 58.0991 223.373 58.074L223.23 56.0791ZM223.491 56.8013C223.401 56.5261 223.402 56.268 223.495 55.9938L221.601 55.3517C221.369 56.0358 221.366 56.7377 221.591 57.4241L223.491 56.8013ZM222.675 56.6647L225.997 56.2415L225.744 54.2576L222.422 54.6807L222.675 56.6647ZM226.865 55.3593C226.982 54.2917 227.044 52.6885 227.054 50.5755L225.054 50.5654C225.044 52.6657 224.982 54.1818 224.877 55.1398L226.865 55.3593ZM227.054 50.5755L227.174 27.0158L225.174 27.0057L225.054 50.5654L227.054 50.5755ZM226.301 26.0189L223.063 25.6025L222.808 27.5861L226.046 28.0026L226.301 26.0189ZM223.903 26.3416C223.849 26.1322 223.833 25.7985 223.926 25.2982L221.96 24.9305C221.835 25.6024 221.814 26.2554 221.968 26.8471L223.903 26.3416ZM233.589 39.8885L230.389 39.8723L230.378 41.8722L233.578 41.8885L233.589 39.8885ZM229.384 40.8672L229.31 55.347L231.31 55.3571L231.384 40.8773L229.384 40.8672ZM230.131 56.336C231.504 56.5854 232.624 56.7448 233.476 56.8059L233.619 54.8111C232.872 54.7574 231.834 54.6125 230.489 54.3682L230.131 56.336ZM233.543 56.8085C236.826 56.8251 239.404 56.2414 240.933 54.7608L239.541 53.324C238.605 54.2309 236.723 54.8246 233.553 54.8085L233.543 56.8085ZM240.94 54.7531C242.437 53.2716 243.092 51.0597 243.106 48.3369L241.106 48.3267C241.093 50.7771 240.502 52.3724 239.533 53.3317L240.94 54.7531ZM243.106 48.3369C243.118 45.9797 242.253 43.9631 240.537 42.3514L239.168 43.8092C240.478 45.0395 241.115 46.5239 241.106 48.3267L243.106 48.3369ZM240.55 42.364C238.828 40.6867 236.461 39.9031 233.589 39.8885L233.578 41.8885C236.093 41.9012 237.905 42.5788 239.155 43.7966L240.55 42.364ZM233.941 25.5301C232.568 25.5231 231.386 25.6127 230.412 25.814L230.817 27.7725C231.606 27.6094 232.638 27.5235 233.931 27.5301L233.941 25.5301ZM229.621 26.6835C229.503 27.7529 229.441 29.465 229.43 31.7873L231.43 31.7974C231.441 29.4798 231.503 27.8591 231.609 26.903L229.621 26.6835ZM229.43 31.7873L229.394 38.8672L231.394 38.8774L231.43 31.7974L229.43 31.7873ZM230.389 39.8723L233.509 39.8881L233.519 37.8881L230.399 37.8723L230.389 39.8723ZM233.509 39.8881C236.087 39.9012 238.191 39.3916 239.588 38.1404L238.254 36.6506C237.401 37.4147 235.9 37.9002 233.519 37.8881L233.509 39.8881ZM239.58 38.1482C241.009 36.8981 241.653 35.0826 241.664 32.8894L239.664 32.8792C239.655 34.6859 239.137 35.8779 238.263 36.6428L239.58 38.1482ZM241.664 32.8894C241.676 30.6426 240.98 28.7765 239.469 27.4446L238.147 28.945C239.131 29.8125 239.673 31.0727 239.664 32.8792L241.664 32.8894ZM239.477 27.4517C238.034 26.152 236.154 25.5413 233.941 25.5301L233.931 27.5301C235.772 27.5394 237.14 28.0386 238.139 28.9379L239.477 27.4517ZM255.759 54.8811L254.999 55.5309L255.006 55.5396L255.014 55.5482L255.759 54.8811ZM260.798 55.0267L261.241 55.9234L261.25 55.9185L260.798 55.0267ZM263.529 52.8805L264.274 53.5473L264.527 53.2647L264.529 52.8855L263.529 52.8805ZM263.561 46.6406L264.561 46.6456L264.566 45.5857L263.508 45.642L263.561 46.6406ZM257.233 48.0885L257.708 48.9689L257.72 48.9621L257.233 48.0885ZM263.568 45.2006L263.584 46.2004L264.563 46.1846L264.568 45.2056L263.568 45.2006ZM262.803 38.2366L261.902 38.67L261.909 38.684L261.916 38.6979L262.803 38.2366ZM257.285 37.8486L258.001 38.5469L258.007 38.5408L258.013 38.5346L257.285 37.8486ZM255.745 41.8409L255.954 42.8188L256.634 42.6736L256.734 41.9854L255.745 41.8409ZM252.029 40.982L251.029 40.9769L251.029 41.1L251.058 41.2196L252.029 40.982ZM254.411 36.674L254.968 37.5046L254.968 37.5046L254.411 36.674ZM265.771 36.7316L265.06 37.4351L265.069 37.444L265.078 37.4527L265.771 36.7316ZM267.436 55.3803L266.449 55.5397L266.568 56.2745L267.306 56.3718L267.436 55.3803ZM270.594 55.7963L271.562 55.5436L271.392 54.8928L270.725 54.8049L270.594 55.7963ZM270.587 57.3163L270.624 58.3156L271.429 58.2857L271.571 57.4927L270.587 57.3163ZM264.544 57.8457L263.833 58.5492L264.183 58.9022L264.675 58.837L264.544 57.8457ZM264.148 57.0437L263.15 57.1109L263.153 57.1572L263.161 57.2031L264.148 57.0437ZM263.962 54.2827L264.96 54.2155L264.798 51.8237L263.212 53.6209L263.962 54.2827ZM252.59 56.5851L251.869 57.2786L251.879 57.2886L252.59 56.5851ZM254.558 47.1549L254.074 46.2798L254.07 46.2823L254.558 47.1549ZM254.014 51.9122C254.006 53.369 254.256 54.662 254.999 55.5309L256.519 54.2313C256.254 53.9217 256.007 53.2389 256.014 51.9224L254.014 51.9122ZM255.014 55.5482C255.778 56.4012 256.902 56.7269 258.149 56.7332L258.16 54.7333C257.22 54.7285 256.747 54.4861 256.504 54.214L255.014 55.5482ZM258.149 56.7332C259.148 56.7383 260.184 56.4448 261.241 55.9233L260.355 54.13C259.487 54.5588 258.761 54.7363 258.16 54.7333L258.149 56.7332ZM261.25 55.9185C262.363 55.3542 263.37 54.5576 264.274 53.5473L262.784 52.2137C262.025 53.0616 261.211 53.6958 260.346 54.1348L261.25 55.9185ZM264.529 52.8855L264.561 46.6456L262.561 46.6355L262.529 52.8754L264.529 52.8855ZM263.508 45.642C260.693 45.7916 258.409 46.2889 256.747 47.2149L257.72 48.9621C258.999 48.2496 260.933 47.7817 263.614 47.6391L263.508 45.642ZM256.759 47.2082C255.883 47.6803 255.185 48.3201 254.71 49.1386C254.237 49.9544 254.019 50.8916 254.014 51.9122L256.014 51.9224C256.018 51.183 256.174 50.6021 256.44 50.1416C256.706 49.6838 257.113 49.2893 257.708 48.9688L256.759 47.2082ZM264.568 45.2056L264.578 43.1657L262.578 43.1555L262.568 45.1955L264.568 45.2056ZM264.578 43.1657C264.59 40.8662 264.336 39.0178 263.691 37.7754L261.916 38.6979C262.326 39.4874 262.59 40.9217 262.578 43.1555L264.578 43.1657ZM263.704 37.8032C263.384 37.1373 262.927 36.5878 262.314 36.2102C261.703 35.8339 261.003 35.6674 260.256 35.6637L260.246 37.6636C260.7 37.6659 261.024 37.7647 261.264 37.9127C261.503 38.0595 261.721 38.2934 261.902 38.67L263.704 37.8032ZM260.256 35.6637C258.789 35.6562 257.522 36.1393 256.558 37.1626L258.013 38.5346C258.549 37.9656 259.26 37.6586 260.246 37.6636L260.256 35.6637ZM256.569 37.1504C255.595 38.1492 255.041 39.7389 254.755 41.6964L256.734 41.9854C257.001 40.1589 257.474 39.0871 258.001 38.5469L256.569 37.1504ZM255.536 40.8629C254.69 41.0436 254.153 41.1128 253.869 41.1113L253.858 43.1113C254.374 43.1139 255.092 43.0028 255.954 42.8188L255.536 40.8629ZM253.869 41.1113C253.454 41.1092 253.244 41.0317 253.149 40.9735C253.085 40.9337 253.034 40.883 253.001 40.7444L251.058 41.2196C251.207 41.8286 251.554 42.3399 252.101 42.6766C252.617 42.9948 253.233 43.1081 253.858 43.1113L253.869 41.1113ZM253.029 40.9871C253.037 39.524 253.649 38.3892 254.968 37.5046L253.854 35.8435C252.016 37.0762 251.04 38.8134 251.029 40.9769L253.029 40.9871ZM254.968 37.5046C256.345 36.581 258.1 36.0927 260.294 36.1039L260.304 34.1039C257.805 34.0912 255.634 34.6497 253.854 35.8435L254.968 37.5046ZM260.294 36.1039C262.792 36.1165 264.281 36.6482 265.06 37.4351L266.482 36.0281C265.138 34.671 262.979 34.1174 260.304 34.1039L260.294 36.1039ZM265.078 37.4527C265.859 38.2034 266.396 39.7266 266.382 42.3748L268.382 42.3849C268.396 39.5932 267.859 37.351 266.464 36.0106L265.078 37.4527ZM266.382 42.3748L266.325 53.6547L268.325 53.6648L268.382 42.3849L266.382 42.3748ZM266.325 53.6547C266.322 54.3578 266.36 54.9892 266.449 55.5397L268.424 55.2209C268.357 54.8106 268.322 54.295 268.325 53.6648L266.325 53.6547ZM267.306 56.3718L270.464 56.7878L270.725 54.8049L267.567 54.3889L267.306 56.3718ZM269.627 56.0491C269.681 56.257 269.698 56.6044 269.602 57.14L271.571 57.4927C271.695 56.8027 271.717 56.1367 271.562 55.5436L269.627 56.0491ZM270.549 56.317C268.62 56.3887 266.575 56.5682 264.413 56.8543L264.675 58.837C266.783 58.5581 268.765 58.3847 270.624 58.3156L270.549 56.317ZM265.255 57.1422C265.2 57.0872 265.156 57.0151 265.135 56.8843L263.161 57.2031C263.243 57.7127 263.463 58.1753 263.833 58.5492L265.255 57.1422ZM265.146 56.9764L264.96 54.2155L262.964 54.3499L263.15 57.1109L265.146 56.9764ZM263.212 53.6209C261.128 55.9821 258.913 57.0571 256.548 57.0451L256.538 59.0451C259.613 59.0607 262.343 57.6274 264.712 54.9444L263.212 53.6209ZM256.548 57.0451C255.066 57.0376 254.027 56.6153 253.301 55.8815L251.879 57.2886C253.063 58.4846 254.659 59.0356 256.538 59.0451L256.548 57.0451ZM253.311 55.8916C252.6 55.1533 252.203 54.1288 252.21 52.7031L250.21 52.6929C250.201 54.5205 250.723 56.0874 251.87 57.2785L253.311 55.8916ZM252.21 52.7031C252.22 50.6261 253.127 49.1017 255.046 48.0276L254.07 46.2823C251.55 47.6923 250.224 49.8633 250.21 52.6929L252.21 52.7031ZM255.042 48.0301C257.094 46.8957 259.917 46.2599 263.584 46.2004L263.552 44.2007C259.698 44.2631 256.515 44.9303 254.074 46.2798L255.042 48.0301ZM280.382 36.0057L281.382 36.0302L281.383 35.9706L281.377 35.9113L280.382 36.0057ZM280.281 40.1252L279.281 40.1008L281.157 40.6072L280.281 40.1252ZM283.058 36.7793L283.708 37.5394L283.709 37.5383L283.058 36.7793ZM288.664 35.5277L289.519 35.0079L289.319 34.6789L288.949 34.5691L288.664 35.5277ZM288.404 39.5264L288.132 40.4886L288.976 40.7277L289.323 39.9216L288.404 39.5264ZM280.23 42.285L279.399 41.7285L279.235 41.9736L279.23 42.2685L280.23 42.285ZM280.115 49.2845L279.115 49.268L279.115 49.2795L280.115 49.2845ZM280.084 55.3244L279.084 55.3194L279.08 56.1933L279.945 56.3147L280.084 55.3244ZM284.521 55.947L285.492 55.7093L285.331 55.0508L284.66 54.9567L284.521 55.947ZM284.513 57.5469L284.46 58.5455L285.348 58.5923L285.498 57.7163L284.513 57.5469ZM272.953 57.4483L271.998 57.7446L272.221 58.4622L272.972 58.4481L272.953 57.4483ZM272.961 55.8883L272.828 54.8972L272.192 54.9825L272.005 55.5961L272.961 55.8883ZM276.123 55.4644L276.256 56.4555L277.057 56.3481L277.12 55.542L276.123 55.4644ZM276.252 37.9448L277.238 37.776L277.113 37.0496L276.383 36.9534L276.252 37.9448ZM273.094 37.5288L272.127 37.7815L272.297 38.4324L272.964 38.5202L273.094 37.5288ZM273.102 36.0088L273.035 35.0111L272.255 35.0636L272.118 35.8325L273.102 36.0088ZM279.986 35.2037L280.733 34.5385L280.373 34.1344L279.838 34.2148L279.986 35.2037ZM279.382 35.9812L279.281 40.1008L281.281 40.1497L281.382 36.0302L279.382 35.9812ZM281.157 40.6072C281.766 39.5006 282.611 38.4771 283.708 37.5394L282.408 36.0192C281.148 37.0962 280.142 38.3034 279.405 39.6433L281.157 40.6072ZM283.709 37.5383C284.818 36.5867 285.729 36.2328 286.461 36.2365L286.471 34.2366C285.07 34.2295 283.708 34.9041 282.407 36.0203L283.709 37.5383ZM286.461 36.2365C287.214 36.2404 287.85 36.3289 288.38 36.4863L288.949 34.5691C288.201 34.3467 287.371 34.2411 286.471 34.2366L286.461 36.2365ZM287.81 36.0475C287.896 36.1884 287.98 36.4424 287.978 36.8842L289.978 36.8944C289.981 36.2162 289.856 35.5625 289.519 35.0079L287.81 36.0475ZM287.978 36.8842C287.974 37.6188 287.815 38.3657 287.486 39.1312L289.323 39.9216C289.749 38.931 289.972 37.9198 289.978 36.8944L287.978 36.8842ZM288.677 38.5643C287.642 38.2713 286.633 38.1174 285.651 38.1125L285.641 40.1124C286.42 40.1164 287.249 40.2385 288.132 40.4886L288.677 38.5643ZM285.651 38.1125C283.068 38.0994 280.973 39.3787 279.399 41.7285L281.061 42.8415C282.335 40.939 283.851 40.1034 285.641 40.1124L285.651 38.1125ZM279.23 42.2685L279.115 49.268L281.114 49.301L281.23 42.3015L279.23 42.2685ZM279.115 49.2795L279.084 55.3194L281.084 55.3295L281.115 49.2896L279.115 49.2795ZM279.945 56.3147L284.382 56.9373L284.66 54.9567L280.223 54.3341L279.945 56.3147ZM283.55 56.1846C283.61 56.4308 283.624 56.8146 283.527 57.3775L285.498 57.7163C285.621 57.0004 285.641 56.3175 285.492 55.7093L283.55 56.1846ZM284.565 56.5483C282.866 56.4588 280.93 56.4088 278.759 56.3977L278.748 58.3977C280.897 58.4086 282.8 58.4581 284.46 58.5455L284.565 56.5483ZM278.759 56.3977C277.122 56.3894 275.18 56.4064 272.934 56.4485L272.972 58.4481C275.207 58.4063 277.132 58.3895 278.748 58.3977L278.759 56.3977ZM273.908 57.152C273.813 56.8456 273.81 56.5309 273.917 56.1805L272.005 55.5961C271.786 56.3108 271.778 57.036 271.998 57.7446L273.908 57.152ZM273.094 56.8795L276.256 56.4555L275.99 54.4732L272.828 54.8972L273.094 56.8795ZM277.12 55.542C277.237 54.0457 277.299 52.3276 277.309 50.3903L275.309 50.3802C275.299 52.2828 275.238 53.9508 275.126 55.3868L277.12 55.542ZM277.309 50.3903L277.365 39.4305L275.365 39.4203L275.309 50.3802L277.309 50.3903ZM277.365 39.4305C277.368 38.8478 277.327 38.2953 277.238 37.776L275.266 38.1136C275.333 38.5017 275.367 38.9363 275.365 39.4203L277.365 39.4305ZM276.383 36.9534L273.225 36.5373L272.964 38.5202L276.121 38.9362L276.383 36.9534ZM274.062 37.276C274.007 37.0681 273.99 36.7207 274.086 36.1851L272.118 35.8325C271.994 36.5224 271.972 37.1884 272.127 37.7815L274.062 37.276ZM273.169 37.0065C275.047 36.88 277.371 36.6076 280.135 36.1926L279.838 34.2148C277.104 34.6253 274.838 34.8896 273.035 35.0111L273.169 37.0065ZM279.239 35.8689C279.311 35.9489 279.348 36.0091 279.367 36.0478C279.377 36.0667 279.381 36.08 279.384 36.088C279.386 36.0958 279.386 36.0996 279.386 36.1002L281.377 35.9113C281.326 35.3712 281.065 34.9121 280.733 34.5385L279.239 35.8689Z" fill="#7CAFFF"/>
<g clip-path="url(#clip0)">
<path fill-rule="evenodd" clip-rule="evenodd" d="M58.9563 21.3501C53.9625 20.3501 47.3875 20.2188 42.8938 24.7063C42.7487 24.8517 42.6338 25.0242 42.5555 25.214C42.4772 25.4038 42.4371 25.6072 42.4375 25.8126L42.4375 60.1876C42.4369 60.497 42.5283 60.7996 42.6999 61.0571C42.8716 61.3146 43.1158 61.5153 43.4017 61.6338C43.6875 61.7523 44.0021 61.7832 44.3056 61.7227C44.6091 61.6622 44.8877 61.5129 45.1063 61.2938C47.7406 58.6563 51.7156 57.9844 55.95 58.4188C60.15 58.8563 64.2625 60.3469 66.7375 61.5844C66.9757 61.7038 67.2405 61.7603 67.5067 61.7485C67.7729 61.7367 68.0316 61.657 68.2584 61.517C68.4851 61.377 68.6722 61.1814 68.802 60.9487C68.9319 60.716 69 60.454 69 60.1876L69 25.8126C69 25.5226 68.9193 25.2384 68.767 24.9917C68.6147 24.745 68.3967 24.5456 68.1375 24.4157L68.1313 24.4126L68.1188 24.4063L68.0781 24.3876L67.9313 24.3157C67.1114 23.9329 66.2787 23.5785 65.4344 23.2532C63.3317 22.4396 61.1648 21.803 58.9563 21.3501ZM65.875 26.8126L65.875 57.7751C63.2313 56.7032 59.8 55.6751 56.2688 55.3126C52.6969 54.9438 48.8094 55.2407 45.5625 57.0626L45.5625 26.4938C48.8844 23.5907 53.7844 23.5063 58.3438 24.4188C60.9317 24.9482 63.4563 25.7507 65.875 26.8126Z" fill="#7CAFFF"/>
<path fill-rule="evenodd" clip-rule="evenodd" d="M29.0437 21.3501C34.0406 20.3501 40.6125 20.2188 45.1063 24.7063C45.2513 24.8517 45.3662 25.0242 45.4445 25.214C45.5228 25.4038 45.5629 25.6072 45.5625 25.8126L45.5625 60.1876C45.5631 60.497 45.4717 60.7996 45.3001 61.0571C45.1284 61.3146 44.8842 61.5153 44.5983 61.6338C44.3125 61.7523 43.9979 61.7832 43.6944 61.7227C43.3909 61.6622 43.1123 61.5129 42.8937 61.2938C40.2594 58.6563 36.2844 57.9844 32.05 58.4188C27.85 58.8563 23.7375 60.3469 21.2625 61.5844C21.0243 61.7038 20.7595 61.7603 20.4933 61.7485C20.2271 61.7367 19.9684 61.657 19.7417 61.517C19.5149 61.377 19.3278 61.1814 19.198 60.9487C19.0682 60.716 19 60.454 19 60.1876L19 25.8126C19 25.5226 19.0807 25.2384 19.233 24.9917C19.3853 24.745 19.6033 24.5456 19.8625 24.4157L20.5625 25.8126L19.8625 24.4157L19.8687 24.4126L19.8813 24.4063L19.9219 24.3876C20.1484 24.2747 20.3776 24.1674 20.6094 24.0657C23.314 22.8545 26.1435 21.9438 29.0469 21.3501L29.0437 21.3501Z" fill="#7CAFFF"/>
</g>
<path d="M100.113 25.04C101.473 25.04 103.433 24.9867 105.993 24.88C108.553 24.7733 110.246 24.72 111.073 24.72H112.153C115.646 24.72 118.246 25.44 119.953 26.88C121.659 28.2933 122.513 30.16 122.513 32.48C122.513 35.7867 120.353 38.08 116.033 39.36V39.48C118.539 39.8533 120.513 40.84 121.953 42.44C123.419 44.0133 124.153 45.9067 124.153 48.12C124.153 51.08 123.139 53.3867 121.113 55.04C119.113 56.6933 116.166 57.52 112.273 57.52C111.206 57.52 109.473 57.4267 107.073 57.24C104.699 57.08 102.806 57 101.393 57C101.233 57 100.979 57 100.633 57C100.286 57.0267 100.033 57.04 99.8728 57.04C99.7128 56.56 99.7128 56.08 99.8728 55.6L103.193 55.16C103.299 54.1467 103.353 52.5867 103.353 50.48V26.92L100.113 26.52C100.006 26.12 100.006 25.6267 100.113 25.04ZM110.833 40.76H107.633V55.24C108.993 55.48 110.073 55.6267 110.873 55.68C114.099 55.68 116.326 55.08 117.553 53.88C118.779 52.6533 119.393 50.7467 119.393 48.16C119.393 46.08 118.633 44.3333 117.113 42.92C115.619 41.48 113.526 40.76 110.833 40.76ZM111.113 26.4C109.779 26.4 108.673 26.4933 107.793 26.68C107.686 27.6933 107.633 29.36 107.633 31.68V38.76H110.753C113.233 38.76 115.033 38.2533 116.153 37.24C117.299 36.2267 117.873 34.72 117.873 32.72C117.873 30.6933 117.246 29.1333 115.993 28.04C114.766 26.9467 113.139 26.4 111.113 26.4ZM128.639 46.36C128.639 44.76 128.865 43.2667 129.319 41.88C129.799 40.4667 130.479 39.24 131.359 38.2C132.239 37.16 133.292 36.3467 134.519 35.76C135.772 35.1467 137.172 34.84 138.719 34.84C140.239 34.84 141.625 35.1467 142.879 35.76C144.132 36.3467 145.199 37.16 146.079 38.2C146.985 39.24 147.679 40.4667 148.159 41.88C148.639 43.2667 148.879 44.76 148.879 46.36C148.879 48.0133 148.625 49.5333 148.119 50.92C147.639 52.3067 146.945 53.52 146.039 54.56C145.159 55.5733 144.092 56.3733 142.839 56.96C141.585 57.52 140.212 57.8 138.719 57.8C137.145 57.8 135.732 57.52 134.479 56.96C133.252 56.4 132.199 55.6133 131.319 54.6C130.465 53.5867 129.799 52.3867 129.319 51C128.865 49.5867 128.639 48.04 128.639 46.36ZM134.479 39C133.332 40.6267 132.759 43.08 132.759 46.36C132.759 47.9867 132.905 49.4133 133.199 50.64C133.519 51.8667 133.945 52.8933 134.479 53.72C135.012 54.52 135.639 55.12 136.359 55.52C137.079 55.92 137.865 56.12 138.719 56.12C139.545 56.12 140.332 55.92 141.079 55.52C141.825 55.12 142.465 54.52 142.999 53.72C143.532 52.8933 143.959 51.8667 144.279 50.64C144.599 49.4133 144.759 47.9867 144.759 46.36C144.759 44.7333 144.599 43.3067 144.279 42.08C143.959 40.8267 143.519 39.8 142.959 39C142.425 38.1733 141.785 37.56 141.039 37.16C140.319 36.7333 139.545 36.52 138.719 36.52C137.065 36.52 135.652 37.3467 134.479 39ZM153.111 46.36C153.111 44.76 153.337 43.2667 153.791 41.88C154.271 40.4667 154.951 39.24 155.831 38.2C156.711 37.16 157.764 36.3467 158.991 35.76C160.244 35.1467 161.644 34.84 163.191 34.84C164.711 34.84 166.097 35.1467 167.351 35.76C168.604 36.3467 169.671 37.16 170.551 38.2C171.457 39.24 172.151 40.4667 172.631 41.88C173.111 43.2667 173.351 44.76 173.351 46.36C173.351 48.0133 173.097 49.5333 172.591 50.92C172.111 52.3067 171.417 53.52 170.511 54.56C169.631 55.5733 168.564 56.3733 167.311 56.96C166.057 57.52 164.684 57.8 163.191 57.8C161.617 57.8 160.204 57.52 158.951 56.96C157.724 56.4 156.671 55.6133 155.791 54.6C154.937 53.5867 154.271 52.3867 153.791 51C153.337 49.5867 153.111 48.04 153.111 46.36ZM158.951 39C157.804 40.6267 157.231 43.08 157.231 46.36C157.231 47.9867 157.377 49.4133 157.671 50.64C157.991 51.8667 158.417 52.8933 158.951 53.72C159.484 54.52 160.111 55.12 160.831 55.52C161.551 55.92 162.337 56.12 163.191 56.12C164.017 56.12 164.804 55.92 165.551 55.52C166.297 55.12 166.937 54.52 167.471 53.72C168.004 52.8933 168.431 51.8667 168.751 50.64C169.071 49.4133 169.231 47.9867 169.231 46.36C169.231 44.7333 169.071 43.3067 168.751 42.08C168.431 40.8267 167.991 39.8 167.431 39C166.897 38.1733 166.257 37.56 165.511 37.16C164.791 36.7333 164.017 36.52 163.191 36.52C161.537 36.52 160.124 37.3467 158.951 39ZM184.143 45.48L192.503 37.4L189.863 37.08C189.756 36.6533 189.756 36.1333 189.863 35.52C191.329 35.6267 192.703 35.68 193.983 35.68C195.023 35.68 196.409 35.64 198.143 35.56C198.303 36.04 198.303 36.5467 198.143 37.08L194.983 37.64L187.903 44.28L196.623 54.72L199.743 55.52C199.849 55.9467 199.849 56.48 199.743 57.12C198.063 57.04 196.383 57 194.703 57C193.556 57 191.863 57.0267 189.623 57.08C189.463 56.5467 189.463 56.0267 189.623 55.52L192.263 55.16L184.143 45.48ZM183.703 31.64V54.96L186.943 55.56C187.049 55.9867 187.049 56.52 186.943 57.16C185.263 57.08 183.556 57.04 181.823 57.04C180.596 57.04 178.863 57.0667 176.623 57.12C176.463 56.6133 176.463 56.0933 176.623 55.56L179.783 55.12C179.889 53.6533 179.943 51.96 179.943 50.04V27.12L176.663 26.72C176.556 26.32 176.556 25.8133 176.663 25.2C178.449 25.0667 180.729 24.7867 183.503 24.36C183.743 24.6267 183.876 24.8933 183.903 25.16C183.769 25.8533 183.703 28.0133 183.703 31.64ZM209.449 56.04C210.889 56.04 211.955 55.7067 212.649 55.04C213.342 54.3733 213.689 53.6 213.689 52.72C213.689 52.2133 213.609 51.7467 213.449 51.32C213.289 50.8933 213.022 50.48 212.649 50.08C212.302 49.68 211.835 49.2933 211.249 48.92C210.662 48.52 209.929 48.0933 209.049 47.64C207.955 47.08 207.009 46.5467 206.209 46.04C205.435 45.5333 204.795 45 204.289 44.44C203.782 43.88 203.395 43.28 203.129 42.64C202.889 42 202.769 41.28 202.769 40.48C202.769 39.52 202.942 38.6933 203.289 38C203.635 37.28 204.115 36.6933 204.729 36.24C205.369 35.76 206.115 35.4133 206.969 35.2C207.822 34.96 208.769 34.84 209.809 34.84C211.889 34.84 213.915 35.3467 215.889 36.36V41.48H214.009L213.129 37.16C211.955 36.6 210.715 36.32 209.409 36.32C207.222 36.32 206.129 37.2133 206.129 39C206.129 39.96 206.489 40.84 207.209 41.64C207.929 42.44 209.089 43.24 210.689 44.04C211.782 44.6 212.742 45.1333 213.569 45.64C214.395 46.1467 215.075 46.68 215.609 47.24C216.169 47.8 216.582 48.4133 216.849 49.08C217.142 49.72 217.289 50.4533 217.289 51.28C217.289 52.2133 217.089 53.08 216.689 53.88C216.289 54.68 215.729 55.3733 215.009 55.96C214.289 56.52 213.422 56.96 212.409 57.28C211.395 57.6267 210.275 57.8 209.049 57.8C206.675 57.8 204.449 57.2933 202.369 56.28V51.16H204.249L205.129 55.12C206.489 55.7333 207.929 56.04 209.449 56.04Z" fill="white"/>
<defs>
<clipPath id="clip0">
<rect width="50" height="50" fill="white" transform="translate(19 18)"/>
</clipPath>
</defs>
</svg>
