<svg width="98" height="36" viewBox="0 0 98 36" fill="none" xmlns="http://www.w3.org/2000/svg">
<rect x="12" y="5" width="59" height="26" fill="#82B3FF"/>
<circle cx="16" cy="18" r="15" fill="white"/>
<path d="M35.624 13.412C36.032 13.412 36.62 13.396 37.388 13.364C38.156 13.332 38.664 13.316 38.912 13.316H39.236C40.284 13.316 41.064 13.532 41.576 13.964C42.088 14.388 42.344 14.948 42.344 15.644C42.344 16.636 41.696 17.324 40.4 17.708V17.744C41.152 17.856 41.744 18.152 42.176 18.632C42.616 19.104 42.836 19.672 42.836 20.336C42.836 21.224 42.532 21.916 41.924 22.412C41.324 22.908 40.44 23.156 39.272 23.156C38.952 23.156 38.432 23.128 37.712 23.072C37 23.024 36.432 23 36.008 23C35.96 23 35.884 23 35.78 23C35.676 23.008 35.6 23.012 35.552 23.012C35.504 22.868 35.504 22.724 35.552 22.58L36.548 22.448C36.58 22.144 36.596 21.676 36.596 21.044V13.976L35.624 13.856C35.592 13.736 35.592 13.588 35.624 13.412ZM38.84 18.128H37.88V22.472C38.288 22.544 38.612 22.588 38.852 22.604C39.82 22.604 40.488 22.424 40.856 22.064C41.224 21.696 41.408 21.124 41.408 20.348C41.408 19.724 41.18 19.2 40.724 18.776C40.276 18.344 39.648 18.128 38.84 18.128ZM38.924 13.82C38.524 13.82 38.192 13.848 37.928 13.904C37.896 14.208 37.88 14.708 37.88 15.404V17.528H38.816C39.56 17.528 40.1 17.376 40.436 17.072C40.78 16.768 40.952 16.316 40.952 15.716C40.952 15.108 40.764 14.64 40.388 14.312C40.02 13.984 39.532 13.82 38.924 13.82ZM43.9418 19.808C43.9418 19.328 44.0098 18.88 44.1458 18.464C44.2898 18.04 44.4938 17.672 44.7578 17.36C45.0218 17.048 45.3378 16.804 45.7058 16.628C46.0818 16.444 46.5018 16.352 46.9658 16.352C47.4218 16.352 47.8378 16.444 48.2138 16.628C48.5898 16.804 48.9098 17.048 49.1738 17.36C49.4458 17.672 49.6538 18.04 49.7978 18.464C49.9418 18.88 50.0138 19.328 50.0138 19.808C50.0138 20.304 49.9378 20.76 49.7858 21.176C49.6418 21.592 49.4338 21.956 49.1618 22.268C48.8978 22.572 48.5778 22.812 48.2018 22.988C47.8258 23.156 47.4138 23.24 46.9658 23.24C46.4938 23.24 46.0698 23.156 45.6938 22.988C45.3258 22.82 45.0098 22.584 44.7458 22.28C44.4898 21.976 44.2898 21.616 44.1458 21.2C44.0098 20.776 43.9418 20.312 43.9418 19.808ZM45.6938 17.6C45.3498 18.088 45.1778 18.824 45.1778 19.808C45.1778 20.296 45.2218 20.724 45.3098 21.092C45.4058 21.46 45.5338 21.768 45.6938 22.016C45.8538 22.256 46.0418 22.436 46.2578 22.556C46.4738 22.676 46.7098 22.736 46.9658 22.736C47.2138 22.736 47.4498 22.676 47.6738 22.556C47.8978 22.436 48.0898 22.256 48.2498 22.016C48.4098 21.768 48.5378 21.46 48.6338 21.092C48.7298 20.724 48.7778 20.296 48.7778 19.808C48.7778 19.32 48.7298 18.892 48.6338 18.524C48.5378 18.148 48.4058 17.84 48.2378 17.6C48.0778 17.352 47.8858 17.168 47.6618 17.048C47.4458 16.92 47.2138 16.856 46.9658 16.856C46.4698 16.856 46.0458 17.104 45.6938 17.6ZM51.0433 19.808C51.0433 19.328 51.1113 18.88 51.2473 18.464C51.3913 18.04 51.5953 17.672 51.8593 17.36C52.1233 17.048 52.4393 16.804 52.8073 16.628C53.1833 16.444 53.6033 16.352 54.0673 16.352C54.5233 16.352 54.9393 16.444 55.3153 16.628C55.6913 16.804 56.0113 17.048 56.2753 17.36C56.5473 17.672 56.7553 18.04 56.8993 18.464C57.0433 18.88 57.1153 19.328 57.1153 19.808C57.1153 20.304 57.0393 20.76 56.8873 21.176C56.7433 21.592 56.5353 21.956 56.2633 22.268C55.9993 22.572 55.6793 22.812 55.3033 22.988C54.9273 23.156 54.5153 23.24 54.0673 23.24C53.5953 23.24 53.1713 23.156 52.7953 22.988C52.4273 22.82 52.1113 22.584 51.8473 22.28C51.5913 21.976 51.3913 21.616 51.2473 21.2C51.1113 20.776 51.0433 20.312 51.0433 19.808ZM52.7953 17.6C52.4513 18.088 52.2793 18.824 52.2793 19.808C52.2793 20.296 52.3233 20.724 52.4113 21.092C52.5073 21.46 52.6353 21.768 52.7953 22.016C52.9553 22.256 53.1433 22.436 53.3593 22.556C53.5753 22.676 53.8113 22.736 54.0673 22.736C54.3153 22.736 54.5513 22.676 54.7753 22.556C54.9993 22.436 55.1913 22.256 55.3513 22.016C55.5113 21.768 55.6393 21.46 55.7353 21.092C55.8313 20.724 55.8793 20.296 55.8793 19.808C55.8793 19.32 55.8313 18.892 55.7353 18.524C55.6393 18.148 55.5073 17.84 55.3393 17.6C55.1793 17.352 54.9873 17.168 54.7633 17.048C54.5473 16.92 54.3153 16.856 54.0673 16.856C53.5713 16.856 53.1473 17.104 52.7953 17.6ZM60.1129 19.544L62.6209 17.12L61.8289 17.024C61.7969 16.896 61.7969 16.74 61.8289 16.556C62.2689 16.588 62.6809 16.604 63.0649 16.604C63.3769 16.604 63.7929 16.592 64.3129 16.568C64.3609 16.712 64.3609 16.864 64.3129 17.024L63.3649 17.192L61.2409 19.184L63.8569 22.316L64.7929 22.556C64.8249 22.684 64.8249 22.844 64.7929 23.036C64.2889 23.012 63.7849 23 63.2809 23C62.9369 23 62.4289 23.008 61.7569 23.024C61.7089 22.864 61.7089 22.708 61.7569 22.556L62.5489 22.448L60.1129 19.544ZM59.9809 15.392V22.388L60.9529 22.568C60.9849 22.696 60.9849 22.856 60.9529 23.048C60.4489 23.024 59.9369 23.012 59.4169 23.012C59.0489 23.012 58.5289 23.02 57.8569 23.036C57.8089 22.884 57.8089 22.728 57.8569 22.568L58.8049 22.436C58.8369 21.996 58.8529 21.488 58.8529 20.912V14.036L57.8689 13.916C57.8369 13.796 57.8369 13.644 57.8689 13.46C58.4049 13.42 59.0889 13.336 59.9209 13.208C59.9929 13.288 60.0329 13.368 60.0409 13.448C60.0009 13.656 59.9809 14.304 59.9809 15.392ZM67.4648 22.712C67.8968 22.712 68.2168 22.612 68.4248 22.412C68.6328 22.212 68.7368 21.98 68.7368 21.716C68.7368 21.564 68.7128 21.424 68.6648 21.296C68.6168 21.168 68.5368 21.044 68.4248 20.924C68.3208 20.804 68.1808 20.688 68.0048 20.576C67.8288 20.456 67.6088 20.328 67.3448 20.192C67.0168 20.024 66.7328 19.864 66.4928 19.712C66.2608 19.56 66.0688 19.4 65.9168 19.232C65.7648 19.064 65.6488 18.884 65.5688 18.692C65.4968 18.5 65.4608 18.284 65.4608 18.044C65.4608 17.756 65.5128 17.508 65.6168 17.3C65.7208 17.084 65.8648 16.908 66.0488 16.772C66.2408 16.628 66.4648 16.524 66.7208 16.46C66.9768 16.388 67.2608 16.352 67.5728 16.352C68.1968 16.352 68.8048 16.504 69.3968 16.808V18.344H68.8328L68.5688 17.048C68.2168 16.88 67.8448 16.796 67.4528 16.796C66.7968 16.796 66.4688 17.064 66.4688 17.6C66.4688 17.888 66.5768 18.152 66.7928 18.392C67.0088 18.632 67.3568 18.872 67.8368 19.112C68.1648 19.28 68.4528 19.44 68.7008 19.592C68.9488 19.744 69.1528 19.904 69.3128 20.072C69.4808 20.24 69.6048 20.424 69.6848 20.624C69.7728 20.816 69.8168 21.036 69.8168 21.284C69.8168 21.564 69.7568 21.824 69.6368 22.064C69.5168 22.304 69.3488 22.512 69.1328 22.688C68.9168 22.856 68.6568 22.988 68.3528 23.084C68.0488 23.188 67.7128 23.24 67.3448 23.24C66.6328 23.24 65.9648 23.088 65.3408 22.784V21.248H65.9048L66.1688 22.436C66.5768 22.62 67.0088 22.712 67.4648 22.712Z" fill="white"/>
<path fill-rule="evenodd" clip-rule="evenodd" d="M21.9825 9.34C19.985 8.94 17.355 8.8875 15.5575 10.6825C15.4995 10.7407 15.4535 10.8097 15.4222 10.8856C15.3909 10.9615 15.3749 11.0429 15.375 11.125V24.875C15.3748 24.9988 15.4113 25.1198 15.48 25.2228C15.5486 25.3258 15.6463 25.4061 15.7607 25.4535C15.875 25.5009 16.0009 25.5133 16.1222 25.489C16.2436 25.4648 16.3551 25.4051 16.4425 25.3175C17.4963 24.2625 19.0863 23.9938 20.78 24.1675C22.46 24.3425 24.105 24.9388 25.095 25.4338C25.1903 25.4815 25.2962 25.5041 25.4027 25.4994C25.5092 25.4946 25.6127 25.4628 25.7033 25.4068C25.794 25.3508 25.8689 25.2725 25.9208 25.1795C25.9727 25.0864 26 24.9816 26 24.875V11.125C26 11.009 25.9677 10.8953 25.9068 10.7967C25.8459 10.698 25.7587 10.6182 25.655 10.5663L25.375 11.125L25.655 10.5663L25.6525 10.565L25.6475 10.5625L25.6313 10.555L25.5725 10.5263C25.2446 10.3731 24.9115 10.2314 24.5738 10.1013C23.7327 9.77582 22.8659 9.52119 21.9825 9.34ZM24.75 11.525V23.91C23.6925 23.4813 22.32 23.07 20.9075 22.925C19.4788 22.7775 17.9238 22.8963 16.625 23.625V11.3975C17.9538 10.2363 19.9138 10.2025 21.7375 10.5675C22.7727 10.7793 23.7825 11.1002 24.75 11.525Z" fill="#82B3FF"/>
<path fill-rule="evenodd" clip-rule="evenodd" d="M10.0175 9.34C12.0163 8.94 14.645 8.8875 16.4425 10.6825C16.5005 10.7407 16.5465 10.8097 16.5778 10.8856C16.6091 10.9615 16.6251 11.0429 16.625 11.125V24.875C16.6252 24.9988 16.5887 25.1198 16.52 25.2228C16.4514 25.3258 16.3537 25.4061 16.2393 25.4535C16.125 25.5009 15.9991 25.5133 15.8778 25.489C15.7564 25.4648 15.6449 25.4051 15.5575 25.3175C14.5037 24.2625 12.9138 23.9938 11.22 24.1675C9.54 24.3425 7.895 24.9388 6.905 25.4338C6.80971 25.4815 6.7038 25.5041 6.59732 25.4994C6.49085 25.4946 6.38735 25.4628 6.29666 25.4068C6.20597 25.3508 6.13111 25.2725 6.07919 25.1795C6.02726 25.0864 6 24.9816 6 24.875V11.125C6 11.009 6.03228 10.8953 6.0932 10.7967C6.15413 10.698 6.24132 10.6182 6.345 10.5663L6.625 11.125L6.345 10.5663L6.3475 10.565L6.3525 10.5625L6.36875 10.555C6.45936 10.5099 6.55106 10.4669 6.64375 10.4263C7.72561 9.94176 8.85739 9.5775 10.0187 9.34H10.0175Z" fill="#82B3FF"/>
<path d="M71.624 13.412C72.032 13.412 72.62 13.396 73.388 13.364C74.156 13.332 74.664 13.316 74.912 13.316H75.236C76.284 13.316 77.064 13.532 77.576 13.964C78.088 14.388 78.344 14.948 78.344 15.644C78.344 16.636 77.696 17.324 76.4 17.708V17.744C77.152 17.856 77.744 18.152 78.176 18.632C78.616 19.104 78.836 19.672 78.836 20.336C78.836 21.224 78.532 21.916 77.924 22.412C77.324 22.908 76.44 23.156 75.272 23.156C74.952 23.156 74.432 23.128 73.712 23.072C73 23.024 72.432 23 72.008 23C71.96 23 71.884 23 71.78 23C71.676 23.008 71.6 23.012 71.552 23.012C71.504 22.868 71.504 22.724 71.552 22.58L72.548 22.448C72.58 22.144 72.596 21.676 72.596 21.044V13.976L71.624 13.856C71.592 13.736 71.592 13.588 71.624 13.412ZM74.84 18.128H73.88V22.472C74.288 22.544 74.612 22.588 74.852 22.604C75.82 22.604 76.488 22.424 76.856 22.064C77.224 21.696 77.408 21.124 77.408 20.348C77.408 19.724 77.18 19.2 76.724 18.776C76.276 18.344 75.648 18.128 74.84 18.128ZM74.924 13.82C74.524 13.82 74.192 13.848 73.928 13.904C73.896 14.208 73.88 14.708 73.88 15.404V17.528H74.816C75.56 17.528 76.1 17.376 76.436 17.072C76.78 16.768 76.952 16.316 76.952 15.716C76.952 15.108 76.764 14.64 76.388 14.312C76.02 13.984 75.532 13.82 74.924 13.82ZM81.5258 21.404C81.5258 21.82 81.6018 22.116 81.7538 22.292C81.9058 22.46 82.1458 22.544 82.4738 22.544C82.7138 22.544 82.9778 22.472 83.2658 22.328C83.5618 22.176 83.8338 21.96 84.0818 21.68V19.808C83.2578 19.856 82.6258 20.004 82.1858 20.252C81.7458 20.492 81.5258 20.876 81.5258 21.404ZM84.0818 19.376V18.764C84.0818 18.084 84.0018 17.592 83.8418 17.288C83.6898 16.976 83.4338 16.82 83.0738 16.82C82.7058 16.82 82.4098 16.94 82.1858 17.18C81.9618 17.412 81.8098 17.812 81.7298 18.38C81.4738 18.436 81.2858 18.464 81.1658 18.464C80.8538 18.464 80.6698 18.352 80.6138 18.128C80.6138 17.584 80.8498 17.152 81.3218 16.832C81.7938 16.512 82.3818 16.352 83.0858 16.352C83.8618 16.352 84.4098 16.512 84.7298 16.832C85.0578 17.144 85.2218 17.708 85.2218 18.524V21.908C85.2218 22.108 85.2338 22.28 85.2578 22.424L86.2058 22.544C86.2378 22.664 86.2378 22.816 86.2058 23C85.6378 23.024 85.0338 23.08 84.3938 23.168C84.3298 23.104 84.2898 23.024 84.2738 22.928L84.2138 22.1C83.5498 22.86 82.8098 23.24 81.9938 23.24C81.4898 23.24 81.0938 23.096 80.8058 22.808C80.5258 22.52 80.3858 22.132 80.3858 21.644C80.3858 20.908 80.7178 20.352 81.3818 19.976C82.0538 19.6 82.9538 19.4 84.0818 19.376ZM89.3519 16.592L89.3279 17.828C89.5279 17.46 89.8039 17.124 90.1559 16.82C90.5159 16.508 90.8559 16.352 91.1759 16.352C91.4239 16.352 91.6439 16.38 91.8359 16.436C91.8999 16.54 91.9319 16.676 91.9319 16.844C91.9319 17.108 91.8759 17.372 91.7639 17.636C91.4759 17.556 91.1999 17.516 90.9359 17.516C90.2799 17.516 89.7399 17.836 89.3159 18.476L89.2919 20.576V22.388L90.6239 22.568C90.6559 22.696 90.6559 22.856 90.6239 23.048C90.1199 23.024 89.5439 23.012 88.8959 23.012C88.4079 23.012 87.8279 23.02 87.1559 23.036C87.1079 22.884 87.1079 22.728 87.1559 22.568L88.1039 22.436C88.1359 21.996 88.1519 21.488 88.1519 20.912V17.624C88.1519 17.464 88.1399 17.316 88.1159 17.18L87.1679 17.06C87.1359 16.94 87.1359 16.788 87.1679 16.604C87.7199 16.564 88.4079 16.48 89.2319 16.352C89.3039 16.432 89.3439 16.512 89.3519 16.592Z" fill="#82B3FF"/>
<path d="M71.624 13.412V13.162H71.4154L71.378 13.3673L71.624 13.412ZM73.388 13.364L73.3984 13.6138L73.388 13.364ZM77.576 13.964L77.4148 14.1551L77.4165 14.1565L77.576 13.964ZM76.4 17.708L76.329 17.4683L76.15 17.5213V17.708H76.4ZM76.4 17.744H76.15V17.9595L76.3632 17.9913L76.4 17.744ZM78.176 18.632L77.9901 18.7993L77.9931 18.8025L78.176 18.632ZM77.924 22.412L77.766 22.2183L77.7647 22.2193L77.924 22.412ZM73.712 23.072L73.7314 22.8227L73.7288 22.8226L73.712 23.072ZM71.78 23V22.75H71.7704L71.7608 22.7507L71.78 23ZM71.552 23.012L71.3148 23.0911L71.3718 23.262H71.552V23.012ZM71.552 22.58L71.5192 22.3322L71.3642 22.3527L71.3148 22.5009L71.552 22.58ZM72.548 22.448L72.5808 22.6958L72.776 22.67L72.7966 22.4742L72.548 22.448ZM72.596 13.976H72.846V13.755L72.6266 13.7279L72.596 13.976ZM71.624 13.856L71.3824 13.9204L71.4259 14.0834L71.5934 14.1041L71.624 13.856ZM73.88 18.128V17.878H73.63V18.128H73.88ZM73.88 22.472H73.63V22.6817L73.8366 22.7182L73.88 22.472ZM74.852 22.604L74.8354 22.8534L74.8437 22.854H74.852V22.604ZM76.856 22.064L77.0308 22.2427L77.0328 22.2408L76.856 22.064ZM76.724 18.776L76.5504 18.956L76.5538 18.9591L76.724 18.776ZM73.928 13.904L73.8761 13.6594L73.6984 13.6971L73.6794 13.8778L73.928 13.904ZM73.88 17.528H73.63V17.778H73.88V17.528ZM76.436 17.072L76.2704 16.8847L76.2683 16.8866L76.436 17.072ZM76.388 14.312L76.2216 14.4986L76.2237 14.5004L76.388 14.312ZM71.624 13.662C72.0373 13.662 72.6294 13.6458 73.3984 13.6138L73.3776 13.1142C72.6106 13.1462 72.0267 13.162 71.624 13.162V13.662ZM73.3984 13.6138C74.1674 13.5817 74.6701 13.566 74.912 13.566V13.066C74.6579 13.066 74.1446 13.0823 73.3776 13.1142L73.3984 13.6138ZM74.912 13.566H75.236V13.066H74.912V13.566ZM75.236 13.566C76.2566 13.566 76.9672 13.7775 77.4148 14.1551L77.7372 13.7729C77.1608 13.2865 76.3114 13.066 75.236 13.066V13.566ZM77.4165 14.1565C77.8682 14.5305 78.094 15.0184 78.094 15.644H78.594C78.594 14.8776 78.3078 14.2455 77.7355 13.7715L77.4165 14.1565ZM78.094 15.644C78.094 16.0798 77.954 16.4375 77.676 16.7326C77.3926 17.0335 76.9518 17.2838 76.329 17.4683L76.471 17.9477C77.1442 17.7482 77.6754 17.4625 78.04 17.0754C78.41 16.6825 78.594 16.2002 78.594 15.644H78.094ZM76.15 17.708V17.744H76.65V17.708H76.15ZM76.3632 17.9913C77.0684 18.0963 77.6037 18.3698 77.9902 18.7992L78.3618 18.4648C77.8843 17.9342 77.2356 17.6157 76.4368 17.4967L76.3632 17.9913ZM77.9931 18.8025C78.3886 19.2267 78.586 19.7332 78.586 20.336H79.086C79.086 19.6108 78.8434 18.9813 78.3589 18.4615L77.9931 18.8025ZM78.586 20.336C78.586 21.16 78.3076 21.7764 77.766 22.2183L78.082 22.6057C78.7564 22.0556 79.086 21.288 79.086 20.336H78.586ZM77.7647 22.2193C77.2272 22.6637 76.4098 22.906 75.272 22.906V23.406C76.4702 23.406 77.4208 23.1523 78.0833 22.6047L77.7647 22.2193ZM75.272 22.906C74.9625 22.906 74.4509 22.8787 73.7314 22.8228L73.6926 23.3212C74.4131 23.3773 74.9415 23.406 75.272 23.406V22.906ZM73.7288 22.8226C73.0144 22.7744 72.4401 22.75 72.008 22.75V23.25C72.4239 23.25 72.9856 23.2736 73.6952 23.3214L73.7288 22.8226ZM72.008 22.75C72.0079 22.75 72.0078 22.75 72.0077 22.75C72.0076 22.75 72.0075 22.75 72.0074 22.75C72.0073 22.75 72.0072 22.75 72.0072 22.75C72.0071 22.75 72.007 22.75 72.0069 22.75C72.0068 22.75 72.0067 22.75 72.0066 22.75C72.0065 22.75 72.0064 22.75 72.0063 22.75C72.0062 22.75 72.0061 22.75 72.006 22.75C72.0059 22.75 72.0058 22.75 72.0057 22.75C72.0056 22.75 72.0055 22.75 72.0054 22.75C72.0053 22.75 72.0053 22.75 72.0052 22.75C72.0051 22.75 72.005 22.75 72.0049 22.75C72.0048 22.75 72.0047 22.75 72.0046 22.75C72.0045 22.75 72.0044 22.75 72.0043 22.75C72.0042 22.75 72.0041 22.75 72.004 22.75C72.0039 22.75 72.0038 22.75 72.0037 22.75C72.0036 22.75 72.0035 22.75 72.0034 22.75C72.0033 22.75 72.0032 22.75 72.0031 22.75C72.003 22.75 72.0029 22.75 72.0028 22.75C72.0027 22.75 72.0026 22.75 72.0025 22.75C72.0024 22.75 72.0023 22.75 72.0022 22.75C72.0021 22.75 72.0021 22.75 72.002 22.75C72.0019 22.75 72.0018 22.75 72.0017 22.75C72.0016 22.75 72.0015 22.75 72.0014 22.75C72.0013 22.75 72.0012 22.75 72.0011 22.75C72.001 22.75 72.0009 22.75 72.0008 22.75C72.0007 22.75 72.0006 22.75 72.0005 22.75C72.0004 22.75 72.0003 22.75 72.0002 22.75C72.0001 22.75 72 22.75 71.9999 22.75C71.9998 22.75 71.9997 22.75 71.9996 22.75C71.9995 22.75 71.9994 22.75 71.9993 22.75C71.9992 22.75 71.9991 22.75 71.999 22.75C71.9989 22.75 71.9988 22.75 71.9987 22.75C71.9986 22.75 71.9985 22.75 71.9984 22.75C71.9983 22.75 71.9982 22.75 71.9981 22.75C71.998 22.75 71.9979 22.75 71.9978 22.75C71.9977 22.75 71.9976 22.75 71.9975 22.75C71.9974 22.75 71.9973 22.75 71.9972 22.75C71.9971 22.75 71.997 22.75 71.9968 22.75C71.9967 22.75 71.9966 22.75 71.9965 22.75C71.9964 22.75 71.9963 22.75 71.9962 22.75C71.9961 22.75 71.996 22.75 71.9959 22.75C71.9958 22.75 71.9957 22.75 71.9956 22.75C71.9955 22.75 71.9954 22.75 71.9953 22.75C71.9952 22.75 71.9951 22.75 71.995 22.75C71.9949 22.75 71.9948 22.75 71.9947 22.75C71.9946 22.75 71.9945 22.75 71.9944 22.75C71.9943 22.75 71.9942 22.75 71.9941 22.75C71.994 22.75 71.9939 22.75 71.9938 22.75C71.9937 22.75 71.9936 22.75 71.9934 22.75C71.9933 22.75 71.9932 22.75 71.9931 22.75C71.993 22.75 71.9929 22.75 71.9928 22.75C71.9927 22.75 71.9926 22.75 71.9925 22.75C71.9924 22.75 71.9923 22.75 71.9922 22.75C71.9921 22.75 71.992 22.75 71.9919 22.75C71.9918 22.75 71.9917 22.75 71.9916 22.75C71.9915 22.75 71.9914 22.75 71.9912 22.75C71.9911 22.75 71.991 22.75 71.9909 22.75C71.9908 22.75 71.9907 22.75 71.9906 22.75C71.9905 22.75 71.9904 22.75 71.9903 22.75C71.9902 22.75 71.9901 22.75 71.99 22.75C71.9899 22.75 71.9898 22.75 71.9897 22.75C71.9895 22.75 71.9894 22.75 71.9893 22.75C71.9892 22.75 71.9891 22.75 71.989 22.75C71.9889 22.75 71.9888 22.75 71.9887 22.75C71.9886 22.75 71.9885 22.75 71.9884 22.75C71.9883 22.75 71.9881 22.75 71.988 22.75C71.9879 22.75 71.9878 22.75 71.9877 22.75C71.9876 22.75 71.9875 22.75 71.9874 22.75C71.9873 22.75 71.9872 22.75 71.9871 22.75C71.987 22.75 71.9869 22.75 71.9867 22.75C71.9866 22.75 71.9865 22.75 71.9864 22.75C71.9863 22.75 71.9862 22.75 71.9861 22.75C71.986 22.75 71.9859 22.75 71.9858 22.75C71.9857 22.75 71.9855 22.75 71.9854 22.75C71.9853 22.75 71.9852 22.75 71.9851 22.75C71.985 22.75 71.9849 22.75 71.9848 22.75C71.9847 22.75 71.9846 22.75 71.9844 22.75C71.9843 22.75 71.9842 22.75 71.9841 22.75C71.984 22.75 71.9839 22.75 71.9838 22.75C71.9837 22.75 71.9836 22.75 71.9834 22.75C71.9833 22.75 71.9832 22.75 71.9831 22.75C71.983 22.75 71.9829 22.75 71.9828 22.75C71.9827 22.75 71.9826 22.75 71.9824 22.75C71.9823 22.75 71.9822 22.75 71.9821 22.75C71.982 22.75 71.9819 22.75 71.9818 22.75C71.9817 22.75 71.9816 22.75 71.9814 22.75C71.9813 22.75 71.9812 22.75 71.9811 22.75C71.981 22.75 71.9809 22.75 71.9808 22.75C71.9807 22.75 71.9805 22.75 71.9804 22.75C71.9803 22.75 71.9802 22.75 71.9801 22.75C71.98 22.75 71.9799 22.75 71.9798 22.75C71.9796 22.75 71.9795 22.75 71.9794 22.75C71.9793 22.75 71.9792 22.75 71.9791 22.75C71.979 22.75 71.9788 22.75 71.9787 22.75C71.9786 22.75 71.9785 22.75 71.9784 22.75C71.9783 22.75 71.9782 22.75 71.978 22.75C71.9779 22.75 71.9778 22.75 71.9777 22.75C71.9776 22.75 71.9775 22.75 71.9774 22.75C71.9772 22.75 71.9771 22.75 71.977 22.75C71.9769 22.75 71.9768 22.75 71.9767 22.75C71.9766 22.75 71.9764 22.75 71.9763 22.75C71.9762 22.75 71.9761 22.75 71.976 22.75C71.9759 22.75 71.9757 22.75 71.9756 22.75C71.9755 22.75 71.9754 22.75 71.9753 22.75C71.9752 22.75 71.9751 22.75 71.9749 22.75C71.9748 22.75 71.9747 22.75 71.9746 22.75C71.9745 22.75 71.9744 22.75 71.9742 22.75C71.9741 22.75 71.974 22.75 71.9739 22.75C71.9738 22.75 71.9737 22.75 71.9735 22.75C71.9734 22.75 71.9733 22.75 71.9732 22.75C71.9731 22.75 71.973 22.75 71.9728 22.75C71.9727 22.75 71.9726 22.75 71.9725 22.75C71.9724 22.75 71.9722 22.75 71.9721 22.75C71.972 22.75 71.9719 22.75 71.9718 22.75C71.9717 22.75 71.9715 22.75 71.9714 22.75C71.9713 22.75 71.9712 22.75 71.9711 22.75C71.9709 22.75 71.9708 22.75 71.9707 22.75C71.9706 22.75 71.9705 22.75 71.9704 22.75C71.9702 22.75 71.9701 22.75 71.97 22.75C71.9699 22.75 71.9698 22.75 71.9696 22.75C71.9695 22.75 71.9694 22.75 71.9693 22.75C71.9692 22.75 71.969 22.75 71.9689 22.75C71.9688 22.75 71.9687 22.75 71.9686 22.75C71.9684 22.75 71.9683 22.75 71.9682 22.75C71.9681 22.75 71.968 22.75 71.9678 22.75C71.9677 22.75 71.9676 22.75 71.9675 22.75C71.9674 22.75 71.9672 22.75 71.9671 22.75C71.967 22.75 71.9669 22.75 71.9668 22.75C71.9666 22.75 71.9665 22.75 71.9664 22.75C71.9663 22.75 71.9661 22.75 71.966 22.75C71.9659 22.75 71.9658 22.75 71.9657 22.75C71.9655 22.75 71.9654 22.75 71.9653 22.75C71.9652 22.75 71.965 22.75 71.9649 22.75C71.9648 22.75 71.9647 22.75 71.9646 22.75C71.9644 22.75 71.9643 22.75 71.9642 22.75C71.9641 22.75 71.9639 22.75 71.9638 22.75C71.9637 22.75 71.9636 22.75 71.9635 22.75C71.9633 22.75 71.9632 22.75 71.9631 22.75C71.963 22.75 71.9628 22.75 71.9627 22.75C71.9626 22.75 71.9625 22.75 71.9623 22.75C71.9622 22.75 71.9621 22.75 71.962 22.75C71.9618 22.75 71.9617 22.75 71.9616 22.75C71.9615 22.75 71.9614 22.75 71.9612 22.75C71.9611 22.75 71.961 22.75 71.9609 22.75C71.9607 22.75 71.9606 22.75 71.9605 22.75C71.9604 22.75 71.9602 22.75 71.9601 22.75C71.96 22.75 71.9599 22.75 71.9597 22.75C71.9596 22.75 71.9595 22.75 71.9594 22.75C71.9592 22.75 71.9591 22.75 71.959 22.75C71.9589 22.75 71.9587 22.75 71.9586 22.75C71.9585 22.75 71.9584 22.75 71.9582 22.75C71.9581 22.75 71.958 22.75 71.9578 22.75C71.9577 22.75 71.9576 22.75 71.9575 22.75C71.9573 22.75 71.9572 22.75 71.9571 22.75C71.957 22.75 71.9568 22.75 71.9567 22.75C71.9566 22.75 71.9565 22.75 71.9563 22.75C71.9562 22.75 71.9561 22.75 71.9559 22.75C71.9558 22.75 71.9557 22.75 71.9556 22.75C71.9554 22.75 71.9553 22.75 71.9552 22.75C71.9551 22.75 71.9549 22.75 71.9548 22.75C71.9547 22.75 71.9545 22.75 71.9544 22.75C71.9543 22.75 71.9542 22.75 71.954 22.75C71.9539 22.75 71.9538 22.75 71.9536 22.75C71.9535 22.75 71.9534 22.75 71.9533 22.75C71.9531 22.75 71.953 22.75 71.9529 22.75C71.9527 22.75 71.9526 22.75 71.9525 22.75C71.9524 22.75 71.9522 22.75 71.9521 22.75C71.952 22.75 71.9518 22.75 71.9517 22.75C71.9516 22.75 71.9514 22.75 71.9513 22.75C71.9512 22.75 71.9511 22.75 71.9509 22.75C71.9508 22.75 71.9507 22.75 71.9505 22.75C71.9504 22.75 71.9503 22.75 71.9501 22.75C71.95 22.75 71.9499 22.75 71.9498 22.75C71.9496 22.75 71.9495 22.75 71.9494 22.75C71.9492 22.75 71.9491 22.75 71.949 22.75C71.9488 22.75 71.9487 22.75 71.9486 22.75C71.9484 22.75 71.9483 22.75 71.9482 22.75C71.948 22.75 71.9479 22.75 71.9478 22.75C71.9477 22.75 71.9475 22.75 71.9474 22.75C71.9473 22.75 71.9471 22.75 71.947 22.75C71.9469 22.75 71.9467 22.75 71.9466 22.75C71.9465 22.75 71.9463 22.75 71.9462 22.75C71.9461 22.75 71.9459 22.75 71.9458 22.75C71.9457 22.75 71.9455 22.75 71.9454 22.75C71.9453 22.75 71.9451 22.75 71.945 22.75C71.9449 22.75 71.9447 22.75 71.9446 22.75C71.9445 22.75 71.9443 22.75 71.9442 22.75C71.9441 22.75 71.9439 22.75 71.9438 22.75C71.9437 22.75 71.9435 22.75 71.9434 22.75C71.9433 22.75 71.9431 22.75 71.943 22.75C71.9429 22.75 71.9427 22.75 71.9426 22.75C71.9425 22.75 71.9423 22.75 71.9422 22.75C71.9421 22.75 71.9419 22.75 71.9418 22.75C71.9416 22.75 71.9415 22.75 71.9414 22.75C71.9412 22.75 71.9411 22.75 71.941 22.75C71.9408 22.75 71.9407 22.75 71.9406 22.75C71.9404 22.75 71.9403 22.75 71.9402 22.75C71.94 22.75 71.9399 22.75 71.9398 22.75C71.9396 22.75 71.9395 22.75 71.9393 22.75C71.9392 22.75 71.9391 22.75 71.9389 22.75C71.9388 22.75 71.9387 22.75 71.9385 22.75C71.9384 22.75 71.9382 22.75 71.9381 22.75C71.938 22.75 71.9378 22.75 71.9377 22.75C71.9376 22.75 71.9374 22.75 71.9373 22.75C71.9372 22.75 71.937 22.75 71.9369 22.75C71.9367 22.75 71.9366 22.75 71.9365 22.75C71.9363 22.75 71.9362 22.75 71.9361 22.75C71.9359 22.75 71.9358 22.75 71.9356 22.75C71.9355 22.75 71.9354 22.75 71.9352 22.75C71.9351 22.75 71.9349 22.75 71.9348 22.75C71.9347 22.75 71.9345 22.75 71.9344 22.75C71.9343 22.75 71.9341 22.75 71.934 22.75C71.9338 22.75 71.9337 22.75 71.9336 22.75C71.9334 22.75 71.9333 22.75 71.9331 22.75C71.933 22.75 71.9329 22.75 71.9327 22.75C71.9326 22.75 71.9324 22.75 71.9323 22.75C71.9322 22.75 71.932 22.75 71.9319 22.75C71.9317 22.75 71.9316 22.75 71.9315 22.75C71.9313 22.75 71.9312 22.75 71.931 22.75C71.9309 22.75 71.9308 22.75 71.9306 22.75C71.9305 22.75 71.9303 22.75 71.9302 22.75C71.9301 22.75 71.9299 22.75 71.9298 22.75C71.9296 22.75 71.9295 22.75 71.9293 22.75C71.9292 22.75 71.9291 22.75 71.9289 22.75C71.9288 22.75 71.9286 22.75 71.9285 22.75C71.9284 22.75 71.9282 22.75 71.9281 22.75C71.9279 22.75 71.9278 22.75 71.9276 22.75C71.9275 22.75 71.9274 22.75 71.9272 22.75C71.9271 22.75 71.9269 22.75 71.9268 22.75C71.9266 22.75 71.9265 22.75 71.9264 22.75C71.9262 22.75 71.9261 22.75 71.9259 22.75C71.9258 22.75 71.9256 22.75 71.9255 22.75C71.9254 22.75 71.9252 22.75 71.9251 22.75C71.9249 22.75 71.9248 22.75 71.9246 22.75C71.9245 22.75 71.9244 22.75 71.9242 22.75C71.9241 22.75 71.9239 22.75 71.9238 22.75C71.9236 22.75 71.9235 22.75 71.9233 22.75C71.9232 22.75 71.9231 22.75 71.9229 22.75C71.9228 22.75 71.9226 22.75 71.9225 22.75C71.9223 22.75 71.9222 22.75 71.922 22.75C71.9219 22.75 71.9218 22.75 71.9216 22.75C71.9215 22.75 71.9213 22.75 71.9212 22.75C71.921 22.75 71.9209 22.75 71.9207 22.75C71.9206 22.75 71.9204 22.75 71.9203 22.75C71.9202 22.75 71.92 22.75 71.9199 22.75C71.9197 22.75 71.9196 22.75 71.9194 22.75C71.9193 22.75 71.9191 22.75 71.919 22.75C71.9188 22.75 71.9187 22.75 71.9185 22.75C71.9184 22.75 71.9182 22.75 71.9181 22.75C71.918 22.75 71.9178 22.75 71.9177 22.75C71.9175 22.75 71.9174 22.75 71.9172 22.75C71.9171 22.75 71.9169 22.75 71.9168 22.75C71.9166 22.75 71.9165 22.75 71.9163 22.75C71.9162 22.75 71.916 22.75 71.9159 22.75C71.9157 22.75 71.9156 22.75 71.9154 22.75C71.9153 22.75 71.9151 22.75 71.915 22.75C71.9149 22.75 71.9147 22.75 71.9146 22.75C71.9144 22.75 71.9143 22.75 71.9141 22.75C71.914 22.75 71.9138 22.75 71.9137 22.75C71.9135 22.75 71.9134 22.75 71.9132 22.75C71.9131 22.75 71.9129 22.75 71.9128 22.75C71.9126 22.75 71.9125 22.75 71.9123 22.75C71.9122 22.75 71.912 22.75 71.9119 22.75C71.9117 22.75 71.9116 22.75 71.9114 22.75C71.9113 22.75 71.9111 22.75 71.911 22.75C71.9108 22.75 71.9107 22.75 71.9105 22.75C71.9104 22.75 71.9102 22.75 71.9101 22.75C71.9099 22.75 71.9098 22.75 71.9096 22.75C71.9095 22.75 71.9093 22.75 71.9092 22.75C71.909 22.75 71.9089 22.75 71.9087 22.75C71.9086 22.75 71.9084 22.75 71.9082 22.75C71.9081 22.75 71.9079 22.75 71.9078 22.75C71.9076 22.75 71.9075 22.75 71.9073 22.75C71.9072 22.75 71.907 22.75 71.9069 22.75C71.9067 22.75 71.9066 22.75 71.9064 22.75C71.9063 22.75 71.9061 22.75 71.906 22.75C71.9058 22.75 71.9057 22.75 71.9055 22.75C71.9054 22.75 71.9052 22.75 71.905 22.75C71.9049 22.75 71.9047 22.75 71.9046 22.75C71.9044 22.75 71.9043 22.75 71.9041 22.75C71.904 22.75 71.9038 22.75 71.9037 22.75C71.9035 22.75 71.9034 22.75 71.9032 22.75C71.9031 22.75 71.9029 22.75 71.9027 22.75C71.9026 22.75 71.9024 22.75 71.9023 22.75C71.9021 22.75 71.902 22.75 71.9018 22.75C71.9017 22.75 71.9015 22.75 71.9014 22.75C71.9012 22.75 71.901 22.75 71.9009 22.75C71.9007 22.75 71.9006 22.75 71.9004 22.75C71.9003 22.75 71.9001 22.75 71.9 22.75C71.8998 22.75 71.8996 22.75 71.8995 22.75C71.8993 22.75 71.8992 22.75 71.899 22.75C71.8989 22.75 71.8987 22.75 71.8986 22.75C71.8984 22.75 71.8982 22.75 71.8981 22.75C71.8979 22.75 71.8978 22.75 71.8976 22.75C71.8975 22.75 71.8973 22.75 71.8971 22.75C71.897 22.75 71.8968 22.75 71.8967 22.75C71.8965 22.75 71.8964 22.75 71.8962 22.75C71.896 22.75 71.8959 22.75 71.8957 22.75C71.8956 22.75 71.8954 22.75 71.8953 22.75C71.8951 22.75 71.8949 22.75 71.8948 22.75C71.8946 22.75 71.8945 22.75 71.8943 22.75C71.8942 22.75 71.894 22.75 71.8938 22.75C71.8937 22.75 71.8935 22.75 71.8934 22.75C71.8932 22.75 71.893 22.75 71.8929 22.75C71.8927 22.75 71.8926 22.75 71.8924 22.75C71.8923 22.75 71.8921 22.75 71.8919 22.75C71.8918 22.75 71.8916 22.75 71.8915 22.75C71.8913 22.75 71.8911 22.75 71.891 22.75C71.8908 22.75 71.8907 22.75 71.8905 22.75C71.8903 22.75 71.8902 22.75 71.89 22.75C71.8899 22.75 71.8897 22.75 71.8895 22.75C71.8894 22.75 71.8892 22.75 71.8891 22.75C71.8889 22.75 71.8887 22.75 71.8886 22.75C71.8884 22.75 71.8883 22.75 71.8881 22.75C71.8879 22.75 71.8878 22.75 71.8876 22.75C71.8875 22.75 71.8873 22.75 71.8871 22.75C71.887 22.75 71.8868 22.75 71.8866 22.75C71.8865 22.75 71.8863 22.75 71.8862 22.75C71.886 22.75 71.8858 22.75 71.8857 22.75C71.8855 22.75 71.8853 22.75 71.8852 22.75C71.885 22.75 71.8849 22.75 71.8847 22.75C71.8845 22.75 71.8844 22.75 71.8842 22.75C71.8841 22.75 71.8839 22.75 71.8837 22.75C71.8836 22.75 71.8834 22.75 71.8832 22.75C71.8831 22.75 71.8829 22.75 71.8827 22.75C71.8826 22.75 71.8824 22.75 71.8823 22.75C71.8821 22.75 71.8819 22.75 71.8818 22.75C71.8816 22.75 71.8814 22.75 71.8813 22.75C71.8811 22.75 71.8809 22.75 71.8808 22.75C71.8806 22.75 71.8805 22.75 71.8803 22.75C71.8801 22.75 71.88 22.75 71.8798 22.75C71.8796 22.75 71.8795 22.75 71.8793 22.75C71.8791 22.75 71.879 22.75 71.8788 22.75C71.8786 22.75 71.8785 22.75 71.8783 22.75C71.8782 22.75 71.878 22.75 71.8778 22.75C71.8777 22.75 71.8775 22.75 71.8773 22.75C71.8772 22.75 71.877 22.75 71.8768 22.75C71.8767 22.75 71.8765 22.75 71.8763 22.75C71.8762 22.75 71.876 22.75 71.8758 22.75C71.8757 22.75 71.8755 22.75 71.8753 22.75C71.8752 22.75 71.875 22.75 71.8748 22.75C71.8747 22.75 71.8745 22.75 71.8743 22.75C71.8742 22.75 71.874 22.75 71.8738 22.75C71.8737 22.75 71.8735 22.75 71.8733 22.75C71.8732 22.75 71.873 22.75 71.8728 22.75C71.8727 22.75 71.8725 22.75 71.8723 22.75C71.8722 22.75 71.872 22.75 71.8718 22.75C71.8717 22.75 71.8715 22.75 71.8713 22.75C71.8712 22.75 71.871 22.75 71.8708 22.75C71.8706 22.75 71.8705 22.75 71.8703 22.75C71.8701 22.75 71.87 22.75 71.8698 22.75C71.8696 22.75 71.8695 22.75 71.8693 22.75C71.8691 22.75 71.869 22.75 71.8688 22.75C71.8686 22.75 71.8685 22.75 71.8683 22.75C71.8681 22.75 71.8679 22.75 71.8678 22.75C71.8676 22.75 71.8674 22.75 71.8673 22.75C71.8671 22.75 71.8669 22.75 71.8668 22.75C71.8666 22.75 71.8664 22.75 71.8662 22.75C71.8661 22.75 71.8659 22.75 71.8657 22.75C71.8656 22.75 71.8654 22.75 71.8652 22.75C71.8651 22.75 71.8649 22.75 71.8647 22.75C71.8645 22.75 71.8644 22.75 71.8642 22.75C71.864 22.75 71.8639 22.75 71.8637 22.75C71.8635 22.75 71.8633 22.75 71.8632 22.75C71.863 22.75 71.8628 22.75 71.8627 22.75C71.8625 22.75 71.8623 22.75 71.8621 22.75C71.862 22.75 71.8618 22.75 71.8616 22.75C71.8615 22.75 71.8613 22.75 71.8611 22.75C71.8609 22.75 71.8608 22.75 71.8606 22.75C71.8604 22.75 71.8602 22.75 71.8601 22.75C71.8599 22.75 71.8597 22.75 71.8596 22.75C71.8594 22.75 71.8592 22.75 71.859 22.75C71.8589 22.75 71.8587 22.75 71.8585 22.75C71.8583 22.75 71.8582 22.75 71.858 22.75C71.8578 22.75 71.8576 22.75 71.8575 22.75C71.8573 22.75 71.8571 22.75 71.8569 22.75C71.8568 22.75 71.8566 22.75 71.8564 22.75C71.8563 22.75 71.8561 22.75 71.8559 22.75C71.8557 22.75 71.8556 22.75 71.8554 22.75C71.8552 22.75 71.855 22.75 71.8549 22.75C71.8547 22.75 71.8545 22.75 71.8543 22.75C71.8542 22.75 71.854 22.75 71.8538 22.75C71.8536 22.75 71.8535 22.75 71.8533 22.75C71.8531 22.75 71.8529 22.75 71.8528 22.75C71.8526 22.75 71.8524 22.75 71.8522 22.75C71.852 22.75 71.8519 22.75 71.8517 22.75C71.8515 22.75 71.8513 22.75 71.8512 22.75C71.851 22.75 71.8508 22.75 71.8506 22.75C71.8505 22.75 71.8503 22.75 71.8501 22.75C71.8499 22.75 71.8498 22.75 71.8496 22.75C71.8494 22.75 71.8492 22.75 71.849 22.75C71.8489 22.75 71.8487 22.75 71.8485 22.75C71.8483 22.75 71.8482 22.75 71.848 22.75C71.8478 22.75 71.8476 22.75 71.8474 22.75C71.8473 22.75 71.8471 22.75 71.8469 22.75C71.8467 22.75 71.8466 22.75 71.8464 22.75C71.8462 22.75 71.846 22.75 71.8458 22.75C71.8457 22.75 71.8455 22.75 71.8453 22.75C71.8451 22.75 71.8449 22.75 71.8448 22.75C71.8446 22.75 71.8444 22.75 71.8442 22.75C71.8441 22.75 71.8439 22.75 71.8437 22.75C71.8435 22.75 71.8433 22.75 71.8432 22.75C71.843 22.75 71.8428 22.75 71.8426 22.75C71.8424 22.75 71.8423 22.75 71.8421 22.75C71.8419 22.75 71.8417 22.75 71.8415 22.75C71.8414 22.75 71.8412 22.75 71.841 22.75C71.8408 22.75 71.8406 22.75 71.8405 22.75C71.8403 22.75 71.8401 22.75 71.8399 22.75C71.8397 22.75 71.8395 22.75 71.8394 22.75C71.8392 22.75 71.839 22.75 71.8388 22.75C71.8386 22.75 71.8385 22.75 71.8383 22.75C71.8381 22.75 71.8379 22.75 71.8377 22.75C71.8376 22.75 71.8374 22.75 71.8372 22.75C71.837 22.75 71.8368 22.75 71.8366 22.75C71.8365 22.75 71.8363 22.75 71.8361 22.75C71.8359 22.75 71.8357 22.75 71.8355 22.75C71.8354 22.75 71.8352 22.75 71.835 22.75C71.8348 22.75 71.8346 22.75 71.8344 22.75C71.8343 22.75 71.8341 22.75 71.8339 22.75C71.8337 22.75 71.8335 22.75 71.8334 22.75C71.8332 22.75 71.833 22.75 71.8328 22.75C71.8326 22.75 71.8324 22.75 71.8322 22.75C71.8321 22.75 71.8319 22.75 71.8317 22.75C71.8315 22.75 71.8313 22.75 71.8311 22.75C71.831 22.75 71.8308 22.75 71.8306 22.75C71.8304 22.75 71.8302 22.75 71.83 22.75C71.8299 22.75 71.8297 22.75 71.8295 22.75C71.8293 22.75 71.8291 22.75 71.8289 22.75C71.8287 22.75 71.8286 22.75 71.8284 22.75C71.8282 22.75 71.828 22.75 71.8278 22.75C71.8276 22.75 71.8274 22.75 71.8273 22.75C71.8271 22.75 71.8269 22.75 71.8267 22.75C71.8265 22.75 71.8263 22.75 71.8261 22.75C71.826 22.75 71.8258 22.75 71.8256 22.75C71.8254 22.75 71.8252 22.75 71.825 22.75C71.8248 22.75 71.8246 22.75 71.8245 22.75C71.8243 22.75 71.8241 22.75 71.8239 22.75C71.8237 22.75 71.8235 22.75 71.8233 22.75C71.8232 22.75 71.823 22.75 71.8228 22.75C71.8226 22.75 71.8224 22.75 71.8222 22.75C71.822 22.75 71.8218 22.75 71.8217 22.75C71.8215 22.75 71.8213 22.75 71.8211 22.75C71.8209 22.75 71.8207 22.75 71.8205 22.75C71.8203 22.75 71.8201 22.75 71.82 22.75C71.8198 22.75 71.8196 22.75 71.8194 22.75C71.8192 22.75 71.819 22.75 71.8188 22.75C71.8186 22.75 71.8184 22.75 71.8183 22.75C71.8181 22.75 71.8179 22.75 71.8177 22.75C71.8175 22.75 71.8173 22.75 71.8171 22.75C71.8169 22.75 71.8167 22.75 71.8165 22.75C71.8164 22.75 71.8162 22.75 71.816 22.75C71.8158 22.75 71.8156 22.75 71.8154 22.75C71.8152 22.75 71.815 22.75 71.8148 22.75C71.8146 22.75 71.8145 22.75 71.8143 22.75C71.8141 22.75 71.8139 22.75 71.8137 22.75C71.8135 22.75 71.8133 22.75 71.8131 22.75C71.8129 22.75 71.8127 22.75 71.8125 22.75C71.8124 22.75 71.8122 22.75 71.812 22.75C71.8118 22.75 71.8116 22.75 71.8114 22.75C71.8112 22.75 71.811 22.75 71.8108 22.75C71.8106 22.75 71.8104 22.75 71.8102 22.75C71.8101 22.75 71.8099 22.75 71.8097 22.75C71.8095 22.75 71.8093 22.75 71.8091 22.75C71.8089 22.75 71.8087 22.75 71.8085 22.75C71.8083 22.75 71.8081 22.75 71.8079 22.75C71.8077 22.75 71.8075 22.75 71.8074 22.75C71.8072 22.75 71.807 22.75 71.8068 22.75C71.8066 22.75 71.8064 22.75 71.8062 22.75C71.806 22.75 71.8058 22.75 71.8056 22.75C71.8054 22.75 71.8052 22.75 71.805 22.75C71.8048 22.75 71.8046 22.75 71.8044 22.75C71.8043 22.75 71.8041 22.75 71.8039 22.75C71.8037 22.75 71.8035 22.75 71.8033 22.75C71.8031 22.75 71.8029 22.75 71.8027 22.75C71.8025 22.75 71.8023 22.75 71.8021 22.75C71.8019 22.75 71.8017 22.75 71.8015 22.75C71.8013 22.75 71.8011 22.75 71.8009 22.75C71.8007 22.75 71.8005 22.75 71.8003 22.75C71.8002 22.75 71.8 22.75 71.7998 22.75C71.7996 22.75 71.7994 22.75 71.7992 22.75C71.799 22.75 71.7988 22.75 71.7986 22.75C71.7984 22.75 71.7982 22.75 71.798 22.75C71.7978 22.75 71.7976 22.75 71.7974 22.75C71.7972 22.75 71.797 22.75 71.7968 22.75C71.7966 22.75 71.7964 22.75 71.7962 22.75C71.796 22.75 71.7958 22.75 71.7956 22.75C71.7954 22.75 71.7952 22.75 71.795 22.75C71.7948 22.75 71.7946 22.75 71.7944 22.75C71.7942 22.75 71.794 22.75 71.7938 22.75C71.7936 22.75 71.7934 22.75 71.7933 22.75C71.7931 22.75 71.7929 22.75 71.7927 22.75C71.7925 22.75 71.7923 22.75 71.7921 22.75C71.7919 22.75 71.7917 22.75 71.7915 22.75C71.7913 22.75 71.7911 22.75 71.7909 22.75C71.7907 22.75 71.7905 22.75 71.7903 22.75C71.7901 22.75 71.7899 22.75 71.7897 22.75C71.7895 22.75 71.7893 22.75 71.7891 22.75C71.7889 22.75 71.7887 22.75 71.7885 22.75C71.7883 22.75 71.7881 22.75 71.7879 22.75C71.7877 22.75 71.7875 22.75 71.7873 22.75C71.7871 22.75 71.7869 22.75 71.7867 22.75C71.7865 22.75 71.7863 22.75 71.7861 22.75C71.7859 22.75 71.7857 22.75 71.7855 22.75C71.7853 22.75 71.7851 22.75 71.7849 22.75C71.7847 22.75 71.7845 22.75 71.7842 22.75C71.784 22.75 71.7838 22.75 71.7836 22.75C71.7834 22.75 71.7832 22.75 71.783 22.75C71.7828 22.75 71.7826 22.75 71.7824 22.75C71.7822 22.75 71.782 22.75 71.7818 22.75C71.7816 22.75 71.7814 22.75 71.7812 22.75C71.781 22.75 71.7808 22.75 71.7806 22.75C71.7804 22.75 71.7802 22.75 71.78 22.75V23.25C71.7802 23.25 71.7804 23.25 71.7806 23.25C71.7808 23.25 71.781 23.25 71.7812 23.25C71.7814 23.25 71.7816 23.25 71.7818 23.25C71.782 23.25 71.7822 23.25 71.7824 23.25C71.7826 23.25 71.7828 23.25 71.783 23.25C71.7832 23.25 71.7834 23.25 71.7836 23.25C71.7838 23.25 71.784 23.25 71.7842 23.25C71.7845 23.25 71.7847 23.25 71.7849 23.25C71.7851 23.25 71.7853 23.25 71.7855 23.25C71.7857 23.25 71.7859 23.25 71.7861 23.25C71.7863 23.25 71.7865 23.25 71.7867 23.25C71.7869 23.25 71.7871 23.25 71.7873 23.25C71.7875 23.25 71.7877 23.25 71.7879 23.25C71.7881 23.25 71.7883 23.25 71.7885 23.25C71.7887 23.25 71.7889 23.25 71.7891 23.25C71.7893 23.25 71.7895 23.25 71.7897 23.25C71.7899 23.25 71.7901 23.25 71.7903 23.25C71.7905 23.25 71.7907 23.25 71.7909 23.25C71.7911 23.25 71.7913 23.25 71.7915 23.25C71.7917 23.25 71.7919 23.25 71.7921 23.25C71.7923 23.25 71.7925 23.25 71.7927 23.25C71.7929 23.25 71.7931 23.25 71.7933 23.25C71.7934 23.25 71.7936 23.25 71.7938 23.25C71.794 23.25 71.7942 23.25 71.7944 23.25C71.7946 23.25 71.7948 23.25 71.795 23.25C71.7952 23.25 71.7954 23.25 71.7956 23.25C71.7958 23.25 71.796 23.25 71.7962 23.25C71.7964 23.25 71.7966 23.25 71.7968 23.25C71.797 23.25 71.7972 23.25 71.7974 23.25C71.7976 23.25 71.7978 23.25 71.798 23.25C71.7982 23.25 71.7984 23.25 71.7986 23.25C71.7988 23.25 71.799 23.25 71.7992 23.25C71.7994 23.25 71.7996 23.25 71.7998 23.25C71.8 23.25 71.8002 23.25 71.8003 23.25C71.8005 23.25 71.8007 23.25 71.8009 23.25C71.8011 23.25 71.8013 23.25 71.8015 23.25C71.8017 23.25 71.8019 23.25 71.8021 23.25C71.8023 23.25 71.8025 23.25 71.8027 23.25C71.8029 23.25 71.8031 23.25 71.8033 23.25C71.8035 23.25 71.8037 23.25 71.8039 23.25C71.8041 23.25 71.8043 23.25 71.8044 23.25C71.8046 23.25 71.8048 23.25 71.805 23.25C71.8052 23.25 71.8054 23.25 71.8056 23.25C71.8058 23.25 71.806 23.25 71.8062 23.25C71.8064 23.25 71.8066 23.25 71.8068 23.25C71.807 23.25 71.8072 23.25 71.8074 23.25C71.8075 23.25 71.8077 23.25 71.8079 23.25C71.8081 23.25 71.8083 23.25 71.8085 23.25C71.8087 23.25 71.8089 23.25 71.8091 23.25C71.8093 23.25 71.8095 23.25 71.8097 23.25C71.8099 23.25 71.8101 23.25 71.8102 23.25C71.8104 23.25 71.8106 23.25 71.8108 23.25C71.811 23.25 71.8112 23.25 71.8114 23.25C71.8116 23.25 71.8118 23.25 71.812 23.25C71.8122 23.25 71.8124 23.25 71.8125 23.25C71.8127 23.25 71.8129 23.25 71.8131 23.25C71.8133 23.25 71.8135 23.25 71.8137 23.25C71.8139 23.25 71.8141 23.25 71.8143 23.25C71.8145 23.25 71.8146 23.25 71.8148 23.25C71.815 23.25 71.8152 23.25 71.8154 23.25C71.8156 23.25 71.8158 23.25 71.816 23.25C71.8162 23.25 71.8164 23.25 71.8165 23.25C71.8167 23.25 71.8169 23.25 71.8171 23.25C71.8173 23.25 71.8175 23.25 71.8177 23.25C71.8179 23.25 71.8181 23.25 71.8183 23.25C71.8184 23.25 71.8186 23.25 71.8188 23.25C71.819 23.25 71.8192 23.25 71.8194 23.25C71.8196 23.25 71.8198 23.25 71.82 23.25C71.8201 23.25 71.8203 23.25 71.8205 23.25C71.8207 23.25 71.8209 23.25 71.8211 23.25C71.8213 23.25 71.8215 23.25 71.8217 23.25C71.8218 23.25 71.822 23.25 71.8222 23.25C71.8224 23.25 71.8226 23.25 71.8228 23.25C71.823 23.25 71.8232 23.25 71.8233 23.25C71.8235 23.25 71.8237 23.25 71.8239 23.25C71.8241 23.25 71.8243 23.25 71.8245 23.25C71.8246 23.25 71.8248 23.25 71.825 23.25C71.8252 23.25 71.8254 23.25 71.8256 23.25C71.8258 23.25 71.826 23.25 71.8261 23.25C71.8263 23.25 71.8265 23.25 71.8267 23.25C71.8269 23.25 71.8271 23.25 71.8273 23.25C71.8274 23.25 71.8276 23.25 71.8278 23.25C71.828 23.25 71.8282 23.25 71.8284 23.25C71.8286 23.25 71.8287 23.25 71.8289 23.25C71.8291 23.25 71.8293 23.25 71.8295 23.25C71.8297 23.25 71.8299 23.25 71.83 23.25C71.8302 23.25 71.8304 23.25 71.8306 23.25C71.8308 23.25 71.831 23.25 71.8311 23.25C71.8313 23.25 71.8315 23.25 71.8317 23.25C71.8319 23.25 71.8321 23.25 71.8322 23.25C71.8324 23.25 71.8326 23.25 71.8328 23.25C71.833 23.25 71.8332 23.25 71.8334 23.25C71.8335 23.25 71.8337 23.25 71.8339 23.25C71.8341 23.25 71.8343 23.25 71.8344 23.25C71.8346 23.25 71.8348 23.25 71.835 23.25C71.8352 23.25 71.8354 23.25 71.8355 23.25C71.8357 23.25 71.8359 23.25 71.8361 23.25C71.8363 23.25 71.8365 23.25 71.8366 23.25C71.8368 23.25 71.837 23.25 71.8372 23.25C71.8374 23.25 71.8376 23.25 71.8377 23.25C71.8379 23.25 71.8381 23.25 71.8383 23.25C71.8385 23.25 71.8386 23.25 71.8388 23.25C71.839 23.25 71.8392 23.25 71.8394 23.25C71.8395 23.25 71.8397 23.25 71.8399 23.25C71.8401 23.25 71.8403 23.25 71.8405 23.25C71.8406 23.25 71.8408 23.25 71.841 23.25C71.8412 23.25 71.8414 23.25 71.8415 23.25C71.8417 23.25 71.8419 23.25 71.8421 23.25C71.8423 23.25 71.8424 23.25 71.8426 23.25C71.8428 23.25 71.843 23.25 71.8432 23.25C71.8433 23.25 71.8435 23.25 71.8437 23.25C71.8439 23.25 71.8441 23.25 71.8442 23.25C71.8444 23.25 71.8446 23.25 71.8448 23.25C71.8449 23.25 71.8451 23.25 71.8453 23.25C71.8455 23.25 71.8457 23.25 71.8458 23.25C71.846 23.25 71.8462 23.25 71.8464 23.25C71.8466 23.25 71.8467 23.25 71.8469 23.25C71.8471 23.25 71.8473 23.25 71.8474 23.25C71.8476 23.25 71.8478 23.25 71.848 23.25C71.8482 23.25 71.8483 23.25 71.8485 23.25C71.8487 23.25 71.8489 23.25 71.849 23.25C71.8492 23.25 71.8494 23.25 71.8496 23.25C71.8498 23.25 71.8499 23.25 71.8501 23.25C71.8503 23.25 71.8505 23.25 71.8506 23.25C71.8508 23.25 71.851 23.25 71.8512 23.25C71.8513 23.25 71.8515 23.25 71.8517 23.25C71.8519 23.25 71.852 23.25 71.8522 23.25C71.8524 23.25 71.8526 23.25 71.8528 23.25C71.8529 23.25 71.8531 23.25 71.8533 23.25C71.8535 23.25 71.8536 23.25 71.8538 23.25C71.854 23.25 71.8542 23.25 71.8543 23.25C71.8545 23.25 71.8547 23.25 71.8549 23.25C71.855 23.25 71.8552 23.25 71.8554 23.25C71.8556 23.25 71.8557 23.25 71.8559 23.25C71.8561 23.25 71.8563 23.25 71.8564 23.25C71.8566 23.25 71.8568 23.25 71.8569 23.25C71.8571 23.25 71.8573 23.25 71.8575 23.25C71.8576 23.25 71.8578 23.25 71.858 23.25C71.8582 23.25 71.8583 23.25 71.8585 23.25C71.8587 23.25 71.8589 23.25 71.859 23.25C71.8592 23.25 71.8594 23.25 71.8596 23.25C71.8597 23.25 71.8599 23.25 71.8601 23.25C71.8602 23.25 71.8604 23.25 71.8606 23.25C71.8608 23.25 71.8609 23.25 71.8611 23.25C71.8613 23.25 71.8615 23.25 71.8616 23.25C71.8618 23.25 71.862 23.25 71.8621 23.25C71.8623 23.25 71.8625 23.25 71.8627 23.25C71.8628 23.25 71.863 23.25 71.8632 23.25C71.8633 23.25 71.8635 23.25 71.8637 23.25C71.8639 23.25 71.864 23.25 71.8642 23.25C71.8644 23.25 71.8645 23.25 71.8647 23.25C71.8649 23.25 71.8651 23.25 71.8652 23.25C71.8654 23.25 71.8656 23.25 71.8657 23.25C71.8659 23.25 71.8661 23.25 71.8662 23.25C71.8664 23.25 71.8666 23.25 71.8668 23.25C71.8669 23.25 71.8671 23.25 71.8673 23.25C71.8674 23.25 71.8676 23.25 71.8678 23.25C71.8679 23.25 71.8681 23.25 71.8683 23.25C71.8685 23.25 71.8686 23.25 71.8688 23.25C71.869 23.25 71.8691 23.25 71.8693 23.25C71.8695 23.25 71.8696 23.25 71.8698 23.25C71.87 23.25 71.8701 23.25 71.8703 23.25C71.8705 23.25 71.8706 23.25 71.8708 23.25C71.871 23.25 71.8712 23.25 71.8713 23.25C71.8715 23.25 71.8717 23.25 71.8718 23.25C71.872 23.25 71.8722 23.25 71.8723 23.25C71.8725 23.25 71.8727 23.25 71.8728 23.25C71.873 23.25 71.8732 23.25 71.8733 23.25C71.8735 23.25 71.8737 23.25 71.8738 23.25C71.874 23.25 71.8742 23.25 71.8743 23.25C71.8745 23.25 71.8747 23.25 71.8748 23.25C71.875 23.25 71.8752 23.25 71.8753 23.25C71.8755 23.25 71.8757 23.25 71.8758 23.25C71.876 23.25 71.8762 23.25 71.8763 23.25C71.8765 23.25 71.8767 23.25 71.8768 23.25C71.877 23.25 71.8772 23.25 71.8773 23.25C71.8775 23.25 71.8777 23.25 71.8778 23.25C71.878 23.25 71.8782 23.25 71.8783 23.25C71.8785 23.25 71.8786 23.25 71.8788 23.25C71.879 23.25 71.8791 23.25 71.8793 23.25C71.8795 23.25 71.8796 23.25 71.8798 23.25C71.88 23.25 71.8801 23.25 71.8803 23.25C71.8805 23.25 71.8806 23.25 71.8808 23.25C71.8809 23.25 71.8811 23.25 71.8813 23.25C71.8814 23.25 71.8816 23.25 71.8818 23.25C71.8819 23.25 71.8821 23.25 71.8823 23.25C71.8824 23.25 71.8826 23.25 71.8827 23.25C71.8829 23.25 71.8831 23.25 71.8832 23.25C71.8834 23.25 71.8836 23.25 71.8837 23.25C71.8839 23.25 71.8841 23.25 71.8842 23.25C71.8844 23.25 71.8845 23.25 71.8847 23.25C71.8849 23.25 71.885 23.25 71.8852 23.25C71.8853 23.25 71.8855 23.25 71.8857 23.25C71.8858 23.25 71.886 23.25 71.8862 23.25C71.8863 23.25 71.8865 23.25 71.8866 23.25C71.8868 23.25 71.887 23.25 71.8871 23.25C71.8873 23.25 71.8875 23.25 71.8876 23.25C71.8878 23.25 71.8879 23.25 71.8881 23.25C71.8883 23.25 71.8884 23.25 71.8886 23.25C71.8887 23.25 71.8889 23.25 71.8891 23.25C71.8892 23.25 71.8894 23.25 71.8895 23.25C71.8897 23.25 71.8899 23.25 71.89 23.25C71.8902 23.25 71.8903 23.25 71.8905 23.25C71.8907 23.25 71.8908 23.25 71.891 23.25C71.8911 23.25 71.8913 23.25 71.8915 23.25C71.8916 23.25 71.8918 23.25 71.8919 23.25C71.8921 23.25 71.8923 23.25 71.8924 23.25C71.8926 23.25 71.8927 23.25 71.8929 23.25C71.893 23.25 71.8932 23.25 71.8934 23.25C71.8935 23.25 71.8937 23.25 71.8938 23.25C71.894 23.25 71.8942 23.25 71.8943 23.25C71.8945 23.25 71.8946 23.25 71.8948 23.25C71.8949 23.25 71.8951 23.25 71.8953 23.25C71.8954 23.25 71.8956 23.25 71.8957 23.25C71.8959 23.25 71.896 23.25 71.8962 23.25C71.8964 23.25 71.8965 23.25 71.8967 23.25C71.8968 23.25 71.897 23.25 71.8971 23.25C71.8973 23.25 71.8975 23.25 71.8976 23.25C71.8978 23.25 71.8979 23.25 71.8981 23.25C71.8982 23.25 71.8984 23.25 71.8986 23.25C71.8987 23.25 71.8989 23.25 71.899 23.25C71.8992 23.25 71.8993 23.25 71.8995 23.25C71.8996 23.25 71.8998 23.25 71.9 23.25C71.9001 23.25 71.9003 23.25 71.9004 23.25C71.9006 23.25 71.9007 23.25 71.9009 23.25C71.901 23.25 71.9012 23.25 71.9014 23.25C71.9015 23.25 71.9017 23.25 71.9018 23.25C71.902 23.25 71.9021 23.25 71.9023 23.25C71.9024 23.25 71.9026 23.25 71.9027 23.25C71.9029 23.25 71.9031 23.25 71.9032 23.25C71.9034 23.25 71.9035 23.25 71.9037 23.25C71.9038 23.25 71.904 23.25 71.9041 23.25C71.9043 23.25 71.9044 23.25 71.9046 23.25C71.9047 23.25 71.9049 23.25 71.905 23.25C71.9052 23.25 71.9054 23.25 71.9055 23.25C71.9057 23.25 71.9058 23.25 71.906 23.25C71.9061 23.25 71.9063 23.25 71.9064 23.25C71.9066 23.25 71.9067 23.25 71.9069 23.25C71.907 23.25 71.9072 23.25 71.9073 23.25C71.9075 23.25 71.9076 23.25 71.9078 23.25C71.9079 23.25 71.9081 23.25 71.9082 23.25C71.9084 23.25 71.9086 23.25 71.9087 23.25C71.9089 23.25 71.909 23.25 71.9092 23.25C71.9093 23.25 71.9095 23.25 71.9096 23.25C71.9098 23.25 71.9099 23.25 71.9101 23.25C71.9102 23.25 71.9104 23.25 71.9105 23.25C71.9107 23.25 71.9108 23.25 71.911 23.25C71.9111 23.25 71.9113 23.25 71.9114 23.25C71.9116 23.25 71.9117 23.25 71.9119 23.25C71.912 23.25 71.9122 23.25 71.9123 23.25C71.9125 23.25 71.9126 23.25 71.9128 23.25C71.9129 23.25 71.9131 23.25 71.9132 23.25C71.9134 23.25 71.9135 23.25 71.9137 23.25C71.9138 23.25 71.914 23.25 71.9141 23.25C71.9143 23.25 71.9144 23.25 71.9146 23.25C71.9147 23.25 71.9149 23.25 71.915 23.25C71.9151 23.25 71.9153 23.25 71.9154 23.25C71.9156 23.25 71.9157 23.25 71.9159 23.25C71.916 23.25 71.9162 23.25 71.9163 23.25C71.9165 23.25 71.9166 23.25 71.9168 23.25C71.9169 23.25 71.9171 23.25 71.9172 23.25C71.9174 23.25 71.9175 23.25 71.9177 23.25C71.9178 23.25 71.918 23.25 71.9181 23.25C71.9182 23.25 71.9184 23.25 71.9185 23.25C71.9187 23.25 71.9188 23.25 71.919 23.25C71.9191 23.25 71.9193 23.25 71.9194 23.25C71.9196 23.25 71.9197 23.25 71.9199 23.25C71.92 23.25 71.9202 23.25 71.9203 23.25C71.9204 23.25 71.9206 23.25 71.9207 23.25C71.9209 23.25 71.921 23.25 71.9212 23.25C71.9213 23.25 71.9215 23.25 71.9216 23.25C71.9218 23.25 71.9219 23.25 71.922 23.25C71.9222 23.25 71.9223 23.25 71.9225 23.25C71.9226 23.25 71.9228 23.25 71.9229 23.25C71.9231 23.25 71.9232 23.25 71.9233 23.25C71.9235 23.25 71.9236 23.25 71.9238 23.25C71.9239 23.25 71.9241 23.25 71.9242 23.25C71.9244 23.25 71.9245 23.25 71.9246 23.25C71.9248 23.25 71.9249 23.25 71.9251 23.25C71.9252 23.25 71.9254 23.25 71.9255 23.25C71.9256 23.25 71.9258 23.25 71.9259 23.25C71.9261 23.25 71.9262 23.25 71.9264 23.25C71.9265 23.25 71.9266 23.25 71.9268 23.25C71.9269 23.25 71.9271 23.25 71.9272 23.25C71.9274 23.25 71.9275 23.25 71.9276 23.25C71.9278 23.25 71.9279 23.25 71.9281 23.25C71.9282 23.25 71.9284 23.25 71.9285 23.25C71.9286 23.25 71.9288 23.25 71.9289 23.25C71.9291 23.25 71.9292 23.25 71.9293 23.25C71.9295 23.25 71.9296 23.25 71.9298 23.25C71.9299 23.25 71.9301 23.25 71.9302 23.25C71.9303 23.25 71.9305 23.25 71.9306 23.25C71.9308 23.25 71.9309 23.25 71.931 23.25C71.9312 23.25 71.9313 23.25 71.9315 23.25C71.9316 23.25 71.9317 23.25 71.9319 23.25C71.932 23.25 71.9322 23.25 71.9323 23.25C71.9324 23.25 71.9326 23.25 71.9327 23.25C71.9329 23.25 71.933 23.25 71.9331 23.25C71.9333 23.25 71.9334 23.25 71.9336 23.25C71.9337 23.25 71.9338 23.25 71.934 23.25C71.9341 23.25 71.9343 23.25 71.9344 23.25C71.9345 23.25 71.9347 23.25 71.9348 23.25C71.9349 23.25 71.9351 23.25 71.9352 23.25C71.9354 23.25 71.9355 23.25 71.9356 23.25C71.9358 23.25 71.9359 23.25 71.9361 23.25C71.9362 23.25 71.9363 23.25 71.9365 23.25C71.9366 23.25 71.9367 23.25 71.9369 23.25C71.937 23.25 71.9372 23.25 71.9373 23.25C71.9374 23.25 71.9376 23.25 71.9377 23.25C71.9378 23.25 71.938 23.25 71.9381 23.25C71.9382 23.25 71.9384 23.25 71.9385 23.25C71.9387 23.25 71.9388 23.25 71.9389 23.25C71.9391 23.25 71.9392 23.25 71.9393 23.25C71.9395 23.25 71.9396 23.25 71.9398 23.25C71.9399 23.25 71.94 23.25 71.9402 23.25C71.9403 23.25 71.9404 23.25 71.9406 23.25C71.9407 23.25 71.9408 23.25 71.941 23.25C71.9411 23.25 71.9412 23.25 71.9414 23.25C71.9415 23.25 71.9416 23.25 71.9418 23.25C71.9419 23.25 71.9421 23.25 71.9422 23.25C71.9423 23.25 71.9425 23.25 71.9426 23.25C71.9427 23.25 71.9429 23.25 71.943 23.25C71.9431 23.25 71.9433 23.25 71.9434 23.25C71.9435 23.25 71.9437 23.25 71.9438 23.25C71.9439 23.25 71.9441 23.25 71.9442 23.25C71.9443 23.25 71.9445 23.25 71.9446 23.25C71.9447 23.25 71.9449 23.25 71.945 23.25C71.9451 23.25 71.9453 23.25 71.9454 23.25C71.9455 23.25 71.9457 23.25 71.9458 23.25C71.9459 23.25 71.9461 23.25 71.9462 23.25C71.9463 23.25 71.9465 23.25 71.9466 23.25C71.9467 23.25 71.9469 23.25 71.947 23.25C71.9471 23.25 71.9473 23.25 71.9474 23.25C71.9475 23.25 71.9477 23.25 71.9478 23.25C71.9479 23.25 71.948 23.25 71.9482 23.25C71.9483 23.25 71.9484 23.25 71.9486 23.25C71.9487 23.25 71.9488 23.25 71.949 23.25C71.9491 23.25 71.9492 23.25 71.9494 23.25C71.9495 23.25 71.9496 23.25 71.9498 23.25C71.9499 23.25 71.95 23.25 71.9501 23.25C71.9503 23.25 71.9504 23.25 71.9505 23.25C71.9507 23.25 71.9508 23.25 71.9509 23.25C71.9511 23.25 71.9512 23.25 71.9513 23.25C71.9514 23.25 71.9516 23.25 71.9517 23.25C71.9518 23.25 71.952 23.25 71.9521 23.25C71.9522 23.25 71.9524 23.25 71.9525 23.25C71.9526 23.25 71.9527 23.25 71.9529 23.25C71.953 23.25 71.9531 23.25 71.9533 23.25C71.9534 23.25 71.9535 23.25 71.9536 23.25C71.9538 23.25 71.9539 23.25 71.954 23.25C71.9542 23.25 71.9543 23.25 71.9544 23.25C71.9545 23.25 71.9547 23.25 71.9548 23.25C71.9549 23.25 71.9551 23.25 71.9552 23.25C71.9553 23.25 71.9554 23.25 71.9556 23.25C71.9557 23.25 71.9558 23.25 71.9559 23.25C71.9561 23.25 71.9562 23.25 71.9563 23.25C71.9565 23.25 71.9566 23.25 71.9567 23.25C71.9568 23.25 71.957 23.25 71.9571 23.25C71.9572 23.25 71.9573 23.25 71.9575 23.25C71.9576 23.25 71.9577 23.25 71.9578 23.25C71.958 23.25 71.9581 23.25 71.9582 23.25C71.9584 23.25 71.9585 23.25 71.9586 23.25C71.9587 23.25 71.9589 23.25 71.959 23.25C71.9591 23.25 71.9592 23.25 71.9594 23.25C71.9595 23.25 71.9596 23.25 71.9597 23.25C71.9599 23.25 71.96 23.25 71.9601 23.25C71.9602 23.25 71.9604 23.25 71.9605 23.25C71.9606 23.25 71.9607 23.25 71.9609 23.25C71.961 23.25 71.9611 23.25 71.9612 23.25C71.9614 23.25 71.9615 23.25 71.9616 23.25C71.9617 23.25 71.9618 23.25 71.962 23.25C71.9621 23.25 71.9622 23.25 71.9623 23.25C71.9625 23.25 71.9626 23.25 71.9627 23.25C71.9628 23.25 71.963 23.25 71.9631 23.25C71.9632 23.25 71.9633 23.25 71.9635 23.25C71.9636 23.25 71.9637 23.25 71.9638 23.25C71.9639 23.25 71.9641 23.25 71.9642 23.25C71.9643 23.25 71.9644 23.25 71.9646 23.25C71.9647 23.25 71.9648 23.25 71.9649 23.25C71.965 23.25 71.9652 23.25 71.9653 23.25C71.9654 23.25 71.9655 23.25 71.9657 23.25C71.9658 23.25 71.9659 23.25 71.966 23.25C71.9661 23.25 71.9663 23.25 71.9664 23.25C71.9665 23.25 71.9666 23.25 71.9668 23.25C71.9669 23.25 71.967 23.25 71.9671 23.25C71.9672 23.25 71.9674 23.25 71.9675 23.25C71.9676 23.25 71.9677 23.25 71.9678 23.25C71.968 23.25 71.9681 23.25 71.9682 23.25C71.9683 23.25 71.9684 23.25 71.9686 23.25C71.9687 23.25 71.9688 23.25 71.9689 23.25C71.969 23.25 71.9692 23.25 71.9693 23.25C71.9694 23.25 71.9695 23.25 71.9696 23.25C71.9698 23.25 71.9699 23.25 71.97 23.25C71.9701 23.25 71.9702 23.25 71.9704 23.25C71.9705 23.25 71.9706 23.25 71.9707 23.25C71.9708 23.25 71.9709 23.25 71.9711 23.25C71.9712 23.25 71.9713 23.25 71.9714 23.25C71.9715 23.25 71.9717 23.25 71.9718 23.25C71.9719 23.25 71.972 23.25 71.9721 23.25C71.9722 23.25 71.9724 23.25 71.9725 23.25C71.9726 23.25 71.9727 23.25 71.9728 23.25C71.973 23.25 71.9731 23.25 71.9732 23.25C71.9733 23.25 71.9734 23.25 71.9735 23.25C71.9737 23.25 71.9738 23.25 71.9739 23.25C71.974 23.25 71.9741 23.25 71.9742 23.25C71.9744 23.25 71.9745 23.25 71.9746 23.25C71.9747 23.25 71.9748 23.25 71.9749 23.25C71.9751 23.25 71.9752 23.25 71.9753 23.25C71.9754 23.25 71.9755 23.25 71.9756 23.25C71.9757 23.25 71.9759 23.25 71.976 23.25C71.9761 23.25 71.9762 23.25 71.9763 23.25C71.9764 23.25 71.9766 23.25 71.9767 23.25C71.9768 23.25 71.9769 23.25 71.977 23.25C71.9771 23.25 71.9772 23.25 71.9774 23.25C71.9775 23.25 71.9776 23.25 71.9777 23.25C71.9778 23.25 71.9779 23.25 71.978 23.25C71.9782 23.25 71.9783 23.25 71.9784 23.25C71.9785 23.25 71.9786 23.25 71.9787 23.25C71.9788 23.25 71.979 23.25 71.9791 23.25C71.9792 23.25 71.9793 23.25 71.9794 23.25C71.9795 23.25 71.9796 23.25 71.9798 23.25C71.9799 23.25 71.98 23.25 71.9801 23.25C71.9802 23.25 71.9803 23.25 71.9804 23.25C71.9805 23.25 71.9807 23.25 71.9808 23.25C71.9809 23.25 71.981 23.25 71.9811 23.25C71.9812 23.25 71.9813 23.25 71.9814 23.25C71.9816 23.25 71.9817 23.25 71.9818 23.25C71.9819 23.25 71.982 23.25 71.9821 23.25C71.9822 23.25 71.9823 23.25 71.9824 23.25C71.9826 23.25 71.9827 23.25 71.9828 23.25C71.9829 23.25 71.983 23.25 71.9831 23.25C71.9832 23.25 71.9833 23.25 71.9834 23.25C71.9836 23.25 71.9837 23.25 71.9838 23.25C71.9839 23.25 71.984 23.25 71.9841 23.25C71.9842 23.25 71.9843 23.25 71.9844 23.25C71.9846 23.25 71.9847 23.25 71.9848 23.25C71.9849 23.25 71.985 23.25 71.9851 23.25C71.9852 23.25 71.9853 23.25 71.9854 23.25C71.9855 23.25 71.9857 23.25 71.9858 23.25C71.9859 23.25 71.986 23.25 71.9861 23.25C71.9862 23.25 71.9863 23.25 71.9864 23.25C71.9865 23.25 71.9866 23.25 71.9867 23.25C71.9869 23.25 71.987 23.25 71.9871 23.25C71.9872 23.25 71.9873 23.25 71.9874 23.25C71.9875 23.25 71.9876 23.25 71.9877 23.25C71.9878 23.25 71.9879 23.25 71.988 23.25C71.9881 23.25 71.9883 23.25 71.9884 23.25C71.9885 23.25 71.9886 23.25 71.9887 23.25C71.9888 23.25 71.9889 23.25 71.989 23.25C71.9891 23.25 71.9892 23.25 71.9893 23.25C71.9894 23.25 71.9895 23.25 71.9897 23.25C71.9898 23.25 71.9899 23.25 71.99 23.25C71.9901 23.25 71.9902 23.25 71.9903 23.25C71.9904 23.25 71.9905 23.25 71.9906 23.25C71.9907 23.25 71.9908 23.25 71.9909 23.25C71.991 23.25 71.9911 23.25 71.9912 23.25C71.9914 23.25 71.9915 23.25 71.9916 23.25C71.9917 23.25 71.9918 23.25 71.9919 23.25C71.992 23.25 71.9921 23.25 71.9922 23.25C71.9923 23.25 71.9924 23.25 71.9925 23.25C71.9926 23.25 71.9927 23.25 71.9928 23.25C71.9929 23.25 71.993 23.25 71.9931 23.25C71.9932 23.25 71.9933 23.25 71.9934 23.25C71.9936 23.25 71.9937 23.25 71.9938 23.25C71.9939 23.25 71.994 23.25 71.9941 23.25C71.9942 23.25 71.9943 23.25 71.9944 23.25C71.9945 23.25 71.9946 23.25 71.9947 23.25C71.9948 23.25 71.9949 23.25 71.995 23.25C71.9951 23.25 71.9952 23.25 71.9953 23.25C71.9954 23.25 71.9955 23.25 71.9956 23.25C71.9957 23.25 71.9958 23.25 71.9959 23.25C71.996 23.25 71.9961 23.25 71.9962 23.25C71.9963 23.25 71.9964 23.25 71.9965 23.25C71.9966 23.25 71.9967 23.25 71.9968 23.25C71.997 23.25 71.9971 23.25 71.9972 23.25C71.9973 23.25 71.9974 23.25 71.9975 23.25C71.9976 23.25 71.9977 23.25 71.9978 23.25C71.9979 23.25 71.998 23.25 71.9981 23.25C71.9982 23.25 71.9983 23.25 71.9984 23.25C71.9985 23.25 71.9986 23.25 71.9987 23.25C71.9988 23.25 71.9989 23.25 71.999 23.25C71.9991 23.25 71.9992 23.25 71.9993 23.25C71.9994 23.25 71.9995 23.25 71.9996 23.25C71.9997 23.25 71.9998 23.25 71.9999 23.25C72 23.25 72.0001 23.25 72.0002 23.25C72.0003 23.25 72.0004 23.25 72.0005 23.25C72.0006 23.25 72.0007 23.25 72.0008 23.25C72.0009 23.25 72.001 23.25 72.0011 23.25C72.0012 23.25 72.0013 23.25 72.0014 23.25C72.0015 23.25 72.0016 23.25 72.0017 23.25C72.0018 23.25 72.0019 23.25 72.002 23.25C72.0021 23.25 72.0021 23.25 72.0022 23.25C72.0023 23.25 72.0024 23.25 72.0025 23.25C72.0026 23.25 72.0027 23.25 72.0028 23.25C72.0029 23.25 72.003 23.25 72.0031 23.25C72.0032 23.25 72.0033 23.25 72.0034 23.25C72.0035 23.25 72.0036 23.25 72.0037 23.25C72.0038 23.25 72.0039 23.25 72.004 23.25C72.0041 23.25 72.0042 23.25 72.0043 23.25C72.0044 23.25 72.0045 23.25 72.0046 23.25C72.0047 23.25 72.0048 23.25 72.0049 23.25C72.005 23.25 72.0051 23.25 72.0052 23.25C72.0053 23.25 72.0053 23.25 72.0054 23.25C72.0055 23.25 72.0056 23.25 72.0057 23.25C72.0058 23.25 72.0059 23.25 72.006 23.25C72.0061 23.25 72.0062 23.25 72.0063 23.25C72.0064 23.25 72.0065 23.25 72.0066 23.25C72.0067 23.25 72.0068 23.25 72.0069 23.25C72.007 23.25 72.0071 23.25 72.0072 23.25C72.0072 23.25 72.0073 23.25 72.0074 23.25C72.0075 23.25 72.0076 23.25 72.0077 23.25C72.0078 23.25 72.0079 23.25 72.008 23.25V22.75ZM71.7608 22.7507C71.6576 22.7587 71.5897 22.762 71.552 22.762V23.262C71.6103 23.262 71.6944 23.2573 71.7992 23.2493L71.7608 22.7507ZM71.7892 22.9329C71.7583 22.8403 71.7583 22.7517 71.7892 22.6591L71.3148 22.5009C71.2497 22.6963 71.2497 22.8957 71.3148 23.0911L71.7892 22.9329ZM71.5848 22.8278L72.5808 22.6958L72.5152 22.2002L71.5192 22.3322L71.5848 22.8278ZM72.7966 22.4742C72.8301 22.1565 72.846 21.6776 72.846 21.044H72.346C72.346 21.6744 72.3299 22.1315 72.2994 22.4218L72.7966 22.4742ZM72.846 21.044V13.976H72.346V21.044H72.846ZM72.6266 13.7279L71.6546 13.6079L71.5934 14.1041L72.5654 14.2241L72.6266 13.7279ZM71.8656 13.7916C71.8463 13.7193 71.8419 13.6113 71.87 13.4567L71.378 13.3673C71.3421 13.5647 71.3377 13.7527 71.3824 13.9204L71.8656 13.7916ZM74.84 17.878H73.88V18.378H74.84V17.878ZM73.63 18.128V22.472H74.13V18.128H73.63ZM73.8366 22.7182C74.2481 22.7908 74.5822 22.8366 74.8354 22.8534L74.8686 22.3546C74.6418 22.3394 74.3279 22.2972 73.9234 22.2258L73.8366 22.7182ZM74.852 22.854C75.8341 22.854 76.5891 22.6748 77.0308 22.2427L76.6812 21.8853C76.3869 22.1732 75.8059 22.354 74.852 22.354V22.854ZM77.0328 22.2408C77.4664 21.8072 77.658 21.1581 77.658 20.348H77.158C77.158 21.0899 76.9816 21.5848 76.6792 21.8872L77.0328 22.2408ZM77.658 20.348C77.658 19.6547 77.4012 19.0643 76.8942 18.5929L76.5538 18.9591C76.9588 19.3357 77.158 19.7933 77.158 20.348H77.658ZM76.8975 18.596C76.3903 18.1069 75.6927 17.878 74.84 17.878V18.378C75.6033 18.378 76.1617 18.5811 76.5505 18.956L76.8975 18.596ZM74.924 13.57C74.5141 13.57 74.1632 13.5985 73.8761 13.6594L73.9799 14.1486C74.2208 14.0975 74.5339 14.07 74.924 14.07V13.57ZM73.6794 13.8778C73.6459 14.196 73.63 14.7074 73.63 15.404H74.13C74.13 14.7086 74.1461 14.22 74.1766 13.9302L73.6794 13.8778ZM73.63 15.404V17.528H74.13V15.404H73.63ZM73.88 17.778H74.816V17.278H73.88V17.778ZM74.816 17.778C75.5847 17.778 76.2001 17.6226 76.6037 17.2574L76.2683 16.8866C75.9999 17.1294 75.5353 17.278 74.816 17.278V17.778ZM76.6015 17.2593C77.0146 16.8943 77.202 16.3643 77.202 15.716H76.702C76.702 16.2677 76.5454 16.6417 76.2705 16.8847L76.6015 17.2593ZM77.202 15.716C77.202 15.053 76.9945 14.5093 76.5523 14.1236L76.2237 14.5004C76.5335 14.7707 76.702 15.163 76.702 15.716H77.202ZM76.5543 14.1254C76.1305 13.7476 75.5784 13.57 74.924 13.57V14.07C75.4856 14.07 75.9095 14.2204 76.2217 14.4986L76.5543 14.1254ZM81.7538 22.292L81.5645 22.4554L81.5684 22.4597L81.7538 22.292ZM83.2658 22.328L83.3776 22.5516L83.38 22.5504L83.2658 22.328ZM84.0818 21.68L84.2689 21.8458L84.3318 21.7748V21.68H84.0818ZM84.0818 19.808H84.3318V19.543L84.0672 19.5584L84.0818 19.808ZM82.1858 20.252L82.3055 20.4715L82.3085 20.4698L82.1858 20.252ZM84.0818 19.376L84.0871 19.6259L84.3318 19.6207V19.376H84.0818ZM83.8418 17.288L83.6169 17.3975L83.6206 17.4044L83.8418 17.288ZM82.1858 17.18L82.3657 17.3537L82.3685 17.3506L82.1858 17.18ZM81.7298 18.38L81.7832 18.6242L81.9531 18.5871L81.9773 18.4149L81.7298 18.38ZM80.6138 18.128H80.3638V18.1588L80.3712 18.1886L80.6138 18.128ZM81.3218 16.832L81.4621 17.0389L81.3218 16.832ZM84.7298 16.832L84.5529 17.0088L84.5575 17.0131L84.7298 16.832ZM85.2578 22.424L85.0112 22.4651L85.0418 22.6487L85.2264 22.672L85.2578 22.424ZM86.2058 22.544L86.4473 22.4796L86.404 22.3171L86.2372 22.296L86.2058 22.544ZM86.2058 23L86.2163 23.2498L86.4176 23.2413L86.4521 23.0428L86.2058 23ZM84.3938 23.168L84.217 23.3448L84.3048 23.4326L84.4278 23.4157L84.3938 23.168ZM84.2738 22.928L84.0244 22.9461L84.0253 22.9576L84.0272 22.9691L84.2738 22.928ZM84.2138 22.1L84.4631 22.0819L84.4198 21.4842L84.0255 21.9355L84.2138 22.1ZM80.8058 22.808L80.6265 22.9823L80.629 22.9848L80.8058 22.808ZM81.3818 19.976L81.2597 19.7578L81.2586 19.7585L81.3818 19.976ZM81.2758 21.404C81.2758 21.8375 81.3525 22.2098 81.5646 22.4554L81.943 22.1286C81.8511 22.0222 81.7758 21.8025 81.7758 21.404H81.2758ZM81.5684 22.4597C81.7858 22.7 82.1073 22.794 82.4738 22.794V22.294C82.1842 22.294 82.0258 22.22 81.9392 22.1243L81.5684 22.4597ZM82.4738 22.794C82.7635 22.794 83.0662 22.7073 83.3776 22.5516L83.154 22.1044C82.8894 22.2367 82.664 22.294 82.4738 22.294V22.794ZM83.38 22.5504C83.7068 22.3826 84.0029 22.1461 84.2689 21.8458L83.8946 21.5142C83.6647 21.7739 83.4167 21.9694 83.1516 22.1056L83.38 22.5504ZM84.3318 21.68V19.808H83.8318V21.68H84.3318ZM84.0672 19.5584C83.2265 19.6074 82.5508 19.7593 82.063 20.0342L82.3085 20.4698C82.7008 20.2487 83.289 20.1046 84.0963 20.0576L84.0672 19.5584ZM82.0661 20.0325C81.811 20.1717 81.6098 20.3585 81.4739 20.5957C81.3383 20.8323 81.2758 21.1048 81.2758 21.404H81.7758C81.7758 21.1752 81.8232 20.9917 81.9077 20.8443C81.9918 20.6975 82.1206 20.5723 82.3055 20.4715L82.0661 20.0325ZM84.3318 19.376V18.764H83.8318V19.376H84.3318ZM84.3318 18.764C84.3318 18.0758 84.2527 17.532 84.063 17.1716L83.6206 17.4044C83.7508 17.652 83.8318 18.0922 83.8318 18.764H84.3318ZM84.0665 17.1785C83.973 16.9864 83.8408 16.8301 83.6659 16.7235C83.4915 16.6172 83.2904 16.57 83.0738 16.57V17.07C83.2172 17.07 83.3241 17.1008 83.4057 17.1505C83.4867 17.1999 83.5586 17.2776 83.617 17.3975L84.0665 17.1785ZM83.0738 16.57C82.6457 16.57 82.2803 16.7124 82.003 17.0094L82.3685 17.3506C82.5393 17.1676 82.7658 17.07 83.0738 17.07V16.57ZM82.0059 17.0064C81.7263 17.296 81.5645 17.7607 81.4822 18.3451L81.9773 18.4149C82.055 17.8633 82.1973 17.528 82.3656 17.3536L82.0059 17.0064ZM81.6764 18.1358C81.4223 18.1913 81.2569 18.214 81.1658 18.214V18.714C81.3147 18.714 81.5253 18.6807 81.7832 18.6242L81.6764 18.1358ZM81.1658 18.214C81.0363 18.214 80.9628 18.1902 80.9238 18.1665C80.8922 18.1473 80.8696 18.1206 80.8563 18.0674L80.3712 18.1886C80.4139 18.3594 80.5113 18.5007 80.6638 18.5935C80.8087 18.6818 80.9833 18.714 81.1658 18.714V18.214ZM80.8638 18.128C80.8638 17.6716 81.0547 17.3151 81.4621 17.0389L81.1815 16.6251C80.6448 16.9889 80.3638 17.4964 80.3638 18.128H80.8638ZM81.4621 17.0389C81.8839 16.753 82.42 16.602 83.0858 16.602V16.102C82.3436 16.102 81.7037 16.271 81.1815 16.6251L81.4621 17.0389ZM83.0858 16.602C83.8397 16.602 84.3039 16.7597 84.553 17.0088L84.9066 16.6552C84.5156 16.2643 83.8838 16.102 83.0858 16.102V16.602ZM84.5575 17.0131C84.8084 17.2518 84.9718 17.7259 84.9718 18.524H85.4718C85.4718 17.6901 85.3072 17.0362 84.9021 16.6509L84.5575 17.0131ZM84.9718 18.524V21.908H85.4718V18.524H84.9718ZM84.9718 21.908C84.9718 22.1171 84.9843 22.3036 85.0112 22.4651L85.5044 22.3829C85.4833 22.2564 85.4718 22.0989 85.4718 21.908H84.9718ZM85.2264 22.672L86.1744 22.792L86.2372 22.296L85.2892 22.176L85.2264 22.672ZM85.9642 22.6084C85.9834 22.6803 85.9881 22.7925 85.9595 22.9572L86.4521 23.0428C86.4874 22.8395 86.4922 22.6477 86.4473 22.4796L85.9642 22.6084ZM86.1952 22.7502C85.6184 22.7746 85.0065 22.8314 84.3597 22.9203L84.4278 23.4157C85.0611 23.3286 85.6572 23.2734 86.2163 23.2498L86.1952 22.7502ZM84.5706 22.9912C84.5462 22.9669 84.5285 22.9356 84.5204 22.8869L84.0272 22.9691C84.0511 23.1124 84.1133 23.2411 84.217 23.3448L84.5706 22.9912ZM84.5231 22.9099L84.4631 22.0819L83.9644 22.1181L84.0244 22.9461L84.5231 22.9099ZM84.0255 21.9355C83.3968 22.6551 82.721 22.99 81.9938 22.99V23.49C82.8986 23.49 83.7028 23.0649 84.402 22.2645L84.0255 21.9355ZM81.9938 22.99C81.5394 22.99 81.2131 22.8617 80.9826 22.6312L80.629 22.9848C80.9745 23.3303 81.4402 23.49 81.9938 23.49V22.99ZM80.985 22.6337C80.7598 22.4021 80.6358 22.0818 80.6358 21.644H80.1358C80.1358 22.1822 80.2918 22.6379 80.6265 22.9823L80.985 22.6337ZM80.6358 21.644C80.6358 21.0021 80.9158 20.5272 81.505 20.1935L81.2586 19.7585C80.5198 20.1768 80.1358 20.8139 80.1358 21.644H80.6358ZM81.5039 20.1942C82.1274 19.8453 82.9824 19.6494 84.0871 19.6259L84.0765 19.1261C82.9252 19.1506 81.9802 19.3547 81.2597 19.7578L81.5039 20.1942ZM89.3519 16.592L89.6019 16.5969L89.6022 16.582L89.6007 16.5671L89.3519 16.592ZM89.3279 17.828L89.078 17.8231L89.5476 17.9474L89.3279 17.828ZM90.1559 16.82L90.3193 17.0092L90.3197 17.0089L90.1559 16.82ZM91.8359 16.436L92.0489 16.305L91.9984 16.223L91.9059 16.196L91.8359 16.436ZM91.7639 17.636L91.697 17.8769L91.9084 17.9356L91.9941 17.7336L91.7639 17.636ZM89.3159 18.476L89.1075 18.3379L89.0668 18.3994L89.066 18.4731L89.3159 18.476ZM89.2919 20.576L89.0419 20.5731V20.576H89.2919ZM89.2919 22.388H89.0419V22.6065L89.2585 22.6357L89.2919 22.388ZM90.6239 22.568L90.8665 22.5074L90.8254 22.3429L90.6574 22.3203L90.6239 22.568ZM90.6239 23.048L90.612 23.2977L90.834 23.3083L90.8705 23.0891L90.6239 23.048ZM87.1559 23.036L86.9175 23.1113L86.9741 23.2904L87.1619 23.2859L87.1559 23.036ZM87.1559 22.568L87.1215 22.3204L86.9626 22.3425L86.9165 22.4962L87.1559 22.568ZM88.1039 22.436L88.1384 22.6836L88.3386 22.6557L88.3533 22.4541L88.1039 22.436ZM88.1159 17.18L88.3621 17.1366L88.3301 16.9551L88.1473 16.932L88.1159 17.18ZM87.1679 17.06L86.9264 17.1244L86.9697 17.2869L87.1365 17.308L87.1679 17.06ZM87.1679 16.604L87.1499 16.3547L86.9551 16.3688L86.9216 16.5612L87.1679 16.604ZM89.2319 16.352L89.4178 16.1848L89.3273 16.0842L89.1936 16.105L89.2319 16.352ZM89.102 16.5871L89.078 17.8231L89.5779 17.8329L89.6019 16.5969L89.102 16.5871ZM89.5476 17.9474C89.7317 17.6086 89.9876 17.2957 90.3193 17.0092L89.9925 16.6308C89.6202 16.9523 89.3242 17.3114 89.1083 17.7086L89.5476 17.9474ZM90.3197 17.0089C90.6558 16.7176 90.9395 16.602 91.1759 16.602V16.102C90.7723 16.102 90.3761 16.2984 89.9922 16.6311L90.3197 17.0089ZM91.1759 16.602C91.4057 16.602 91.6014 16.628 91.7659 16.676L91.9059 16.196C91.6865 16.132 91.4422 16.102 91.1759 16.102V16.602ZM91.623 16.567C91.6553 16.6195 91.6819 16.7055 91.6819 16.844H92.1819C92.1819 16.6465 92.1446 16.4605 92.0489 16.305L91.623 16.567ZM91.6819 16.844C91.6819 17.0717 91.6338 17.3026 91.5338 17.5384L91.9941 17.7336C92.118 17.4414 92.1819 17.1443 92.1819 16.844H91.6819ZM91.8308 17.3951C91.5239 17.3099 91.2253 17.266 90.9359 17.266V17.766C91.1746 17.766 91.428 17.8021 91.697 17.8769L91.8308 17.3951ZM90.9359 17.266C90.1808 17.266 89.5687 17.6418 89.1075 18.3379L89.5243 18.6141C89.9112 18.0302 90.3791 17.766 90.9359 17.766V17.266ZM89.066 18.4731L89.042 20.5731L89.5419 20.5789L89.5659 18.4789L89.066 18.4731ZM89.0419 20.576V22.388H89.5419V20.576H89.0419ZM89.2585 22.6357L90.5905 22.8157L90.6574 22.3203L89.3254 22.1403L89.2585 22.6357ZM90.3814 22.6286C90.4021 22.7114 90.4061 22.834 90.3773 23.0069L90.8705 23.0891C90.9057 22.878 90.9098 22.6806 90.8665 22.5074L90.3814 22.6286ZM90.6358 22.7983C90.1269 22.7741 89.5469 22.762 88.8959 22.762V23.262C89.541 23.262 90.1129 23.2739 90.612 23.2977L90.6358 22.7983ZM88.8959 22.762C88.4054 22.762 87.8233 22.77 87.15 22.7861L87.1619 23.2859C87.8326 23.27 88.4105 23.262 88.8959 23.262V22.762ZM87.3943 22.9607C87.3622 22.8589 87.3611 22.7542 87.3954 22.6398L86.9165 22.4962C86.8548 22.7018 86.8537 22.9091 86.9175 23.1113L87.3943 22.9607ZM87.1904 22.8156L88.1384 22.6836L88.0695 22.1884L87.1215 22.3204L87.1904 22.8156ZM88.3533 22.4541C88.3858 22.0066 88.4019 21.4923 88.4019 20.912H87.9019C87.9019 21.4837 87.886 21.9854 87.8546 22.4179L88.3533 22.4541ZM88.4019 20.912V17.624H87.9019V20.912H88.4019ZM88.4019 17.624C88.4019 17.4517 88.389 17.2889 88.3621 17.1366L87.8697 17.2234C87.8909 17.3431 87.9019 17.4763 87.9019 17.624H88.4019ZM88.1473 16.932L87.1993 16.812L87.1365 17.308L88.0845 17.428L88.1473 16.932ZM87.4095 16.9956C87.3903 16.9237 87.3856 16.8115 87.4142 16.6468L86.9216 16.5612C86.8863 16.7645 86.8816 16.9563 86.9264 17.1244L87.4095 16.9956ZM87.186 16.8533C87.7473 16.8127 88.4426 16.7276 89.2703 16.599L89.1936 16.105C88.3733 16.2324 87.6926 16.3153 87.1499 16.3547L87.186 16.8533ZM89.0461 16.5192C89.0944 16.5729 89.102 16.6052 89.1032 16.6169L89.6007 16.5671C89.5859 16.4188 89.5134 16.2911 89.4178 16.1848L89.0461 16.5192Z" fill="#82B3FF"/>
</svg>
